<svg width="18" height="18" viewBox="0 0 18 18" fill="none" xmlns="http://www.w3.org/2000/svg">
<path fill-rule="evenodd" clip-rule="evenodd" d="M9 1.5C9.41421 1.5 9.75 1.83579 9.75 2.25V15.75C9.75 16.1642 9.41421 16.5 9 16.5C8.58579 16.5 8.25 16.1642 8.25 15.75V2.25C8.25 1.83579 8.58579 1.5 9 1.5ZM5.625 3.75C6.03921 3.75 6.375 4.08579 6.375 4.5L6.375 13.5C6.375 13.9142 6.03921 14.25 5.625 14.25C5.21079 14.25 4.875 13.9142 4.875 13.5L4.875 4.5C4.875 4.08579 5.21079 3.75 5.625 3.75ZM12.375 3.75C12.7892 3.75 13.125 4.08579 13.125 4.5V13.5C13.125 13.9142 12.7892 14.25 12.375 14.25C11.9608 14.25 11.625 13.9142 11.625 13.5V4.5C11.625 4.08579 11.9608 3.75 12.375 3.75ZM2.25 6.75C2.66421 6.75 3 7.08579 3 7.5V10.5C3 10.9142 2.66421 11.25 2.25 11.25C1.83579 11.25 1.5 10.9142 1.5 10.5L1.5 7.5C1.5 7.08579 1.83579 6.75 2.25 6.75ZM15.75 6.75C16.1642 6.75 16.5 7.08579 16.5 7.5V10.5C16.5 10.9142 16.1642 11.25 15.75 11.25C15.3358 11.25 15 10.9142 15 10.5V7.5C15 7.08579 15.3358 6.75 15.75 6.75Z" fill="#24CE7B"/>
</svg>
