<svg width="22" height="22" viewBox="0 0 22 22" fill="none" xmlns="http://www.w3.org/2000/svg">
<path d="M16.8369 8.13455L16.5207 7.18586L16.8369 8.13455ZM10.7572 10.1611L11.0734 11.1098L10.7572 10.1611ZM18.25 10.9969C18.25 11.5491 18.6977 11.9969 19.25 11.9969C19.8023 11.9969 20.25 11.5491 20.25 10.9969H18.25ZM16.8369 2.63455L17.1531 3.58323L16.8369 2.63455ZM10.7572 4.66113L10.4409 3.71245L10.7572 4.66113ZM7.25 12.8302C7.25 13.3825 7.69772 13.8302 8.25 13.8302C8.80228 13.8302 9.25 13.3825 9.25 12.8302H7.25ZM18.25 15.5802C18.25 16.5467 17.4665 17.3302 16.5 17.3302V19.3302C18.5711 19.3302 20.25 17.6513 20.25 15.5802H18.25ZM16.5 17.3302C15.5335 17.3302 14.75 16.5467 14.75 15.5802H12.75C12.75 17.6513 14.4289 19.3302 16.5 19.3302V17.3302ZM14.75 15.5802C14.75 14.6137 15.5335 13.8302 16.5 13.8302V11.8302C14.4289 11.8302 12.75 13.5091 12.75 15.5802H14.75ZM16.5 13.8302C17.4665 13.8302 18.25 14.6137 18.25 15.5802H20.25C20.25 13.5091 18.5711 11.8302 16.5 11.8302V13.8302ZM7.25 17.4135C7.25 18.38 6.4665 19.1635 5.5 19.1635V21.1635C7.57107 21.1635 9.25 19.4846 9.25 17.4135H7.25ZM5.5 19.1635C4.5335 19.1635 3.75 18.38 3.75 17.4135H1.75C1.75 19.4846 3.42893 21.1635 5.5 21.1635V19.1635ZM3.75 17.4135C3.75 16.447 4.5335 15.6635 5.5 15.6635V13.6635C3.42893 13.6635 1.75 15.3425 1.75 17.4135H3.75ZM5.5 15.6635C6.4665 15.6635 7.25 16.447 7.25 17.4135H9.25C9.25 15.3425 7.57107 13.6635 5.5 13.6635V15.6635ZM20.25 15.5802V9.8738H18.25V15.5802H20.25ZM16.5207 7.18586L10.4409 9.21245L11.0734 11.1098L17.1531 9.08323L16.5207 7.18586ZM7.25 13.6396V17.4135H9.25V13.6396H7.25ZM10.4409 9.21245C8.53534 9.84765 7.25 11.631 7.25 13.6396H9.25C9.25 12.4918 9.98448 11.4728 11.0734 11.1098L10.4409 9.21245ZM20.25 9.8738C20.25 7.93989 18.3554 6.57431 16.5207 7.18586L17.1531 9.08323C17.6928 8.90336 18.25 9.305 18.25 9.8738H20.25ZM20.25 10.9969V4.3738H18.25V10.9969H20.25ZM16.5207 1.68587L10.4409 3.71245L11.0734 5.60982L17.1531 3.58323L16.5207 1.68587ZM7.25 8.13964V12.8302H9.25V8.13964H7.25ZM10.4409 3.71245C8.53534 4.34765 7.25 6.13096 7.25 8.13964H9.25C9.25 6.99182 9.98448 5.97279 11.0734 5.60982L10.4409 3.71245ZM20.25 4.3738C20.25 2.43989 18.3554 1.07431 16.5207 1.68587L17.1531 3.58323C17.6928 3.40336 18.25 3.805 18.25 4.3738H20.25Z" fill="#28303F"/>
</svg>
