<svg width="20" height="20" viewBox="0 0 20 20" fill="none" xmlns="http://www.w3.org/2000/svg">
<path fill-rule="evenodd" clip-rule="evenodd" d="M8.68777 2.43946C8.60234 2.41895 8.50291 2.41413 8.05956 2.41413L4.3308 2.41413C3.85171 2.41413 3.5375 2.41471 3.29721 2.43435C3.06567 2.45326 2.96955 2.48606 2.91464 2.51404C2.74216 2.60193 2.60193 2.74216 2.51404 2.91464C2.48606 2.96955 2.45326 3.06567 2.43435 3.29721C2.41471 3.5375 2.41413 3.85171 2.41413 4.3308L2.41413 8.05956C2.41413 8.50291 2.41895 8.60234 2.43946 8.68777C2.46191 8.7813 2.49895 8.87071 2.54921 8.95273C2.59511 9.02763 2.66201 9.10135 2.97551 9.41485L9.36603 15.8054C9.8698 16.3091 10.2162 16.6547 10.5062 16.9009C10.7896 17.1415 10.9696 17.243 11.1233 17.2929C11.4748 17.4071 11.8534 17.4071 12.2049 17.2929C12.3587 17.243 12.5386 17.1415 12.822 16.9009C13.1121 16.6547 13.4585 16.3091 13.9622 15.8054L15.8054 13.9622C16.3091 13.4585 16.6547 13.1121 16.9009 12.822C17.1415 12.5386 17.243 12.3587 17.2929 12.2049C17.4071 11.8534 17.4071 11.4748 17.2929 11.1233C17.243 10.9696 17.1415 10.7896 16.9009 10.5062C16.6547 10.2162 16.3091 9.8698 15.8054 9.36603L9.41485 2.97551C9.10135 2.66201 9.02763 2.59511 8.95273 2.54921C8.87071 2.49895 8.7813 2.46191 8.68777 2.43946ZM8.12575 0.914096C8.46841 0.913827 8.7576 0.9136 9.03793 0.980903C9.28452 1.0401 9.52025 1.13775 9.73648 1.27025C9.9823 1.42089 10.1866 1.62553 10.4287 1.86802C10.4442 1.88348 10.4597 1.89909 10.4755 1.91485L16.8882 8.32757C17.3644 8.80372 17.7538 9.19313 18.0444 9.53547C18.3452 9.88981 18.584 10.2427 18.7195 10.6598C18.9316 11.3126 18.9316 12.0157 18.7195 12.6684C18.584 13.0855 18.3452 13.4384 18.0444 13.7928C17.7538 14.1351 17.3644 14.5245 16.8882 15.0007L15.0007 16.8882C14.5245 17.3644 14.1351 17.7538 13.7928 18.0444C13.4385 18.3452 13.0855 18.584 12.6684 18.7195C12.0157 18.9316 11.3126 18.9316 10.6598 18.7195C10.2427 18.584 9.88981 18.3452 9.53547 18.0444C9.19314 17.7538 8.80374 17.3644 8.3276 16.8883L1.91485 10.4755C1.89909 10.4597 1.88348 10.4442 1.86803 10.4287C1.62553 10.1866 1.42089 9.9823 1.27025 9.73648C1.13775 9.52025 1.0401 9.28452 0.980903 9.03793C0.9136 8.7576 0.913827 8.46841 0.914096 8.12575C0.914113 8.1039 0.91413 8.08185 0.91413 8.05956L0.91413 4.30129C0.914118 3.85974 0.914108 3.48375 0.939329 3.17506C0.965825 2.85076 1.02385 2.53526 1.17753 2.23365C1.40923 1.77893 1.77893 1.40923 2.23365 1.17753C2.53526 1.02385 2.85076 0.965825 3.17506 0.939328C3.48375 0.914107 3.85974 0.914118 4.30129 0.91413L8.05956 0.91413C8.08185 0.91413 8.10391 0.914113 8.12575 0.914096ZM5.49747 6.66413C5.49747 6.0198 6.0198 5.49746 6.66413 5.49746C7.30846 5.49746 7.8308 6.0198 7.8308 6.66413C7.8308 7.30846 7.30846 7.8308 6.66413 7.8308C6.0198 7.8308 5.49747 7.30846 5.49747 6.66413Z" fill="#222222"/>
</svg>
