<svg width="24" height="24" viewBox="0 0 24 24" fill="none" xmlns="http://www.w3.org/2000/svg">
<path d="M5.75 6.44444C5.75 6.85866 6.08579 7.19444 6.5 7.19444C6.91421 7.19444 7.25 6.85866 7.25 6.44444H5.75ZM15.3 15.6944C14.8858 15.6944 14.55 16.0302 14.55 16.4444C14.55 16.8587 14.8858 17.1944 15.3 17.1944V15.6944ZM10.9 6.25C10.4858 6.25 10.15 6.58579 10.15 7C10.15 7.41421 10.4858 7.75 10.9 7.75V6.25ZM18.6 7.75C19.0142 7.75 19.35 7.41421 19.35 7C19.35 6.58579 19.0142 6.25 18.6 6.25V7.75ZM14.2 10.6944C13.7858 10.6944 13.45 11.0302 13.45 11.4444C13.45 11.8587 13.7858 12.1944 14.2 12.1944V10.6944ZM18.6 12.1944C19.0142 12.1944 19.35 11.8587 19.35 11.4444C19.35 11.0302 19.0142 10.6944 18.6 10.6944V12.1944ZM11.25 18.6667V19.7778H12.75V18.6667H11.25ZM9.8 21.25H3.2V22.75H9.8V21.25ZM1.75 19.7778V18.6667H0.25V19.7778H1.75ZM9.61127 17.1944H9.8V15.6944H9.61127V17.1944ZM3.2 17.1944H3.38873V15.6944H3.2V17.1944ZM4.41138 17.623C5.56402 18.7873 7.43598 18.7873 8.58862 17.623L7.52265 16.5677C6.95698 17.139 6.04302 17.139 5.47735 16.5677L4.41138 17.623ZM3.38873 17.1944C3.77085 17.1944 4.13886 17.3477 4.41138 17.623L5.47735 16.5677C4.92471 16.0094 4.17357 15.6944 3.38873 15.6944V17.1944ZM9.61127 15.6944C8.82643 15.6944 8.07529 16.0094 7.52265 16.5677L8.58862 17.623C8.86115 17.3477 9.22915 17.1944 9.61127 17.1944V15.6944ZM3.2 21.25C2.40628 21.25 1.75 20.598 1.75 19.7778H0.25C0.25 21.4122 1.56367 22.75 3.2 22.75V21.25ZM11.25 19.7778C11.25 20.598 10.5937 21.25 9.8 21.25V22.75C11.4363 22.75 12.75 21.4122 12.75 19.7778H11.25ZM12.75 18.6667C12.75 17.0323 11.4363 15.6944 9.8 15.6944V17.1944C10.5937 17.1944 11.25 17.8465 11.25 18.6667H12.75ZM1.75 18.6667C1.75 17.8465 2.40628 17.1944 3.2 17.1944V15.6944C1.56367 15.6944 0.25 17.0323 0.25 18.6667H1.75ZM7.95 12C7.95 12.8202 7.29372 13.4722 6.5 13.4722V14.9722C8.13633 14.9722 9.45 13.6344 9.45 12H7.95ZM6.5 13.4722C5.70628 13.4722 5.05 12.8202 5.05 12H3.55C3.55 13.6344 4.86367 14.9722 6.5 14.9722V13.4722ZM5.05 12C5.05 11.1798 5.70628 10.5278 6.5 10.5278V9.02778C4.86367 9.02778 3.55 10.3656 3.55 12H5.05ZM6.5 10.5278C7.29372 10.5278 7.95 11.1798 7.95 12H9.45C9.45 10.3656 8.13633 9.02778 6.5 9.02778V10.5278ZM7.25 6.44444V4.22222H5.75V6.44444H7.25ZM8.7 2.75H20.8V1.25H8.7V2.75ZM22.25 4.22222V14.2222H23.75V4.22222H22.25ZM20.8 15.6944H15.3V17.1944H20.8V15.6944ZM22.25 14.2222C22.25 15.0424 21.5937 15.6944 20.8 15.6944V17.1944C22.4363 17.1944 23.75 15.8566 23.75 14.2222H22.25ZM20.8 2.75C21.5937 2.75 22.25 3.40201 22.25 4.22222H23.75C23.75 2.58783 22.4363 1.25 20.8 1.25V2.75ZM7.25 4.22222C7.25 3.40201 7.90628 2.75 8.7 2.75V1.25C7.06367 1.25 5.75 2.58783 5.75 4.22222H7.25ZM10.9 7.75H18.6V6.25H10.9V7.75ZM14.2 12.1944H18.6V10.6944H14.2V12.1944Z" fill="#24CE7B"/>
</svg>
