<svg width="18" height="18" viewBox="0 0 18 18" fill="none" xmlns="http://www.w3.org/2000/svg">
<path fill-rule="evenodd" clip-rule="evenodd" d="M4.85714 8.39062C4.24568 8.39062 3.75 8.88631 3.75 9.49777C3.75 10.1092 4.24568 10.6049 4.85714 10.6049C5.4686 10.6049 5.96429 10.1092 5.96429 9.49777C5.96429 8.88631 5.4686 8.39062 4.85714 8.39062ZM2.25 9.49777C2.25 8.05788 3.41726 6.89062 4.85714 6.89062C6.29703 6.89062 7.46429 8.05788 7.46429 9.49777C7.46429 10.9377 6.29703 12.1049 4.85714 12.1049C3.41726 12.1049 2.25 10.9377 2.25 9.49777Z" fill="#222222"/>
<path fill-rule="evenodd" clip-rule="evenodd" d="M13.2165 13.0391C12.6051 13.0391 12.1094 13.5347 12.1094 14.1462C12.1094 14.7577 12.6051 15.2533 13.2165 15.2533C13.828 15.2533 14.3237 14.7577 14.3237 14.1462C14.3237 13.5347 13.828 13.0391 13.2165 13.0391ZM10.6094 14.1462C10.6094 12.7063 11.7766 11.5391 13.2165 11.5391C14.6564 11.5391 15.8237 12.7063 15.8237 14.1462C15.8237 15.5861 14.6564 16.7533 13.2165 16.7533C11.7766 16.7533 10.6094 15.5861 10.6094 14.1462Z" fill="#222222"/>
<path fill-rule="evenodd" clip-rule="evenodd" d="M13.2165 3.75C12.6051 3.75 12.1094 4.24568 12.1094 4.85714C12.1094 5.4686 12.6051 5.96429 13.2165 5.96429C13.828 5.96429 14.3237 5.4686 14.3237 4.85714C14.3237 4.24568 13.828 3.75 13.2165 3.75ZM10.6094 4.85714C10.6094 3.41726 11.7766 2.25 13.2165 2.25C14.6564 2.25 15.8237 3.41726 15.8237 4.85714C15.8237 6.29703 14.6564 7.46429 13.2165 7.46429C11.7766 7.46429 10.6094 6.29703 10.6094 4.85714Z" fill="#222222"/>
<path fill-rule="evenodd" clip-rule="evenodd" d="M12.4174 5.91356C12.6033 6.28371 12.454 6.73448 12.0838 6.92038L7.60239 9.1711C7.23224 9.357 6.78147 9.20764 6.59557 8.83749C6.40966 8.46733 6.55903 8.01656 6.92918 7.83066L11.4106 5.57994C11.7808 5.39404 12.2315 5.5434 12.4174 5.91356Z" fill="#222222"/>
<path fill-rule="evenodd" clip-rule="evenodd" d="M6.59557 10.1636C6.78147 9.7934 7.23224 9.64404 7.60239 9.82994L12.0838 12.0807C12.454 12.2666 12.6033 12.7173 12.4174 13.0875C12.2315 13.4576 11.7808 13.607 11.4106 13.4211L6.92918 11.1704C6.55903 10.9845 6.40966 10.5337 6.59557 10.1636Z" fill="#222222"/>
</svg>
