<svg width="25" height="24" viewBox="0 0 25 24" fill="none" xmlns="http://www.w3.org/2000/svg">
<path opacity="0.4" d="M22.2621 12C22.2621 15.0134 20.9293 17.7154 18.821 19.5488C17.0652 21.0756 14.7716 22 12.2621 22C9.75267 22 7.45908 21.0756 5.70331 19.5488C3.59499 17.7154 2.26215 15.0134 2.26215 12C2.26215 6.47715 6.7393 2 12.2621 2C17.785 2 22.2621 6.47715 22.2621 12Z" fill="#DDDDDD"/>
<path d="M18.8209 19.5488C17.8274 16.8918 15.2657 15 12.262 15C9.25846 15 6.69668 16.8918 5.70325 19.5488C7.45902 21.0756 9.7526 22 12.262 22C14.7715 22 17.0651 21.0756 18.8209 19.5488Z" fill="white"/>
<path d="M12.2621 7C13.9189 7 15.2621 8.34315 15.2621 10C15.2621 11.6569 13.9189 13 12.2621 13C10.6052 13 9.26208 11.6569 9.26208 10C9.26208 8.34315 10.6052 7 12.2621 7Z" fill="white"/>
</svg>
