<svg width="20" height="20" viewBox="0 0 20 20" fill="none" xmlns="http://www.w3.org/2000/svg">
<path d="M5.83333 16.667H3.33333C3.11232 16.667 2.90036 16.5792 2.74408 16.4229C2.5878 16.2666 2.5 16.0547 2.5 15.8337V6.66699" stroke="#222222" stroke-width="1.2" stroke-linecap="round" stroke-linejoin="round"/>
<path d="M16.6668 3.33301H6.66683C6.44582 3.33301 6.23385 3.42081 6.07757 3.57709C5.92129 3.73337 5.8335 3.94533 5.8335 4.16634V12.4997C5.8335 12.7207 5.92129 12.9326 6.07757 13.0889C6.23385 13.2452 6.44582 13.333 6.66683 13.333H9.16683V15.833L13.3335 13.333H16.6668C16.8878 13.333 17.0998 13.2452 17.2561 13.0889C17.4124 12.9326 17.5002 12.7207 17.5002 12.4997V4.16634C17.5002 3.94533 17.4124 3.73337 17.2561 3.57709C17.0998 3.42081 16.8878 3.33301 16.6668 3.33301V3.33301Z" stroke="#222222" stroke-width="1.2" stroke-linecap="round" stroke-linejoin="round"/>
</svg>
