<svg width="40" height="40" viewBox="0 0 40 40" fill="none" xmlns="http://www.w3.org/2000/svg">
<rect x="0.5" y="0.5" width="39" height="39" rx="4.5" fill="white" stroke="#24CE7B"/>
<path d="M20.0015 12.5026C19.3384 12.5026 18.7025 12.766 18.2337 13.2348C17.7649 13.7037 17.5015 14.3396 17.5015 15.0026V20.0026C17.5015 20.6656 17.7649 21.3015 18.2337 21.7704C18.7025 22.2392 19.3384 22.5026 20.0015 22.5026C20.6645 22.5026 21.3004 22.2392 21.7692 21.7704C22.2381 21.3015 22.5015 20.6656 22.5015 20.0026V15.0026C22.5015 14.3396 22.2381 13.7037 21.7692 13.2348C21.3004 12.766 20.6645 12.5026 20.0015 12.5026ZM20.0015 10.8359C20.5486 10.8359 21.0904 10.9437 21.596 11.1531C22.1015 11.3625 22.5608 11.6694 22.9477 12.0563C23.3346 12.4432 23.6416 12.9026 23.851 13.4081C24.0604 13.9136 24.1681 14.4554 24.1681 15.0026V20.0026C24.1681 21.1077 23.7291 22.1675 22.9477 22.9489C22.1663 23.7303 21.1065 24.1693 20.0015 24.1693C18.8964 24.1693 17.8366 23.7303 17.0552 22.9489C16.2738 22.1675 15.8348 21.1077 15.8348 20.0026V15.0026C15.8348 13.8975 16.2738 12.8377 17.0552 12.0563C17.8366 11.2749 18.8964 10.8359 20.0015 10.8359ZM11.8281 21.6376L13.4631 21.3101C13.7668 22.8205 14.584 24.1791 15.7759 25.1553C16.9678 26.1314 18.4609 26.6647 20.0015 26.6647C21.5421 26.6647 23.0351 26.1314 24.227 25.1553C25.4189 24.1791 26.2361 22.8205 26.5398 21.3101L28.1748 21.6376C27.4148 25.4568 24.0431 28.3359 20.0015 28.3359C15.9598 28.3359 12.5881 25.4568 11.8281 21.6376Z" fill="#24CE7B"/>
</svg>
