<svg width="26" height="26" viewBox="0 0 26 26" fill="none" xmlns="http://www.w3.org/2000/svg">
<path d="M9.20573 15.8863C9.20573 17.2823 10.3375 18.4141 11.7335 18.4141H14.0807C15.5765 18.4141 16.7891 17.2015 16.7891 15.7057C16.7891 14.21 15.5765 12.9974 14.0807 12.9974H11.9141C10.4183 12.9974 9.20573 11.7848 9.20573 10.2891C9.20573 8.79329 10.4183 7.58073 11.9141 7.58073H14.2613C15.6573 7.58073 16.7891 8.71245 16.7891 10.1085M12.9974 5.95573V7.58073M12.9974 18.4141V20.0391M23.8307 12.9974C23.8307 18.9805 18.9805 23.8307 12.9974 23.8307C7.01431 23.8307 2.16406 18.9805 2.16406 12.9974C2.16406 7.01431 7.01431 2.16406 12.9974 2.16406C18.9805 2.16406 23.8307 7.01431 23.8307 12.9974Z" stroke="#666666" stroke-width="1.2" stroke-linecap="round" stroke-linejoin="round"/>
</svg>
