<svg width="27" height="27" viewBox="0 0 27 27" fill="none" xmlns="http://www.w3.org/2000/svg">
<path d="M21.5625 20.25C21.5625 19.8358 21.2267 19.5 20.8125 19.5C20.3983 19.5 20.0625 19.8358 20.0625 20.25H21.5625ZM20.0625 21.375C20.0625 21.7892 20.3983 22.125 20.8125 22.125C21.2267 22.125 21.5625 21.7892 21.5625 21.375H20.0625ZM20.0625 20.25C20.0625 20.6642 20.3983 21 20.8125 21C21.2267 21 21.5625 20.6642 21.5625 20.25H20.0625ZM21.5625 7.875C21.5625 7.46079 21.2267 7.125 20.8125 7.125C20.3983 7.125 20.0625 7.46079 20.0625 7.875H21.5625ZM20.6553 20.9833C21.0603 21.0702 21.459 20.8122 21.5458 20.4072C21.6327 20.0022 21.3747 19.6035 20.9697 19.5167L20.6553 20.9833ZM14.2197 18.0699C13.8147 17.9831 13.416 18.2411 13.3292 18.6461C13.2423 19.0511 13.5003 19.4498 13.9053 19.5366L14.2197 18.0699ZM5.8125 16.875C5.8125 16.4608 5.47671 16.125 5.0625 16.125C4.64829 16.125 4.3125 16.4608 4.3125 16.875H5.8125ZM4.3125 18C4.3125 18.4142 4.64829 18.75 5.0625 18.75C5.47671 18.75 5.8125 18.4142 5.8125 18H4.3125ZM4.3125 16.875C4.3125 17.2892 4.64829 17.625 5.0625 17.625C5.47671 17.625 5.8125 17.2892 5.8125 16.875H4.3125ZM5.8125 11.25C5.8125 10.8358 5.47671 10.5 5.0625 10.5C4.64829 10.5 4.3125 10.8358 4.3125 11.25H5.8125ZM5.21962 16.1416C4.8146 16.0549 4.41592 16.3129 4.32914 16.7179C4.24237 17.1229 4.50036 17.5216 4.90538 17.6084L5.21962 16.1416ZM13.9054 19.5366C14.3104 19.6234 14.7091 19.3654 14.7959 18.9604C14.8826 18.5553 14.6246 18.1567 14.2196 18.0699L13.9054 19.5366ZM20.0625 7.875C20.0625 8.28921 20.3983 8.625 20.8125 8.625C21.2267 8.625 21.5625 8.28921 21.5625 7.875H20.0625ZM21.5625 6.75C21.5625 6.33579 21.2267 6 20.8125 6C20.3983 6 20.0625 6.33579 20.0625 6.75H21.5625ZM20.9696 8.60835C21.3747 8.52156 21.6326 8.12287 21.5459 7.71785C21.4591 7.31283 21.0604 7.05486 20.6554 7.14165L20.9696 8.60835ZM4.90535 10.5166C4.50033 10.6034 4.24236 11.0021 4.32915 11.4071C4.41594 11.8122 4.81463 12.0701 5.21965 11.9834L4.90535 10.5166ZM4.3125 11.25C4.3125 11.6642 4.64829 12 5.0625 12C5.47671 12 5.8125 11.6642 5.8125 11.25H4.3125ZM5.8125 10.125C5.8125 9.71079 5.47671 9.375 5.0625 9.375C4.64829 9.375 4.3125 9.71079 4.3125 10.125H5.8125ZM10.3125 17.8391C10.3125 17.4249 9.97671 17.0891 9.5625 17.0891C9.14829 17.0891 8.8125 17.4249 8.8125 17.8391H10.3125ZM9.5625 18.7391L10.3105 18.7935C10.3118 18.7754 10.3125 18.7573 10.3125 18.7391H9.5625ZM11.8125 21.375L11.7488 22.1223C11.7906 22.1259 11.8326 22.1259 11.8744 22.1224L11.8125 21.375ZM14.8115 18.7653C14.7906 18.3516 14.4382 18.0333 14.0246 18.0542C13.6109 18.0752 13.2925 18.4275 13.3135 18.8412L14.8115 18.7653ZM20.0625 20.25V21.375H21.5625V20.25H20.0625ZM21.5625 20.25V7.875H20.0625V20.25H21.5625ZM20.9697 19.5167L14.2197 18.0699L13.9053 19.5366L20.6553 20.9833L20.9697 19.5167ZM4.3125 16.875V18H5.8125V16.875H4.3125ZM5.8125 16.875V11.25H4.3125V16.875H5.8125ZM4.90538 17.6084L13.9054 19.5366L14.2196 18.0699L5.21962 16.1416L4.90538 17.6084ZM21.5625 7.875V6.75H20.0625V7.875H21.5625ZM20.6554 7.14165L4.90535 10.5166L5.21965 11.9834L20.9696 8.60835L20.6554 7.14165ZM5.8125 11.25V10.125H4.3125V11.25H5.8125ZM8.8125 17.8391V18.7391H10.3125V17.8391H8.8125ZM8.81447 18.6847C8.68684 20.4406 9.99467 21.9727 11.7488 22.1223L11.8762 20.6277C10.9403 20.5479 10.2424 19.7304 10.3105 18.7935L8.81447 18.6847ZM11.8744 22.1224C13.5991 21.9796 14.8991 20.4937 14.8115 18.7653L13.3135 18.8412C13.3601 19.7609 12.6683 20.5515 11.7506 20.6276L11.8744 22.1224Z" fill="#444444"/>
</svg>
