<svg width="38" height="38" viewBox="0 0 38 38" fill="none" xmlns="http://www.w3.org/2000/svg">
<path d="M18.0019 24.5922C18.0019 25.1445 18.4496 25.5922 19.0019 25.5922C19.5542 25.5922 20.0019 25.1445 20.0019 24.5922H18.0019ZM20.0019 21.7927C20.0019 21.2404 19.5542 20.7927 19.0019 20.7927C18.4496 20.7927 18.0019 21.2404 18.0019 21.7927H20.0019ZM23.7221 15.156C23.7221 15.7083 24.1698 16.156 24.7221 16.156C25.2744 16.156 25.7221 15.7083 25.7221 15.156H23.7221ZM24.7221 10.8788L23.7221 10.8649V10.8788H24.7221ZM19.0093 5L19.024 4.00011C19.0142 3.99996 19.0043 3.99996 18.9945 4.00011L19.0093 5ZM13.2964 10.8788H14.2965L14.2963 10.8649L13.2964 10.8788ZM12.2964 15.156C12.2964 15.7083 12.7441 16.156 13.2964 16.156C13.8487 16.156 14.2964 15.7083 14.2964 15.156H12.2964ZM24.1589 15.9843C24.6155 16.295 25.2375 16.1767 25.5483 15.7202C25.859 15.2636 25.7408 14.6416 25.2842 14.3308L24.1589 15.9843ZM12.7332 14.3308C12.2766 14.6416 12.1584 15.2636 12.4691 15.7202C12.7798 16.1767 13.4019 16.295 13.8584 15.9843L12.7332 14.3308ZM25.2823 14.3285C24.826 14.0173 24.2039 14.1348 23.8926 14.5911C23.5814 15.0473 23.699 15.6695 24.1552 15.9807L25.2823 14.3285ZM26.0745 16.2664L25.3747 16.9808L25.3748 16.9809L26.0745 16.2664ZM28.8039 21.2834L29.784 21.0847L29.7839 21.0841L28.8039 21.2834ZM28.234 26.9443L29.1546 27.3349L29.1548 27.3343L28.234 26.9443ZM24.5508 31.3434L24.0044 30.5058L24.0041 30.506L24.5508 31.3434ZM11.9273 30.1256L11.2302 30.8426L11.2307 30.8431L11.9273 30.1256ZM10.6935 17.7521L11.5184 18.3173L11.5197 18.3155L10.6935 17.7521ZM13.8564 15.9788C14.3127 15.6676 14.4303 15.0454 14.1192 14.5892C13.808 14.1329 13.1858 14.0153 12.7296 14.3264L13.8564 15.9788ZM20.0019 24.5922V21.7927H18.0019V24.5922H20.0019ZM25.7221 15.156V10.8788H23.7221V15.156H25.7221ZM25.722 10.8927C25.7742 7.1404 22.7763 4.05539 19.024 4.00011L18.9945 5.99989C21.643 6.03891 23.759 8.21641 23.7222 10.8649L25.722 10.8927ZM18.9945 4.00011C15.2422 4.05539 12.2443 7.1404 12.2965 10.8927L14.2963 10.8649C14.2595 8.21641 16.3755 6.03891 19.024 5.99989L18.9945 4.00011ZM12.2964 10.8788V15.156H14.2964V10.8788H12.2964ZM25.2842 14.3308C21.4974 11.7537 16.52 11.7537 12.7332 14.3308L13.8584 15.9843C16.9662 13.8692 21.0511 13.8692 24.1589 15.9843L25.2842 14.3308ZM24.1552 15.9807C24.5903 16.2775 24.9984 16.6122 25.3747 16.9808L26.7742 15.552C26.3139 15.1011 25.8146 14.6916 25.2823 14.3285L24.1552 15.9807ZM25.3748 16.9809C26.6228 18.2029 27.4759 19.771 27.824 21.4827L29.7839 21.0841C29.3561 18.9807 28.3077 17.0537 26.7741 15.5519L25.3748 16.9809ZM27.8238 21.482C28.1692 23.1856 27.9912 24.9537 27.3132 26.5542L29.1548 27.3343C29.9901 25.3622 30.2094 23.1837 29.784 21.0847L27.8238 21.482ZM27.3135 26.5536C26.6274 28.1704 25.4754 29.5462 24.0044 30.5058L25.0971 32.1809C26.9008 31.0043 28.3133 29.3173 29.1546 27.3349L27.3135 26.5536ZM24.0041 30.506C20.4205 32.8452 15.6943 32.3893 12.6239 29.4082L11.2307 30.8431C14.9719 34.4756 20.7307 35.0311 25.0974 32.1808L24.0041 30.506ZM12.6243 29.4086C9.60534 26.4735 9.13844 21.7908 11.5184 18.3173L9.86857 17.1868C6.93829 21.4635 7.51315 27.2288 11.2302 30.8426L12.6243 29.4086ZM11.5197 18.3155C12.1458 17.3975 12.9384 16.6049 13.8564 15.9788L12.7296 14.3264C11.6051 15.0933 10.6342 16.0641 9.86734 17.1886L11.5197 18.3155Z" fill="#24CE7B"/>
</svg>
