<svg width="24" height="24" viewBox="0 0 24 24" fill="none" xmlns="http://www.w3.org/2000/svg">
<path fill-rule="evenodd" clip-rule="evenodd" d="M17.0003 17.2342C16.969 16.3071 16.1976 15.5777 15.2702 15.5986C14.3428 15.6194 13.6049 16.3826 13.6153 17.3102C13.6258 18.2377 14.3807 18.9842 15.3083 18.9842C16.2586 18.9677 17.0159 18.1845 17.0003 17.2342Z" stroke="#24CE7B" stroke-width="1.5" stroke-linecap="round" stroke-linejoin="round"/>
<path fill-rule="evenodd" clip-rule="evenodd" d="M11.0774 11.9844C11.1007 13.4102 9.9642 14.5853 8.53836 14.6094C7.1129 14.5847 5.97696 13.4098 6.00035 11.9844C5.97696 10.5589 7.1129 9.38402 8.53836 9.35938C9.9642 9.38348 11.1007 10.5585 11.0774 11.9844Z" stroke="#24CE7B" stroke-width="1.5" stroke-linecap="round" stroke-linejoin="round"/>
<path fill-rule="evenodd" clip-rule="evenodd" d="M16.155 6.73414C16.17 7.34862 15.8507 7.92293 15.3209 8.23456C14.7911 8.54619 14.134 8.54619 13.6042 8.23456C13.0744 7.92293 12.7551 7.34862 12.77 6.73414C12.7551 6.11966 13.0744 5.54536 13.6042 5.23372C14.134 4.92209 14.7911 4.92209 15.3209 5.23372C15.8507 5.54536 16.17 6.11966 16.155 6.73414Z" stroke="#24CE7B" stroke-width="1.5" stroke-linecap="round" stroke-linejoin="round"/>
<path d="M13.6053 16.6879C13.9433 16.9274 14.4114 16.8477 14.6509 16.5097C14.8905 16.1718 14.8107 15.7037 14.4728 15.4642L13.6053 16.6879ZM10.9728 12.9832C10.6349 12.7436 10.1667 12.8234 9.9272 13.1613C9.68765 13.4992 9.76741 13.9673 10.1053 14.2069L10.9728 12.9832ZM13.7016 8.44255C14.004 8.15947 14.0197 7.68485 13.7366 7.38246C13.4535 7.08007 12.9789 7.06442 12.6765 7.34749L13.7016 8.44255ZM10.0305 9.82449C9.72812 10.1076 9.71246 10.5822 9.99554 10.8846C10.2786 11.187 10.7532 11.2026 11.0556 10.9195L10.0305 9.82449ZM14.4728 15.4642L10.9728 12.9832L10.1053 14.2069L13.6053 16.6879L14.4728 15.4642ZM12.6765 7.34749L10.0305 9.82449L11.0556 10.9195L13.7016 8.44255L12.6765 7.34749Z" fill="#24CE7B"/>
</svg>
