<svg width="34" height="34" viewBox="0 0 34 34" fill="none" xmlns="http://www.w3.org/2000/svg">
<g clip-path="url(#clip0_1_327)">
<path d="M17.0025 8.1991C19.8712 8.1991 20.2109 8.21168 21.3391 8.26201C22.3877 8.30814 22.9539 8.48429 23.3313 8.63109C23.8304 8.82401 24.1911 9.05888 24.5644 9.43215C24.9419 9.80962 25.1725 10.1661 25.3655 10.6652C25.5123 11.0427 25.6884 11.6131 25.7345 12.6574C25.7849 13.7898 25.7975 14.1295 25.7975 16.9941C25.7975 19.8628 25.7849 20.2025 25.7345 21.3308C25.6884 22.3793 25.5123 22.9455 25.3655 23.3229C25.1725 23.822 24.9377 24.1827 24.5644 24.556C24.1869 24.9335 23.8304 25.1641 23.3313 25.3571C22.9539 25.5039 22.3835 25.68 21.3391 25.7262C20.2067 25.7765 19.867 25.7891 17.0025 25.7891C14.1337 25.7891 13.794 25.7765 12.6658 25.7262C11.6173 25.68 11.0511 25.5039 10.6736 25.3571C10.1745 25.1641 9.81382 24.9293 9.44054 24.556C9.06308 24.1785 8.8324 23.822 8.63947 23.3229C8.49268 22.9455 8.31653 22.3751 8.27039 21.3308C8.22007 20.1984 8.20748 19.8586 8.20748 16.9941C8.20748 14.1253 8.22007 13.7856 8.27039 12.6574C8.31653 11.6089 8.49268 11.0427 8.63947 10.6652C8.8324 10.1661 9.06727 9.80543 9.44054 9.43215C9.81801 9.05469 10.1745 8.82401 10.6736 8.63109C11.0511 8.48429 11.6215 8.30814 12.6658 8.26201C13.794 8.21168 14.1337 8.1991 17.0025 8.1991ZM17.0025 6.26562C14.0876 6.26562 13.7227 6.27821 12.5777 6.32854C11.4369 6.37887 10.6526 6.5634 9.97319 6.82763C9.26439 7.10444 8.66464 7.46933 8.06908 8.06908C7.46933 8.66464 7.10444 9.26439 6.82763 9.969C6.5634 10.6526 6.37887 11.4327 6.32854 12.5735C6.27821 13.7227 6.26562 14.0876 6.26562 17.0025C6.26562 19.9174 6.27821 20.2822 6.32854 21.4272C6.37887 22.568 6.5634 23.3523 6.82763 24.0317C7.10444 24.7405 7.46933 25.3403 8.06908 25.9359C8.66464 26.5314 9.26439 26.9005 9.969 27.1731C10.6526 27.4373 11.4327 27.6219 12.5735 27.6722C13.7185 27.7225 14.0834 27.7351 16.9983 27.7351C19.9132 27.7351 20.278 27.7225 21.423 27.6722C22.5638 27.6219 23.3481 27.4373 24.0275 27.1731C24.7322 26.9005 25.3319 26.5314 25.9275 25.9359C26.523 25.3403 26.8921 24.7405 27.1647 24.0359C27.4289 23.3523 27.6135 22.5722 27.6638 21.4314C27.7141 20.2864 27.7267 19.9215 27.7267 17.0067C27.7267 14.0918 27.7141 13.7269 27.6638 12.5819C27.6135 11.4411 27.4289 10.6568 27.1647 9.97738C26.9005 9.26439 26.5356 8.66464 25.9359 8.06908C25.3403 7.47352 24.7405 7.10444 24.0359 6.83183C23.3523 6.5676 22.5722 6.38306 21.4314 6.33273C20.2822 6.27821 19.9174 6.26562 17.0025 6.26562Z" fill="#ACACAC"/>
<path d="M16.9996 11.4844C13.9547 11.4844 11.4844 13.9547 11.4844 16.9996C11.4844 20.0445 13.9547 22.5148 16.9996 22.5148C20.0445 22.5148 22.5148 20.0445 22.5148 16.9996C22.5148 13.9547 20.0445 11.4844 16.9996 11.4844ZM16.9996 20.5771C15.0242 20.5771 13.422 18.975 13.422 16.9996C13.422 15.0242 15.0242 13.422 16.9996 13.422C18.975 13.422 20.5771 15.0242 20.5771 16.9996C20.5771 18.975 18.975 20.5771 16.9996 20.5771Z" fill="#ACACAC"/>
<path d="M24.0205 11.272C24.0205 11.985 23.4417 12.5595 22.7329 12.5595C22.0199 12.5595 21.4453 11.9808 21.4453 11.272C21.4453 10.559 22.0241 9.98438 22.7329 9.98438C23.4417 9.98438 24.0205 10.5632 24.0205 11.272Z" fill="#ACACAC"/>
</g>
<defs>
<clipPath id="clip0_1_327">
<rect width="21.4737" height="21.4737" fill="white" transform="translate(6.26562 6.26562)"/>
</clipPath>
</defs>
</svg>
