<svg width="26" height="26" viewBox="0 0 26 26" fill="none" xmlns="http://www.w3.org/2000/svg">
<path d="M9.7474 16.7917H8.1224C6.61054 16.7917 5.8546 16.7917 5.23949 16.9783C3.85456 17.3984 2.77077 18.4822 2.35066 19.8671C2.16406 20.4822 2.16406 21.2381 2.16406 22.75M15.7057 8.125C15.7057 10.8174 13.5231 13 10.8307 13C8.13834 13 5.95573 10.8174 5.95573 8.125C5.95573 5.43261 8.13834 3.25 10.8307 3.25C13.5231 3.25 15.7057 5.43261 15.7057 8.125ZM11.9141 22.75L15.2739 21.7901C15.4348 21.7441 15.5152 21.7211 15.5902 21.6867C15.6569 21.6561 15.7202 21.6188 15.7793 21.5754C15.8458 21.5266 15.905 21.4674 16.0233 21.3491L23.0183 14.3542C23.7662 13.6063 23.7662 12.3937 23.0183 11.6458C22.2704 10.8979 21.0578 10.8979 20.3099 11.6458L13.315 18.6407C13.1967 18.7591 13.1375 18.8182 13.0887 18.8848C13.0453 18.9439 13.008 19.0072 12.9774 19.0738C12.943 19.1489 12.92 19.2293 12.874 19.3902L11.9141 22.75Z" stroke="#666666" stroke-width="1.2" stroke-linecap="round" stroke-linejoin="round"/>
</svg>
