<svg width="18" height="18" viewBox="0 0 18 18" fill="none" xmlns="http://www.w3.org/2000/svg">
<path d="M11.7215 16.0886L11.9072 15.6243L11.7215 16.0886ZM9.27854 15.1114L9.46424 14.6472L9.46424 14.6472L9.27854 15.1114ZM8.72146 15.1114L8.90715 15.5757H8.90715L8.72146 15.1114ZM6.27854 16.0886L6.46424 16.5528H6.46424L6.27854 16.0886ZM12.25 12V15.3922H13.25V12H12.25ZM5.75 15.3922V12H4.75V15.3922H5.75ZM11.9072 15.6243L9.46424 14.6472L9.09285 15.5757L11.5358 16.5528L11.9072 15.6243ZM8.53576 14.6472L6.09285 15.6243L6.46424 16.5528L8.90715 15.5757L8.53576 14.6472ZM9.46424 14.6472C9.16622 14.528 8.83378 14.528 8.53576 14.6472L8.90715 15.5757C8.96675 15.5518 9.03324 15.5518 9.09285 15.5757L9.46424 14.6472ZM4.75 15.3922C4.75 16.2766 5.64316 16.8813 6.46424 16.5528L6.09285 15.6243C5.92863 15.69 5.75 15.5691 5.75 15.3922H4.75ZM12.25 15.3922C12.25 15.5691 12.0714 15.69 11.9072 15.6243L11.5358 16.5528C12.3568 16.8813 13.25 16.2766 13.25 15.3922H12.25Z" fill="#222222"/>
<path d="M6.48147 2.7297L6.52125 3.22812L6.48147 2.7297ZM7.40776 2.34602L7.73207 2.72658V2.72658L7.40776 2.34602ZM4.28577 4.27885L3.78735 4.23908V4.23908L4.28577 4.27885ZM5.77885 2.78577L5.73908 2.28735L5.77885 2.78577ZM3.84602 5.90776L3.46546 5.58345L3.84602 5.90776ZM4.2297 4.98147L4.72812 5.02125V5.02125L4.2297 4.98147ZM3.38884 8.55577L3.7694 8.23146H3.7694L3.38884 8.55577ZM3.38884 6.44423L3.7694 6.76854H3.7694L3.38884 6.44423ZM4.2297 10.0185L4.72812 9.97875L4.2297 10.0185ZM3.84602 9.09224L3.46546 9.41655H3.46546L3.84602 9.09224ZM5.77885 12.2142L5.73908 12.7126H5.73908L5.77885 12.2142ZM4.28577 10.7212L3.78735 10.7609L4.28577 10.7212ZM7.40776 12.654L7.08345 13.0345L7.40776 12.654ZM6.48147 12.2703L6.52124 11.7719H6.52124L6.48147 12.2703ZM10.0558 13.1112L10.3801 13.4917L10.0558 13.1112ZM7.94423 13.1112L8.26854 12.7306L7.94423 13.1112ZM11.5185 12.2703L11.4788 11.7719H11.4788L11.5185 12.2703ZM10.5922 12.654L10.2679 12.2734L10.5922 12.654ZM13.7142 10.7212L14.2126 10.7609V10.7609L13.7142 10.7212ZM12.2212 12.2142L12.2609 12.7126H12.2609L12.2212 12.2142ZM14.154 9.09224L13.7734 8.76793L14.154 9.09224ZM13.7703 10.0185L13.2719 9.97876V9.97876L13.7703 10.0185ZM14.6112 6.44423L14.2306 6.76854L14.6112 6.44423ZM14.6112 8.55577L14.9917 8.88008L14.6112 8.55577ZM13.7703 4.98147L13.2719 5.02124V5.02125L13.7703 4.98147ZM14.154 5.90776L14.5345 5.58345L14.154 5.90776ZM12.2212 2.78577L12.2609 2.28735L12.2212 2.78577ZM13.7142 4.27885L14.2126 4.23908V4.23908L13.7142 4.27885ZM10.5922 2.34602L10.9166 1.96546L10.9166 1.96546L10.5922 2.34602ZM11.5185 2.7297L11.4788 3.22812L11.5185 2.7297ZM10.0558 1.88884L9.73146 2.2694V2.2694L10.0558 1.88884ZM7.94423 1.88884L7.61993 1.50828V1.50828L7.94423 1.88884ZM9.73146 2.2694L10.2679 2.72658L10.9166 1.96546L10.3801 1.50828L9.73146 2.2694ZM11.4788 3.22812L12.1814 3.28419L12.2609 2.28735L11.5583 2.23128L11.4788 3.22812ZM13.2158 4.31862L13.2719 5.02124L14.2687 4.9417L14.2126 4.23908L13.2158 4.31862ZM13.7734 6.23207L14.2306 6.76854L14.9917 6.11993L14.5345 5.58345L13.7734 6.23207ZM14.2306 8.23146L13.7734 8.76793L14.5345 9.41655L14.9917 8.88008L14.2306 8.23146ZM13.2719 9.97876L13.2158 10.6814L14.2126 10.7609L14.2687 10.0583L13.2719 9.97876ZM12.1814 11.7158L11.4788 11.7719L11.5583 12.7687L12.2609 12.7126L12.1814 11.7158ZM10.2679 12.2734L9.73146 12.7306L10.3801 13.4917L10.9166 13.0345L10.2679 12.2734ZM8.26854 12.7306L7.73207 12.2734L7.08345 13.0345L7.61992 13.4917L8.26854 12.7306ZM6.52124 11.7719L5.81862 11.7158L5.73908 12.7126L6.4417 12.7687L6.52124 11.7719ZM4.78419 10.6814L4.72812 9.97875L3.73128 10.0583L3.78735 10.7609L4.78419 10.6814ZM4.22658 8.76793L3.7694 8.23146L3.00828 8.88008L3.46546 9.41655L4.22658 8.76793ZM3.7694 6.76854L4.22658 6.23207L3.46546 5.58345L3.00828 6.11992L3.7694 6.76854ZM4.72812 5.02125L4.78419 4.31862L3.78735 4.23908L3.73128 4.9417L4.72812 5.02125ZM5.81862 3.28419L6.52125 3.22812L6.4417 2.23128L5.73908 2.28735L5.81862 3.28419ZM7.73207 2.72658L8.26854 2.2694L7.61993 1.50828L7.08345 1.96546L7.73207 2.72658ZM6.52125 3.22812C6.96757 3.1925 7.39128 3.01699 7.73207 2.72658L7.08345 1.96546C6.90283 2.11939 6.67826 2.21241 6.4417 2.23128L6.52125 3.22812ZM4.78419 4.31862C4.82824 3.76659 5.26659 3.32824 5.81862 3.28419L5.73908 2.28735C4.69754 2.37047 3.87047 3.19754 3.78735 4.23908L4.78419 4.31862ZM4.22658 6.23207C4.51699 5.89128 4.6925 5.46757 4.72812 5.02125L3.73128 4.9417C3.71241 5.17826 3.61939 5.40283 3.46546 5.58345L4.22658 6.23207ZM3.7694 8.23146C3.4102 7.80997 3.4102 7.19004 3.7694 6.76854L3.00828 6.11992C2.33057 6.91518 2.33057 8.08482 3.00828 8.88008L3.7694 8.23146ZM4.72812 9.97875C4.6925 9.53243 4.51699 9.10872 4.22658 8.76793L3.46546 9.41655C3.61939 9.59717 3.71241 9.82175 3.73128 10.0583L4.72812 9.97875ZM5.81862 11.7158C5.26659 11.6718 4.82824 11.2334 4.78419 10.6814L3.78735 10.7609C3.87047 11.8025 4.69754 12.6295 5.73908 12.7126L5.81862 11.7158ZM7.73207 12.2734C7.39128 11.983 6.96757 11.8075 6.52124 11.7719L6.4417 12.7687C6.67826 12.7876 6.90283 12.8806 7.08345 13.0345L7.73207 12.2734ZM9.73146 12.7306C9.30997 13.0898 8.69004 13.0898 8.26854 12.7306L7.61992 13.4917C8.41517 14.1694 9.58483 14.1694 10.3801 13.4917L9.73146 12.7306ZM11.4788 11.7719C11.0324 11.8075 10.6087 11.983 10.2679 12.2734L10.9166 13.0345C11.0972 12.8806 11.3217 12.7876 11.5583 12.7687L11.4788 11.7719ZM13.2158 10.6814C13.1718 11.2334 12.7334 11.6718 12.1814 11.7158L12.2609 12.7126C13.3025 12.6295 14.1295 11.8025 14.2126 10.7609L13.2158 10.6814ZM13.7734 8.76793C13.483 9.10872 13.3075 9.53243 13.2719 9.97876L14.2687 10.0583C14.2876 9.82175 14.3806 9.59717 14.5345 9.41655L13.7734 8.76793ZM14.2306 6.76854C14.5898 7.19004 14.5898 7.80997 14.2306 8.23146L14.9917 8.88008C15.6694 8.08483 15.6694 6.91518 14.9917 6.11993L14.2306 6.76854ZM13.2719 5.02125C13.3075 5.46757 13.483 5.89128 13.7734 6.23207L14.5345 5.58345C14.3806 5.40283 14.2876 5.17826 14.2687 4.9417L13.2719 5.02125ZM12.1814 3.28419C12.7334 3.32824 13.1718 3.76659 13.2158 4.31862L14.2126 4.23908C14.1295 3.19754 13.3025 2.37047 12.2609 2.28735L12.1814 3.28419ZM10.2679 2.72658C10.6087 3.01699 11.0324 3.1925 11.4788 3.22812L11.5583 2.23128C11.3217 2.21241 11.0972 2.11939 10.9166 1.96546L10.2679 2.72658ZM10.3801 1.50828C9.58483 0.830573 8.41518 0.830572 7.61993 1.50828L8.26854 2.2694C8.69004 1.9102 9.30997 1.9102 9.73146 2.2694L10.3801 1.50828Z" fill="#222222"/>
</svg>
