<svg width="40" height="40" viewBox="0 0 40 40" fill="none" xmlns="http://www.w3.org/2000/svg">
<rect width="40" height="40" rx="5" fill="url(#paint0_linear_22_7721)"/>
<path d="M20.0052 28.3307C15.4027 28.3307 11.6719 24.5999 11.6719 19.9974C11.6719 15.3949 15.4027 11.6641 20.0052 11.6641C24.6077 11.6641 28.3385 15.3949 28.3385 19.9974C28.3385 24.5999 24.6077 28.3307 20.0052 28.3307ZM20.0052 26.6641C21.7733 26.6641 23.469 25.9617 24.7193 24.7114C25.9695 23.4612 26.6719 21.7655 26.6719 19.9974C26.6719 18.2293 25.9695 16.5336 24.7193 15.2834C23.469 14.0331 21.7733 13.3307 20.0052 13.3307C18.2371 13.3307 16.5414 14.0331 15.2912 15.2834C14.0409 16.5336 13.3385 18.2293 13.3385 19.9974C13.3385 21.7655 14.0409 23.4612 15.2912 24.7114C16.5414 25.9617 18.2371 26.6641 20.0052 26.6641ZM17.5052 17.4974H22.5052V22.4974H17.5052V17.4974Z" fill="white"/>
<defs>
<linearGradient id="paint0_linear_22_7721" x1="1.21495" y1="6.80001" x2="42.2737" y2="8.67792" gradientUnits="userSpaceOnUse">
<stop stop-color="#13E880"/>
<stop offset="1" stop-color="#80E8FF"/>
</linearGradient>
</defs>
</svg>
