<svg width="18" height="18" viewBox="0 0 18 18" fill="none" xmlns="http://www.w3.org/2000/svg">
<path fill-rule="evenodd" clip-rule="evenodd" d="M2.96967 6.06837C3.26256 5.77547 3.73744 5.77547 4.03033 6.06837L9.07143 11.1095L14.1125 6.06837C14.4054 5.77547 14.8803 5.77547 15.1732 6.06837C15.4661 6.36126 15.4661 6.83613 15.1732 7.12903L9.90803 12.3942C9.80145 12.5049 9.67394 12.5933 9.53284 12.6544C9.38718 12.7175 9.23015 12.75 9.07143 12.75C8.91271 12.75 8.75567 12.7175 8.61002 12.6544C8.46892 12.5933 8.3414 12.5049 8.23483 12.3942L2.96967 7.12903C2.67678 6.83613 2.67678 6.36126 2.96967 6.06837Z" fill="#222222"/>
</svg>
