<svg width="24" height="24" viewBox="0 0 24 24" fill="none" xmlns="http://www.w3.org/2000/svg">
<path d="M17.4976 16.2119L16.7536 16.8801C16.9433 17.0913 17.2138 17.2119 17.4976 17.2119C17.7814 17.2119 18.0519 17.0913 18.2416 16.8801L17.4976 16.2119ZM14.4425 18.6868L15.2173 18.0546L14.4425 18.6868ZM20.5527 18.6868L19.7779 18.0546L20.5527 18.6868ZM16.4854 20.6353L17.1425 19.8816L16.4854 20.6353ZM17.2147 21.1503L17.4976 20.1911L17.2147 21.1503ZM18.5098 20.6353L17.8527 19.8816L18.5098 20.6353ZM17.7805 21.1503L18.0634 22.1094L17.7805 21.1503ZM2 21C2 21.5523 2.44772 22 3 22C3.55228 22 4 21.5523 4 21H2ZM10.8584 15.0608C11.4051 15.139 11.9117 14.7592 11.9899 14.2125C12.0681 13.6658 11.6883 13.1592 11.1416 13.081L10.8584 15.0608ZM18.2416 15.5437C17.2426 14.4314 15.4767 14.0595 14.123 15.161L15.3853 16.7123C15.7851 16.387 16.3531 16.4342 16.7536 16.8801L18.2416 15.5437ZM14.123 15.161C12.8295 16.2135 12.6199 18.0349 13.6677 19.319L15.2173 18.0546C14.888 17.6511 14.9252 17.0867 15.3853 16.7123L14.123 15.161ZM21.3275 19.319C22.3659 18.0465 22.1948 16.2078 20.8617 15.1526L19.6204 16.7208C20.071 17.0774 20.1166 17.6395 19.7779 18.0546L21.3275 19.319ZM20.8617 15.1526C19.5034 14.0774 17.7599 14.4233 16.7536 15.5437L18.2416 16.8801C18.6348 16.4423 19.195 16.384 19.6204 16.7208L20.8617 15.1526ZM13.6677 19.319C14.1213 19.8749 15.1173 20.7692 15.8282 21.3891L17.1425 19.8816C16.3923 19.2274 15.5411 18.4515 15.2173 18.0546L13.6677 19.319ZM19.167 21.3891C19.8779 20.7692 20.874 19.8749 21.3275 19.319L19.7779 18.0546C19.4541 18.4515 18.6029 19.2274 17.8527 19.8816L19.167 21.3891ZM15.8282 21.3891C16.104 21.6295 16.4631 21.9712 16.9318 22.1094L17.4976 20.1911C17.5438 20.2048 17.5539 20.2216 17.4951 20.1782C17.4226 20.1247 17.3278 20.043 17.1425 19.8816L15.8282 21.3891ZM17.8527 19.8816C17.6674 20.043 17.5726 20.1247 17.5001 20.1782C17.4413 20.2216 17.4514 20.2048 17.4976 20.1911L18.0634 22.1094C18.5321 21.9712 18.8912 21.6295 19.167 21.3891L17.8527 19.8816ZM16.9318 22.1094C17.2951 22.2166 17.7001 22.2166 18.0634 22.1094L17.4976 20.1911H17.4976L16.9318 22.1094ZM13 7C13 8.65685 11.6569 10 10 10V12C12.7614 12 15 9.76142 15 7H13ZM10 10C8.34315 10 7 8.65685 7 7H5C5 9.76142 7.23858 12 10 12V10ZM7 7C7 5.34315 8.34315 4 10 4V2C7.23858 2 5 4.23858 5 7H7ZM10 4C11.6569 4 13 5.34315 13 7H15C15 4.23858 12.7614 2 10 2V4ZM4 21C4 17.6863 6.68629 15 10 15V13C5.58172 13 2 16.5817 2 21H4ZM10 15C10.292 15 10.5786 15.0208 10.8584 15.0608L11.1416 13.081C10.7682 13.0276 10.387 13 10 13V15Z" fill="#24CE7B"/>
</svg>
