<svg width="30" height="30" viewBox="0 0 30 30" fill="none" xmlns="http://www.w3.org/2000/svg">
<rect opacity="0.12" width="30" height="30" rx="15" fill="#FF6162"/>
<path d="M21.2552 20.8594H17.9219" stroke="#FF6162" stroke-width="1.5" stroke-linecap="round" stroke-linejoin="round"/>
<path d="M15.1302 14.0773C15.0469 14.0689 14.9469 14.0689 14.8552 14.0773C12.8719 14.0105 11.2969 12.3825 11.2969 10.3787C11.2969 8.33329 12.9469 6.67188 14.9969 6.67188C17.0385 6.67188 18.6969 8.33329 18.6969 10.3787C18.6885 12.3825 17.1135 14.0105 15.1302 14.0773Z" stroke="#FF6162" stroke-width="1.5" stroke-linecap="round" stroke-linejoin="round"/>
<path d="M14.9922 23.205C13.4755 23.205 11.9672 22.821 10.8172 22.0529C8.80052 20.7004 8.80052 18.4963 10.8172 17.1521C13.1089 15.616 16.8672 15.616 19.1589 17.1521" stroke="#FF6162" stroke-width="1.5" stroke-linecap="round" stroke-linejoin="round"/>
</svg>
