<svg width="17" height="17" viewBox="0 0 17 17" fill="none" xmlns="http://www.w3.org/2000/svg">
<path d="M8.29066 2.07513C8.48337 1.65735 8.57972 1.44845 8.71276 1.38329C8.82838 1.32666 8.96369 1.32666 9.07931 1.38329C9.21235 1.44845 9.3087 1.65735 9.50141 2.07513L11.0909 5.5211C11.1479 5.64473 11.1764 5.70655 11.2197 5.7541C11.258 5.79618 11.3045 5.82997 11.3563 5.85339C11.4149 5.87985 11.4825 5.88786 11.6178 5.90389L15.3862 6.35071C15.8431 6.40488 16.0716 6.43196 16.1746 6.53835C16.2642 6.63082 16.306 6.7595 16.2879 6.88697C16.2671 7.03362 16.0982 7.18981 15.7604 7.50219L12.9742 10.0787C12.8743 10.1712 12.8243 10.2174 12.7924 10.2732C12.7643 10.3227 12.7465 10.3773 12.7402 10.4339C12.7332 10.4978 12.7465 10.5646 12.773 10.6981L13.5126 14.4202C13.6022 14.8715 13.6471 15.0971 13.5777 15.228C13.5175 15.3418 13.408 15.4213 13.2812 15.4435C13.1353 15.469 12.9345 15.3566 12.5331 15.1319L9.22166 13.2783C9.10286 13.2118 9.04345 13.1785 8.9805 13.1655C8.92478 13.154 8.86729 13.154 8.81157 13.1655C8.74862 13.1785 8.68921 13.2118 8.57041 13.2783L5.25901 15.1319C4.85754 15.3566 4.65681 15.469 4.51088 15.4435C4.38405 15.4213 4.27458 15.3418 4.21433 15.228C4.145 15.0971 4.18984 14.8715 4.2795 14.4202L5.01908 10.6981C5.04562 10.5646 5.05888 10.4978 5.05182 10.4339C5.04558 10.3773 5.02781 10.3227 4.99962 10.2732C4.96777 10.2174 4.91779 10.1712 4.81783 10.0787L2.0317 7.50219C1.69391 7.18981 1.52502 7.03362 1.50416 6.88697C1.48603 6.7595 1.52784 6.63082 1.61743 6.53835C1.72051 6.43196 1.94895 6.40488 2.40584 6.35071L6.17432 5.90389C6.30952 5.88786 6.37713 5.87985 6.43572 5.85339C6.48758 5.82997 6.53408 5.79618 6.57238 5.7541C6.61565 5.70655 6.64417 5.64473 6.70119 5.5211L8.29066 2.07513Z" fill="#24CE7B"/>
<path fill-rule="evenodd" clip-rule="evenodd" d="M8.43785 0.822004C8.7269 0.680426 9.06518 0.680426 9.35423 0.822004C9.5988 0.941791 9.73431 1.15427 9.80967 1.2852C9.88878 1.42265 9.97122 1.60143 10.0585 1.79064L11.6584 5.25932C11.6619 5.26681 11.6651 5.27385 11.6682 5.28049C11.6754 5.28135 11.6831 5.28227 11.6913 5.28324L15.4847 5.733C15.6916 5.75751 15.8871 5.78067 16.0423 5.81344C16.1901 5.84465 16.434 5.90786 16.6235 6.10344C16.8475 6.3346 16.952 6.65632 16.9067 6.97498C16.8683 7.24459 16.7081 7.43913 16.6069 7.55126C16.5006 7.66898 16.3561 7.80264 16.2031 7.94409L13.3986 10.5376C13.3925 10.5432 13.3868 10.5485 13.3815 10.5534C13.3829 10.5606 13.3844 10.5682 13.386 10.5763L14.1305 14.3229C14.1711 14.5273 14.2095 14.7204 14.2263 14.8781C14.2423 15.0283 14.2575 15.2799 14.1301 15.5205C13.9794 15.805 13.7058 16.0038 13.3887 16.0592C13.1204 16.106 12.8859 16.0138 12.748 15.9521C12.6032 15.8874 12.4314 15.7913 12.2497 15.6895L8.91639 13.8237C8.90919 13.8196 8.90242 13.8159 8.89604 13.8123C8.88966 13.8159 8.88289 13.8196 8.87569 13.8237L5.54248 15.6895C5.36068 15.7913 5.18889 15.8874 5.04409 15.9521C4.90617 16.0138 4.67165 16.106 4.40338 16.0592C4.08631 16.0038 3.81264 15.805 3.66201 15.5205C3.53456 15.2799 3.54982 15.0283 3.56581 14.8781C3.5826 14.7204 3.62099 14.5273 3.66162 14.3229L4.40607 10.5763C4.40768 10.5682 4.40919 10.5606 4.41061 10.5534C4.40524 10.5485 4.39956 10.5432 4.39349 10.5376L1.58899 7.94407C1.436 7.80262 1.29145 7.66897 1.18517 7.55126C1.08395 7.43913 0.923738 7.24459 0.885389 6.97498C0.840064 6.65632 0.944596 6.3346 1.16857 6.10344C1.35807 5.90786 1.60202 5.84465 1.74983 5.81344C1.905 5.78067 2.10051 5.75751 2.30742 5.733L6.10073 5.28324C6.10893 5.28227 6.11663 5.28136 6.12389 5.28049C6.12696 5.27385 6.13021 5.26681 6.13367 5.25932L7.7336 1.79065C7.82086 1.60143 7.9033 1.42265 7.98241 1.2852C8.05777 1.15427 8.19328 0.941791 8.43785 0.822004ZM8.89604 2.255C8.88412 2.28075 8.87153 2.30802 8.8582 2.33691L7.26874 5.78287C7.26504 5.79089 7.26108 5.79961 7.25684 5.80896C7.21527 5.90056 7.14674 6.05157 7.03462 6.17477C6.93888 6.27997 6.82261 6.36444 6.69297 6.42299C6.54116 6.49155 6.37636 6.51006 6.2764 6.52129C6.2662 6.52244 6.25668 6.52351 6.24791 6.52455L2.47943 6.97136C2.44784 6.97511 2.41802 6.97865 2.38984 6.98203C2.41065 7.00133 2.43269 7.02173 2.45605 7.04333L5.24218 9.61986C5.24866 9.62586 5.25574 9.63232 5.26332 9.63924C5.33759 9.70708 5.46003 9.81892 5.54255 9.96362C5.61301 10.0872 5.65743 10.2239 5.67305 10.3653C5.69134 10.5308 5.65802 10.6933 5.63781 10.7918C5.63575 10.8019 5.63382 10.8113 5.6321 10.8199L4.89252 14.542C4.88632 14.5732 4.88048 14.6027 4.87499 14.6305C4.89977 14.6167 4.92598 14.602 4.95374 14.5865L8.26514 12.7329C8.27284 12.7286 8.28117 12.7239 8.2901 12.7188C8.37757 12.6691 8.52177 12.5872 8.68489 12.5535C8.82418 12.5247 8.9679 12.5247 9.10719 12.5535C9.27031 12.5873 9.41452 12.6691 9.50199 12.7188C9.51091 12.7239 9.51924 12.7286 9.52695 12.7329L12.8383 14.5865C12.8661 14.602 12.8923 14.6167 12.9171 14.6305C12.9116 14.6027 12.9058 14.5732 12.8996 14.542L12.16 10.8199C12.1583 10.8113 12.1563 10.8019 12.1543 10.7918C12.1341 10.6933 12.1007 10.5308 12.119 10.3653C12.1347 10.2239 12.1791 10.0872 12.2495 9.96362C12.3321 9.81892 12.4545 9.70708 12.5288 9.63924C12.5363 9.63232 12.5434 9.62585 12.5499 9.61986L15.336 7.04333C15.3594 7.02173 15.3814 7.00133 15.4022 6.98203C15.3741 6.97865 15.3442 6.97511 15.3126 6.97136L11.5442 6.52455C11.5354 6.52351 11.5259 6.52244 11.5157 6.52129C11.4157 6.51006 11.2509 6.49155 11.0991 6.42299C10.9695 6.36445 10.8532 6.27997 10.7575 6.17477C10.6453 6.05157 10.5768 5.90056 10.5352 5.80896C10.531 5.79961 10.527 5.79089 10.5233 5.78287L8.93388 2.33691C8.92055 2.30802 8.90796 2.28076 8.89604 2.255Z" fill="#24CE7B"/>
</svg>
