<svg width="42" height="42" viewBox="0 0 42 42" fill="none" xmlns="http://www.w3.org/2000/svg">
<path d="M15.75 38.5H12.25C5.25 38.5 3.5 36.75 3.5 29.75V12.25C3.5 5.25 5.25 3.5 12.25 3.5H14.875C17.5 3.5 18.0775 4.27002 19.075 5.60002L21.7 9.10002C22.365 9.97502 22.75 10.5 24.5 10.5H29.75C36.75 10.5 38.5 12.25 38.5 19.25V22.75" stroke="#666666" stroke-width="1.5" stroke-miterlimit="10" stroke-linecap="round" stroke-linejoin="round"/>
<path d="M24.0766 32.0617C19.9641 32.3592 19.9641 38.3091 24.0766 38.6066H33.8066C34.9791 38.6066 36.1341 38.1691 36.9916 37.3816C39.8791 34.8616 38.339 29.8216 34.5415 29.3491C33.1765 21.1416 21.3116 24.2566 24.1116 32.0791" stroke="#666666" stroke-width="1.5" stroke-miterlimit="10" stroke-linecap="round" stroke-linejoin="round"/>
</svg>
