<svg width="24" height="24" viewBox="0 0 24 24" fill="none" xmlns="http://www.w3.org/2000/svg">
<path fill-rule="evenodd" clip-rule="evenodd" d="M13 3.75C12.3096 3.75 11.75 4.30964 11.75 5V9C11.75 9.69036 12.3096 10.25 13 10.25H17C17.6904 10.25 18.25 9.69036 18.25 9V5C18.25 4.30964 17.6904 3.75 17 3.75L13 3.75ZM19.75 6.25V5C19.75 3.48122 18.5188 2.25 17 2.25L13 2.25C11.4812 2.25 10.25 3.48122 10.25 5V9C10.25 10.5188 11.4812 11.75 13 11.75H17C18.5188 11.75 19.75 10.5188 19.75 9V7.75L22 7.75C22.4142 7.75 22.75 7.41421 22.75 7C22.75 6.58579 22.4142 6.25 22 6.25L19.75 6.25ZM2 6.25L8 6.25C8.41421 6.25 8.75 6.58579 8.75 7C8.75 7.41421 8.41421 7.75 8 7.75L2 7.75C1.58579 7.75 1.25 7.41421 1.25 7C1.25 6.58579 1.58579 6.25 2 6.25ZM7 15.75C6.30964 15.75 5.75 16.3096 5.75 17V18.9993C5.75 18.9995 5.75 18.999 5.75 18.9993C5.75 18.9995 5.75 19.0005 5.75 19.0007V21C5.75 21.6904 6.30964 22.25 7 22.25H11C11.6904 22.25 12.25 21.6904 12.25 21V17C12.25 16.3096 11.6904 15.75 11 15.75H7ZM4.25 19.75V21C4.25 22.5188 5.48122 23.75 7 23.75H11C12.5188 23.75 13.75 22.5188 13.75 21V17C13.75 15.4812 12.5188 14.25 11 14.25H7C5.48122 14.25 4.25 15.4812 4.25 17V18.25H2C1.58579 18.25 1.25 18.5858 1.25 19C1.25 19.4142 1.58579 19.75 2 19.75H4.25ZM15.25 19C15.25 18.5858 15.5858 18.25 16 18.25H22C22.4142 18.25 22.75 18.5858 22.75 19C22.75 19.4142 22.4142 19.75 22 19.75H16C15.5858 19.75 15.25 19.4142 15.25 19Z" fill="#28303F"/>
</svg>
