<svg width="82" height="82" viewBox="0 0 82 82" fill="none" xmlns="http://www.w3.org/2000/svg">
<path fill-rule="evenodd" clip-rule="evenodd" d="M30.2888 11.4471C30.5508 8.82717 32.7554 6.83203 35.3884 6.83203H46.6123C49.2452 6.83203 51.4498 8.82717 51.7118 11.4471L52.0732 15.0609C52.1341 15.6697 52.5178 16.1956 53.0666 16.4661C54.1566 17.0032 55.2056 17.6108 56.2076 18.283C56.7164 18.6242 57.3646 18.6941 57.923 18.4421L61.2369 16.9465C63.6368 15.8634 66.467 16.7751 67.7835 19.0553L73.3954 28.7755C74.7119 31.0557 74.0863 33.9625 71.9484 35.4994L68.9945 37.6228C68.4981 37.9797 68.2344 38.5743 68.2744 39.1844C68.3137 39.7841 68.3336 40.3891 68.3336 40.9987C68.3336 41.6084 68.3137 42.2134 68.2744 42.8131C68.2344 43.4231 68.4981 44.0178 68.9945 44.3747L71.9484 46.4981C74.0863 48.0349 74.7119 50.9418 73.3954 53.222L67.7835 62.9421C66.467 65.2224 63.6368 66.134 61.2369 65.051L57.9229 63.5554C57.3645 63.3034 56.7163 63.3732 56.2076 63.7145C55.2055 64.3866 54.1565 64.9942 53.0666 65.5313C52.5178 65.8018 52.1341 66.3277 52.0732 66.9365L51.7118 70.5503C51.4498 73.1702 49.2452 75.1654 46.6123 75.1654H35.3884C32.7554 75.1654 30.5508 73.1702 30.2888 70.5503L29.9274 66.9365C29.8666 66.3277 29.4829 65.8018 28.934 65.5313C27.8441 64.9942 26.7951 64.3866 25.793 63.7144C25.2842 63.3732 24.636 63.3033 24.0776 63.5553L20.7635 65.051C18.3636 66.134 15.5335 65.2224 14.217 62.9421L8.60505 53.222C7.28856 50.9418 7.9141 48.035 10.052 46.4981L13.0061 44.3745C13.5025 44.0177 13.7662 43.423 13.7262 42.813C13.6869 42.2133 13.667 41.6083 13.667 40.9987C13.667 40.3891 13.6869 39.7841 13.7262 39.1845C13.7662 38.5744 13.5025 37.9798 13.0061 37.6229L10.052 35.4994C7.9141 33.9625 7.28856 31.0557 8.60505 28.7755L14.217 19.0553C15.5335 16.7751 18.3636 15.8634 20.7635 16.9465L24.0776 18.4421C24.636 18.6941 25.2842 18.6243 25.7929 18.283C26.795 17.6108 27.844 17.0032 28.9341 16.466C29.4829 16.1956 29.8666 15.6697 29.9274 15.0609L30.2888 11.4471ZM41.0003 54.6654C48.5482 54.6654 54.667 48.5466 54.667 40.9987C54.667 33.4508 48.5482 27.332 41.0003 27.332C33.4524 27.332 27.3337 33.4508 27.3337 40.9987C27.3337 48.5466 33.4524 54.6654 41.0003 54.6654Z" fill="url(#paint0_linear_443_8358)"/>
<defs>
<linearGradient id="paint0_linear_443_8358" x1="9.92764" y1="18.4487" x2="77.8523" y2="21.4568" gradientUnits="userSpaceOnUse">
<stop stop-color="#13E880"/>
<stop offset="1" stop-color="#80E8FF"/>
</linearGradient>
</defs>
</svg>
