<svg width="30" height="30" viewBox="0 0 30 30" fill="none" xmlns="http://www.w3.org/2000/svg">
<path fill-rule="evenodd" clip-rule="evenodd" d="M13.2734 23.6875C13.2734 23.2733 13.6092 22.9375 14.0234 22.9375H17.0328C17.4471 22.9375 17.7828 23.2733 17.7828 23.6875C17.7828 24.1017 17.4471 24.4375 17.0328 24.4375H14.0234C13.6092 24.4375 13.2734 24.1017 13.2734 23.6875Z" fill="#222222"/>
<path fill-rule="evenodd" clip-rule="evenodd" d="M10.7293 7.4626C11.9981 6.18179 13.7206 5.46094 15.518 5.46094C17.3155 5.46094 19.038 6.18179 20.3068 7.4626C21.5754 8.74318 22.2869 10.4785 22.2869 12.2865V17.6027C22.2869 18.0103 22.4473 18.3998 22.7307 18.6859C23.0139 18.9717 23.3965 19.131 23.7939 19.131C24.2081 19.131 24.5439 19.4668 24.5439 19.881C24.5439 20.2952 24.2081 20.631 23.7939 20.631H7.24219C6.82797 20.631 6.49219 20.2952 6.49219 19.881C6.49219 19.4668 6.82797 19.131 7.24219 19.131C7.6396 19.131 8.02217 18.9717 8.30535 18.6859C8.58877 18.3998 8.74924 18.0103 8.74924 17.6027V12.2865C8.74924 10.4785 9.46069 8.74318 10.7293 7.4626ZM9.83822 19.131H21.1979C20.9308 18.6708 20.7869 18.1439 20.7869 17.6027V12.2865C20.7869 10.8718 20.2301 9.51648 19.2412 8.51827C18.2525 7.5203 16.9131 6.96094 15.518 6.96094C14.123 6.96094 12.7836 7.5203 11.7949 8.51827C10.806 9.51648 10.2492 10.8718 10.2492 12.2865V17.6027C10.2492 18.1439 10.1053 18.6708 9.83822 19.131Z" fill="#222222"/>
</svg>
