<svg width="26" height="26" viewBox="0 0 26 26" fill="none" xmlns="http://www.w3.org/2000/svg">
<path d="M2.6218 13.77C2.47426 13.5364 2.4005 13.4196 2.3592 13.2394C2.32818 13.1041 2.32818 12.8907 2.3592 12.7554C2.4005 12.5752 2.47426 12.4584 2.6218 12.2248C3.84099 10.2943 7.47002 5.41406 13.0004 5.41406C18.5309 5.41406 22.1599 10.2943 23.3791 12.2248C23.5266 12.4584 23.6004 12.5752 23.6417 12.7554C23.6727 12.8907 23.6727 13.1041 23.6417 13.2394C23.6004 13.4196 23.5266 13.5364 23.3791 13.77C22.1599 15.7005 18.5309 20.5807 13.0004 20.5807C7.47002 20.5807 3.84099 15.7005 2.6218 13.77Z" stroke="#666666" stroke-width="1.2" stroke-linecap="round" stroke-linejoin="round"/>
<path d="M13.0004 16.2474C14.7954 16.2474 16.2504 14.7923 16.2504 12.9974C16.2504 11.2025 14.7954 9.7474 13.0004 9.7474C11.2055 9.7474 9.75044 11.2025 9.75044 12.9974C9.75044 14.7923 11.2055 16.2474 13.0004 16.2474Z" stroke="#666666" stroke-width="1.2" stroke-linecap="round" stroke-linejoin="round"/>
</svg>
