<svg width="24" height="24" viewBox="0 0 24 24" fill="none" xmlns="http://www.w3.org/2000/svg">
<path d="M4.5 7C4.5 6.72386 4.27614 6.5 4 6.5C3.72386 6.5 3.5 6.72386 3.5 7H4.5ZM4 17.353L4.5 17.3536V17.353H4ZM4.4804 18.5168L4.83438 18.1637L4.4804 18.5168ZM5.643 19L5.64239 19.5H5.643V19ZM18.357 19V19.5H18.3576L18.357 19ZM19.5196 18.5168L19.1656 18.1637V18.1637L19.5196 18.5168ZM20 17.353H19.5V17.3536L20 17.353ZM20 8.647L19.5 8.64639V8.647H20ZM19.5196 7.48322L19.1656 7.83635V7.83635L19.5196 7.48322ZM18.357 7L18.3576 6.5H18.357V7ZM12.536 6.5C12.2599 6.5 12.036 6.72386 12.036 7C12.036 7.27614 12.2599 7.5 12.536 7.5V6.5ZM3.5 7C3.5 7.27614 3.72386 7.5 4 7.5C4.27614 7.5 4.5 7.27614 4.5 7H3.5ZM4 5.647H4.5L4.5 5.64639L4 5.647ZM5.643 4V3.5L5.64239 3.5L5.643 4ZM10.893 4L10.8936 3.5H10.893V4ZM12.536 5.647L12.036 5.64639V5.647H12.536ZM12.036 7C12.036 7.27614 12.2599 7.5 12.536 7.5C12.8121 7.5 13.036 7.27614 13.036 7H12.036ZM4 6.5C3.72386 6.5 3.5 6.72386 3.5 7C3.5 7.27614 3.72386 7.5 4 7.5V6.5ZM12.536 7.5C12.8121 7.5 13.036 7.27614 13.036 7C13.036 6.72386 12.8121 6.5 12.536 6.5V7.5ZM3.5 7V17.353H4.5V7H3.5ZM3.5 17.3524C3.49931 17.9213 3.72464 18.4671 4.12641 18.8699L4.83438 18.1637C4.61991 17.9487 4.49963 17.6573 4.5 17.3536L3.5 17.3524ZM4.12641 18.8699C4.52819 19.2727 5.0735 19.4993 5.64239 19.5L5.64361 18.5C5.33994 18.4996 5.04885 18.3786 4.83438 18.1637L4.12641 18.8699ZM5.643 19.5H18.357V18.5H5.643V19.5ZM18.3576 19.5C18.9265 19.4993 19.4718 19.2727 19.8736 18.8699L19.1656 18.1637C18.9512 18.3786 18.6601 18.4996 18.3564 18.5L18.3576 19.5ZM19.8736 18.8699C20.2754 18.4671 20.5007 17.9213 20.5 17.3524L19.5 17.3536C19.5004 17.6573 19.3801 17.9487 19.1656 18.1637L19.8736 18.8699ZM20.5 17.353V8.647H19.5V17.353H20.5ZM20.5 8.64761C20.5007 8.07872 20.2754 7.53285 19.8736 7.1301L19.1656 7.83635C19.3801 8.05134 19.5004 8.34272 19.5 8.64639L20.5 8.64761ZM19.8736 7.1301C19.4718 6.72735 18.9265 6.50069 18.3576 6.5L18.3564 7.5C18.6601 7.50037 18.9512 7.62136 19.1656 7.83635L19.8736 7.1301ZM18.357 6.5H12.536V7.5H18.357V6.5ZM4.5 7V5.647H3.5V7H4.5ZM4.5 5.64639C4.49963 5.34272 4.61991 5.05134 4.83438 4.83635L4.12641 4.1301C3.72464 4.53285 3.49931 5.07872 3.5 5.64761L4.5 5.64639ZM4.83438 4.83635C5.04885 4.62136 5.33994 4.50037 5.64361 4.5L5.64239 3.5C5.0735 3.50069 4.52819 3.72735 4.12641 4.1301L4.83438 4.83635ZM5.643 4.5H10.893V3.5H5.643V4.5ZM10.8924 4.5C11.1961 4.50037 11.4872 4.62136 11.7016 4.83635L12.4096 4.1301C12.0078 3.72735 11.4625 3.50069 10.8936 3.5L10.8924 4.5ZM11.7016 4.83635C11.9161 5.05134 12.0364 5.34272 12.036 5.64639L13.036 5.64761C13.0367 5.07872 12.8114 4.53285 12.4096 4.1301L11.7016 4.83635ZM12.036 5.647V7H13.036V5.647H12.036ZM4 7.5H12.536V6.5H4V7.5Z" fill="#24CE7B"/>
<path d="M9.64645 11.6464C9.45118 11.8417 9.45118 12.1583 9.64645 12.3536C9.84171 12.5488 10.1583 12.5488 10.3536 12.3536L9.64645 11.6464ZM12.3536 10.3536C12.5488 10.1583 12.5488 9.84171 12.3536 9.64645C12.1583 9.45118 11.8417 9.45118 11.6464 9.64645L12.3536 10.3536ZM12.3536 9.64645C12.1583 9.45118 11.8417 9.45118 11.6464 9.64645C11.4512 9.84171 11.4512 10.1583 11.6464 10.3536L12.3536 9.64645ZM13.6464 12.3536C13.8417 12.5488 14.1583 12.5488 14.3536 12.3536C14.5488 12.1583 14.5488 11.8417 14.3536 11.6464L13.6464 12.3536ZM12.5 10C12.5 9.72386 12.2761 9.5 12 9.5C11.7239 9.5 11.5 9.72386 11.5 10H12.5ZM11.5 16C11.5 16.2761 11.7239 16.5 12 16.5C12.2761 16.5 12.5 16.2761 12.5 16H11.5ZM10.3536 12.3536L12.3536 10.3536L11.6464 9.64645L9.64645 11.6464L10.3536 12.3536ZM11.6464 10.3536L13.6464 12.3536L14.3536 11.6464L12.3536 9.64645L11.6464 10.3536ZM11.5 10V16H12.5V10H11.5Z" fill="#24CE7B"/>
</svg>
