<svg width="30" height="30" viewBox="0 0 30 30" fill="none" xmlns="http://www.w3.org/2000/svg">
<path d="M23 15.2V16.9C23 20.05 21.2 21.4 18.5 21.4H9.5C6.8 21.4 5 20.05 5 16.9V11.5C5 8.35 6.8 7 9.5 7H12.2C12.07 7.38 12 7.8 12 8.25V12.15C12 13.12 12.32 13.94 12.89 14.51C13.46 15.08 14.28 15.4 15.25 15.4V16.79C15.25 17.3 15.83 17.61 16.26 17.33L19.15 15.4H21.75C22.2 15.4 22.62 15.33 23 15.2Z" stroke="#444444" stroke-width="1.5" stroke-miterlimit="10" stroke-linecap="round" stroke-linejoin="round"/>
<path d="M25 8.25V12.15C25 13.64 24.24 14.76 23 15.2C22.62 15.33 22.2 15.4 21.75 15.4H19.15L16.26 17.33C15.83 17.61 15.25 17.3 15.25 16.79V15.4C14.28 15.4 13.46 15.08 12.89 14.51C12.32 13.94 12 13.12 12 12.15V8.25C12 7.8 12.07 7.38 12.2 7C12.64 5.76 13.76 5 15.25 5H21.75C23.7 5 25 6.3 25 8.25Z" stroke="#444444" stroke-width="1.5" stroke-miterlimit="10" stroke-linecap="round" stroke-linejoin="round"/>
<path d="M10.3999 25H17.5999" stroke="#444444" stroke-width="1.5" stroke-miterlimit="10" stroke-linecap="round" stroke-linejoin="round"/>
<path d="M14 21.4004V25.0004" stroke="#444444" stroke-width="1.5" stroke-miterlimit="10" stroke-linecap="round" stroke-linejoin="round"/>
<path d="M21.4955 10.25H21.5045" stroke="#444444" stroke-width="1.5" stroke-linecap="round" stroke-linejoin="round"/>
<path d="M18.6957 10.25H18.7047" stroke="#444444" stroke-width="1.5" stroke-linecap="round" stroke-linejoin="round"/>
<path d="M15.8954 10.25H15.9044" stroke="#444444" stroke-width="1.5" stroke-linecap="round" stroke-linejoin="round"/>
</svg>
