<svg width="26" height="26" viewBox="0 0 26 26" fill="none" xmlns="http://www.w3.org/2000/svg">
<path d="M13.4323 23.2904C10.7028 23.2904 8.08505 22.2061 6.15498 20.276C4.22492 18.3459 3.14063 15.7282 3.14062 12.9987C3.14062 10.2692 4.22492 7.65145 6.15498 5.72139C8.08505 3.79133 10.7028 2.70703 13.4323 2.70703C13.576 2.70703 13.7137 2.7641 13.8153 2.86568C13.9169 2.96726 13.974 3.10504 13.974 3.2487C13.974 3.39236 13.9169 3.53013 13.8153 3.63171C13.7137 3.7333 13.576 3.79036 13.4323 3.79036C11.9131 3.78136 10.4153 4.14837 9.07231 4.85869C7.72937 5.56901 6.58303 6.60057 5.73549 7.86141C4.88794 9.12225 4.36552 10.5732 4.21479 12.0849C4.06406 13.5967 4.28971 15.1222 4.87162 16.5256C5.45353 17.929 6.37362 19.1665 7.54987 20.128C8.72613 21.0895 10.122 21.7451 11.6131 22.0362C13.1042 22.3273 14.6441 22.245 16.0956 21.7966C17.5472 21.3482 18.8652 20.5476 19.9323 19.4662C19.9805 19.4092 20.0399 19.3627 20.1069 19.3298C20.1738 19.2968 20.2469 19.278 20.3214 19.2746C20.396 19.2712 20.4704 19.2833 20.5401 19.31C20.6098 19.3368 20.6732 19.3776 20.7264 19.43C20.7795 19.4824 20.8213 19.5452 20.849 19.6145C20.8767 19.6838 20.8898 19.7581 20.8875 19.8327C20.8851 19.9073 20.8674 19.9806 20.8354 20.0481C20.8034 20.1155 20.7578 20.1756 20.7015 20.2245C19.7543 21.1929 18.6236 21.9627 17.3755 22.4891C16.1274 23.0155 14.7869 23.2879 13.4323 23.2904Z" fill="#666666"/>
</svg>
