<svg width="24" height="18" viewBox="0 0 24 18" fill="none" xmlns="http://www.w3.org/2000/svg">
<path d="M1.6218 9.77196C1.47426 9.53835 1.4005 9.42154 1.3592 9.24138C1.32818 9.10606 1.32818 8.89264 1.3592 8.75732C1.4005 8.57715 1.47426 8.46035 1.6218 8.22674C2.84099 6.29626 6.47002 1.41602 12.0004 1.41602C17.5309 1.41602 21.1599 6.29626 22.3791 8.22674C22.5266 8.46035 22.6004 8.57715 22.6417 8.75732C22.6727 8.89264 22.6727 9.10606 22.6417 9.24138C22.6004 9.42154 22.5266 9.53835 22.3791 9.77196C21.1599 11.7024 17.5309 16.5827 12.0004 16.5827C6.47002 16.5827 2.84099 11.7024 1.6218 9.77196Z" stroke="#AAAAAA" stroke-width="1.2" stroke-linecap="round" stroke-linejoin="round"/>
<path d="M12.0004 12.2493C13.7954 12.2493 15.2504 10.7943 15.2504 8.99935C15.2504 7.20442 13.7954 5.74935 12.0004 5.74935C10.2055 5.74935 8.75044 7.20442 8.75044 8.99935C8.75044 10.7943 10.2055 12.2493 12.0004 12.2493Z" stroke="#AAAAAA" stroke-width="1.2" stroke-linecap="round" stroke-linejoin="round"/>
</svg>
