<svg width="18" height="18" viewBox="0 0 18 18" fill="none" xmlns="http://www.w3.org/2000/svg">
<path fill-rule="evenodd" clip-rule="evenodd" d="M13.2846 4.63537C13.5799 4.92588 13.5799 5.39687 13.2846 5.68737L5.78463 13.0664C5.48936 13.3569 5.01064 13.3569 4.71538 13.0664C4.42011 12.7759 4.42011 12.3049 4.71538 12.0144L12.2154 4.63537C12.5106 4.34487 12.9894 4.34487 13.2846 4.63537Z" fill="#292929"/>
<path fill-rule="evenodd" clip-rule="evenodd" d="M4.71537 4.63537C5.01064 4.34487 5.48936 4.34487 5.78463 4.63537L13.2846 12.0144C13.5799 12.3049 13.5799 12.7759 13.2846 13.0664C12.9894 13.3569 12.5106 13.3569 12.2154 13.0664L4.71537 5.68737C4.42011 5.39687 4.42011 4.92588 4.71537 4.63537Z" fill="#292929"/>
</svg>
