<svg width="115" height="12" viewBox="0 0 115 12" fill="none" xmlns="http://www.w3.org/2000/svg">
<path d="M0 11.752V0.212891H5.12497C6.26581 0.212891 7.16346 0.492063 7.82674 1.05484C8.49002 1.61319 8.82166 2.42855 8.82166 3.50093C8.82166 4.34288 8.50771 5.06518 7.88422 5.65898C8.3043 5.87611 8.64037 6.21289 8.89242 6.66932C9.14446 7.12574 9.26828 7.66193 9.26828 8.28231C9.26828 9.37242 8.92337 10.2232 8.23798 10.8348C7.55258 11.4463 6.61514 11.752 5.4345 11.752H0ZM4.7889 2.84952H2.97151V4.59103H4.75795C5.44334 4.59103 5.78825 4.30299 5.78825 3.72692C5.78825 3.15085 5.45219 2.84952 4.7889 2.84952ZM5.06748 7.12131H2.97151V9.11097H5.08075C5.85016 9.11097 6.23486 8.78305 6.23486 8.12279C6.23486 7.46252 5.84573 7.12131 5.06306 7.12131H5.06748Z" fill="#AAAAAA"/>
<path d="M23.5685 0L29.8344 11.7696H26.403L25.8326 10.613H21.2913L20.7209 11.7696H17.3027L23.5685 0ZM23.5685 6.01772L22.4277 8.31758H24.6917L23.5685 6.01772Z" fill="#AAAAAA"/>
<path d="M37.2684 0.230469V2.87153H33.6823V11.7696H30.7107V2.87153H27.1113V0.230469H37.2684Z" fill="#AAAAAA"/>
<path d="M17.6386 0.19043V2.84036H13.0487V4.573H16.9709V7.15646H13.0487V9.12396H17.7801L16.3651 11.7695H10.0684V0.19043H17.6386Z" fill="#AAAAAA"/>
<path d="M48.6091 3.81087L45.5757 3.96596C45.5757 3.55385 45.4563 3.23036 45.2131 2.99551C44.9699 2.76065 44.6338 2.641 44.2049 2.641C43.8335 2.641 43.5416 2.72963 43.3205 2.91131C43.0994 3.09299 42.9889 3.34115 42.9889 3.6602C42.9889 3.94824 43.1171 4.1698 43.3736 4.3249C43.6522 4.47113 44.1607 4.63509 44.8991 4.81678C46.2434 5.17571 47.225 5.61884 47.8485 6.13731C48.4676 6.65577 48.7816 7.37364 48.7816 8.29093C48.7816 9.50511 48.3747 10.4224 47.5655 11.0383C46.7431 11.6454 45.7083 11.9468 44.4569 11.9468C43.0287 11.9468 41.8746 11.6055 40.9946 10.9276C40.1235 10.2407 39.6902 9.27911 39.7034 8.04277L42.7368 7.88768C42.728 8.33081 42.8828 8.68974 43.2056 8.96005C43.5284 9.23036 43.9484 9.36773 44.4614 9.36773C45.3236 9.36773 45.7526 9.05754 45.7526 8.44159C45.7526 8.17128 45.6022 7.94528 45.306 7.75474C45.0097 7.56419 44.5056 7.37808 43.7981 7.19196C42.6705 6.91279 41.7773 6.55828 41.1184 6.12844C40.349 5.62327 39.9643 4.8345 39.9643 3.75326C39.9643 2.67202 40.3225 1.80348 41.0433 1.11663C41.7729 0.41648 42.8076 0.0664062 44.1518 0.0664062C45.4961 0.0664062 46.5618 0.398755 47.3842 1.06788C48.1846 1.72815 48.5958 2.641 48.6135 3.8153L48.6091 3.81087Z" fill="#AAAAAA"/>
<path d="M55.2282 0.0620117C57.0235 0.0620117 58.4827 0.607063 59.6015 1.69717C60.7423 2.77841 61.3083 4.20972 61.3083 5.99997C61.3083 7.79022 60.7379 9.2304 59.6015 10.3205C58.4827 11.4017 57.0235 11.9424 55.2282 11.9424C53.4329 11.9424 51.9516 11.4017 50.8108 10.3205C49.6832 9.22154 49.1172 7.78136 49.1172 5.99997C49.1172 4.21858 49.6832 2.77841 50.8108 1.69717C51.9384 0.607063 53.4108 0.0620117 55.2282 0.0620117ZM55.2282 2.69864C54.282 2.69864 53.5347 2.99554 52.9819 3.58491C52.4292 4.17427 52.1506 4.98077 52.1506 5.99997C52.1506 7.01918 52.4292 7.82124 52.9819 8.41504C53.5347 9.0044 54.2864 9.3013 55.2282 9.3013C56.1701 9.3013 56.9041 9.0044 57.4524 8.41504C58.0008 7.82568 58.2749 7.01918 58.2749 5.99997C58.2749 4.98077 58.0008 4.1787 57.4524 3.58491C56.9041 2.99554 56.1613 2.69864 55.2282 2.69864Z" fill="#AAAAAA"/>
<path d="M74.623 0V11.7696H71.6515V7.74151L68.3572 11.7696L65.0496 7.74151V11.7696H62.0781V0L68.3572 7.59084L74.623 0Z" fill="#AAAAAA"/>
<path d="M83.2762 0.230469V2.87153H78.7039V4.59975H82.6129V7.17434H78.7039V9.13298H83.2894V11.7696H75.7324V0.230469H83.2762Z" fill="#AAAAAA"/>
<path d="M89.9411 0.0620117C91.7364 0.0620117 93.1956 0.607063 94.3144 1.69717C95.4552 2.77841 96.0212 4.20972 96.0212 5.99997C96.0212 7.79022 95.4508 9.2304 94.3144 10.3205C93.1956 11.4017 91.7364 11.9424 89.9411 11.9424C88.1458 11.9424 86.6645 11.4017 85.5237 10.3205C84.3961 9.22154 83.8301 7.78136 83.8301 5.99997C83.8301 4.21858 84.3961 2.77841 85.5237 1.69717C86.6512 0.607063 88.1237 0.0620117 89.9411 0.0620117ZM89.9411 2.69864C88.9948 2.69864 88.2475 2.99554 87.6948 3.58491C87.1421 4.17427 86.8635 4.98077 86.8635 5.99997C86.8635 7.01918 87.1421 7.82124 87.6948 8.41504C88.2475 9.0044 88.9993 9.3013 89.9411 9.3013C90.883 9.3013 91.617 9.0044 92.1653 8.41504C92.7136 7.82568 92.9878 7.01918 92.9878 5.99997C92.9878 4.98077 92.7136 4.1787 92.1653 3.58491C91.617 2.99554 90.8741 2.69864 89.9411 2.69864Z" fill="#AAAAAA"/>
<path d="M96.7891 0L103.36 5.6322V0.230428H106.331V12L99.7606 6.38552V11.7696H96.7891V0Z" fill="#AAAAAA"/>
<path d="M114.985 0.230469V2.87153H110.413V4.59975H114.322V7.17434H110.413V9.13298H114.998V11.7696H107.441V0.230469H114.985Z" fill="#AAAAAA"/>
</svg>
