<svg width="38" height="38" viewBox="0 0 38 38" fill="none" xmlns="http://www.w3.org/2000/svg">
<path d="M24.1739 21.0653C24.5653 21.2217 24.7598 21.6686 24.5575 22.0384C24.0636 22.9413 23.355 23.7137 22.4896 24.2848C21.4111 24.9965 20.1407 25.3613 18.8488 25.3302C17.557 25.2991 16.3056 24.8736 15.2626 24.1107C14.4257 23.4987 13.7551 22.693 13.3052 21.7675C13.121 21.3884 13.3367 20.9513 13.7352 20.8139C14.1337 20.6766 14.5629 20.8923 14.7615 21.264C15.1002 21.8979 15.5783 22.4507 16.1636 22.8787C16.9553 23.4577 17.9051 23.7807 18.8856 23.8043C19.8661 23.8279 20.8304 23.551 21.649 23.0108C22.2542 22.6114 22.7583 22.0823 23.1271 21.4655C23.3434 21.1037 23.7825 20.9089 24.1739 21.0653Z" fill="#24CE7B"/>
<path d="M24.75 14.25C24.75 13.6977 24.3023 13.25 23.75 13.25C23.1977 13.25 22.75 13.6977 22.75 14.25H24.75ZM22.75 15.8333C22.75 16.3856 23.1977 16.8333 23.75 16.8333C24.3023 16.8333 24.75 16.3856 24.75 15.8333H22.75ZM15.25 14.25C15.25 13.6977 14.8023 13.25 14.25 13.25C13.6977 13.25 13.25 13.6977 13.25 14.25H15.25ZM13.25 15.8333C13.25 16.3856 13.6977 16.8333 14.25 16.8333C14.8023 16.8333 15.25 16.3856 15.25 15.8333H13.25ZM11.0833 5.75H26.9167V3.75H11.0833V5.75ZM32.25 11.0833V26.9167H34.25V11.0833H32.25ZM26.9167 32.25H11.0833V34.25H26.9167V32.25ZM5.75 26.9167V11.0833H3.75V26.9167H5.75ZM11.0833 32.25C8.13781 32.25 5.75 29.8622 5.75 26.9167H3.75C3.75 30.9668 7.03325 34.25 11.0833 34.25V32.25ZM32.25 26.9167C32.25 29.8622 29.8622 32.25 26.9167 32.25V34.25C30.9668 34.25 34.25 30.9668 34.25 26.9167H32.25ZM26.9167 5.75C29.8622 5.75 32.25 8.13781 32.25 11.0833H34.25C34.25 7.03325 30.9668 3.75 26.9167 3.75V5.75ZM11.0833 3.75C7.03325 3.75 3.75 7.03325 3.75 11.0833H5.75C5.75 8.13781 8.13781 5.75 11.0833 5.75V3.75ZM22.75 14.25V15.8333H24.75V14.25H22.75ZM13.25 14.25V15.8333H15.25V14.25H13.25Z" fill="#24CE7B"/>
</svg>
