<svg width="40" height="40" viewBox="0 0 40 40" fill="none" xmlns="http://www.w3.org/2000/svg">
<path fill-rule="evenodd" clip-rule="evenodd" d="M27.6187 12.2051C23.4103 7.91079 16.5934 7.91079 12.385 12.2051C10.9981 13.6203 10.0675 15.3244 9.59278 17.1291C9.52615 17.3824 9.33215 17.5826 9.08103 17.6572C6.31582 18.4787 4.28125 21.0912 4.28125 24.2008C4.28125 27.9778 7.27804 31.0138 10.943 31.0138H30.7077C33.4631 31.0138 35.7224 28.7303 35.7224 25.8814C35.7224 23.2843 33.8421 21.1538 31.4228 20.8008C31.0529 20.7468 30.7793 20.4287 30.7811 20.0549C30.7951 17.2115 29.7394 14.3691 27.6187 12.2051ZM11.3137 11.1552C16.1102 6.26076 23.8934 6.26076 28.69 11.1552C30.9462 13.4575 32.138 16.4319 32.2691 19.4409C35.122 20.155 37.2224 22.776 37.2224 25.8814C37.2224 29.53 34.3199 32.5138 30.7077 32.5138H10.943C6.42118 32.5138 2.78125 28.7776 2.78125 24.2008C2.78125 20.5765 5.06058 17.4842 8.2537 16.3498C8.82031 14.4496 9.84038 12.6586 11.3137 11.1552Z" fill="#222222"/>
<path fill-rule="evenodd" clip-rule="evenodd" d="M20.5001 25.2637C20.2159 25.5163 19.7877 25.5163 19.5036 25.2637L15.9741 22.1264C15.6646 21.8512 15.6367 21.3772 15.9119 21.0676C16.1871 20.758 16.6611 20.7301 16.9707 21.0053L19.2518 23.033L19.2518 15.2914C19.2518 14.8771 19.5876 14.5414 20.0018 14.5414C20.416 14.5414 20.7518 14.8771 20.7518 15.2914L20.7518 23.033L23.033 21.0053C23.3426 20.7301 23.8166 20.758 24.0918 21.0676C24.367 21.3772 24.3391 21.8512 24.0295 22.1264L20.5001 25.2637Z" fill="#222222"/>
</svg>
