<svg width="20" height="20" viewBox="0 0 20 20" fill="none" xmlns="http://www.w3.org/2000/svg">
<circle cx="13.6163" cy="9.28038" r="1.94444" stroke="#222222" stroke-linecap="round" stroke-linejoin="round"/>
<path d="M15.5625 9.11198V4.44531L17.5625 6.06436" stroke="#222222" stroke-linecap="round" stroke-linejoin="round"/>
<path fill-rule="evenodd" clip-rule="evenodd" d="M2.5436 7.4375C2.24338 7.4375 2 7.68088 2 7.9811C2 8.28133 2.24338 8.52471 2.5436 8.52471H3.87951L8.31425 10.4649C8.7378 10.6502 8.93257 11.1425 8.75045 11.5674C8.56737 11.9946 8.07262 12.1925 7.64542 12.0094L6.38177 11.4679C6.10582 11.3496 5.78625 11.4775 5.66798 11.7534C5.54972 12.0294 5.67755 12.3489 5.9535 12.4672L7.21714 13.0088C7.80954 13.2626 8.45859 13.1969 8.97183 12.8885L10.8049 13.805C11.4842 14.1447 12.2333 14.3215 12.9928 14.3215H14.1406C14.641 14.3215 15.0466 14.7271 15.0466 15.2275C15.0466 15.7279 14.641 16.1335 14.1406 16.1335H8.26139C7.4456 16.1335 6.64102 15.9436 5.91135 15.5787L2.78683 14.0165C2.5183 13.8822 2.19177 13.9911 2.05751 14.2596C1.92324 14.5281 2.03209 14.8546 2.30062 14.9889L5.42514 16.5512C6.30577 16.9915 7.27682 17.2207 8.26139 17.2207H14.1406C15.2414 17.2207 16.1338 16.3283 16.1338 15.2275C16.1338 14.1267 15.2414 13.2343 14.1406 13.2343H12.9928C12.4021 13.2343 11.8195 13.0967 11.2911 12.8326L9.72559 12.0498C9.73389 12.032 9.74195 12.0139 9.74976 11.9957C10.1671 11.0218 9.72076 9.89355 8.75002 9.46885L4.2111 7.48308C4.1424 7.45302 4.06821 7.4375 3.99322 7.4375H2.5436Z" fill="#222222"/>
</svg>
