<svg width="26" height="26" viewBox="0 0 26 26" fill="none" xmlns="http://www.w3.org/2000/svg">
<path fill-rule="evenodd" clip-rule="evenodd" d="M11.6708 5.75C8.40075 5.75 5.75 8.40059 5.75 11.6701C5.75 14.9396 8.40075 17.5902 11.6708 17.5902C14.9408 17.5902 17.5915 14.9396 17.5915 11.6701C17.5915 8.40059 14.9408 5.75 11.6708 5.75ZM4.25 11.6701C4.25 7.57202 7.57246 4.25 11.6708 4.25C15.7691 4.25 19.0915 7.57202 19.0915 11.6701C19.0915 15.7682 15.7691 19.0902 11.6708 19.0902C7.57246 19.0902 4.25 15.7682 4.25 11.6701Z" fill="#24CE7B"/>
<path fill-rule="evenodd" clip-rule="evenodd" d="M15.8525 15.8525C16.1453 15.5596 16.6202 15.5596 16.9131 15.8525L21.5285 20.4674C21.8214 20.7603 21.8214 21.2351 21.5286 21.528C21.2357 21.8209 20.7608 21.821 20.4679 21.5281L15.8525 16.9132C15.5596 16.6203 15.5596 16.1454 15.8525 15.8525Z" fill="#24CE7B"/>
</svg>
