<svg width="18" height="18" viewBox="0 0 18 18" fill="none" xmlns="http://www.w3.org/2000/svg">
<path fill-rule="evenodd" clip-rule="evenodd" d="M9 3C5.68629 3 3 5.68629 3 9V11.25C3 11.6642 2.66421 12 2.25 12C1.83579 12 1.5 11.6642 1.5 11.25V9C1.5 4.85786 4.85786 1.5 9 1.5C13.1421 1.5 16.5 4.85786 16.5 9V11.25C16.5 11.6642 16.1642 12 15.75 12C15.3358 12 15 11.6642 15 11.25V9C15 5.68629 12.3137 3 9 3Z" fill="#24CE7B"/>
<path fill-rule="evenodd" clip-rule="evenodd" d="M1.5 10.5H4.25C5.2165 10.5 6 11.2835 6 12.25V14.25C6 15.4926 4.99264 16.5 3.75 16.5C2.50736 16.5 1.5 15.4926 1.5 14.25V10.5ZM3 12V14.25C3 14.6642 3.33579 15 3.75 15C4.16421 15 4.5 14.6642 4.5 14.25V12.25C4.5 12.1119 4.38807 12 4.25 12H3Z" fill="#24CE7B"/>
<path fill-rule="evenodd" clip-rule="evenodd" d="M12 12.25C12 11.2835 12.7835 10.5 13.75 10.5H16.5V14.25C16.5 15.4926 15.4926 16.5 14.25 16.5C13.0074 16.5 12 15.4926 12 14.25V12.25ZM13.75 12C13.6119 12 13.5 12.1119 13.5 12.25V14.25C13.5 14.6642 13.8358 15 14.25 15C14.6642 15 15 14.6642 15 14.25V12H13.75Z" fill="#24CE7B"/>
</svg>
