<svg width="28" height="28" viewBox="0 0 28 28" fill="none" xmlns="http://www.w3.org/2000/svg">
<path fill-rule="evenodd" clip-rule="evenodd" d="M7.41667 8.5C6.83793 8.5 6.5 8.91159 6.5 9.25V18.25C6.5 18.5884 6.83793 19 7.41667 19H20.75C21.3287 19 21.6667 18.5884 21.6667 18.25V9.25C21.6667 8.91159 21.3287 8.5 20.75 8.5H7.41667ZM5 9.25C5 7.93841 6.16207 7 7.41667 7H20.75C22.0046 7 23.1667 7.93841 23.1667 9.25V18.25C23.1667 19.5616 22.0046 20.5 20.75 20.5H7.41667C6.16207 20.5 5 19.5616 5 18.25V9.25Z" fill="#222222"/>
<path fill-rule="evenodd" clip-rule="evenodd" d="M5.11553 8.85032C5.33632 8.49986 5.79941 8.39474 6.14988 8.61553L14.0834 13.6137L22.017 8.61553C22.3674 8.39474 22.8305 8.49986 23.0513 8.85032C23.2721 9.20078 23.167 9.66387 22.8165 9.88467L14.4832 15.1347C14.2389 15.2886 13.928 15.2886 13.6837 15.1347L5.35032 9.88467C4.99986 9.66387 4.89474 9.20078 5.11553 8.85032Z" fill="#222222"/>
</svg>
