<svg width="16" height="16" viewBox="0 0 16 16" fill="none" xmlns="http://www.w3.org/2000/svg">
<path d="M3.33331 3.32569C3.33331 2.67825 3.33331 2.35453 3.46831 2.17608C3.58591 2.02062 3.76566 1.92442 3.96025 1.9128C4.1836 1.89947 4.45296 2.07903 4.99166 2.43817L12.002 7.11175C12.4472 7.4085 12.6697 7.55688 12.7473 7.74389C12.8151 7.90739 12.8151 8.09115 12.7473 8.25465C12.6697 8.44167 12.4472 8.59004 12.002 8.88679L4.99166 13.5604C4.45296 13.9195 4.1836 14.0991 3.96025 14.0857C3.76566 14.0741 3.58591 13.9779 3.46831 13.8225C3.33331 13.644 3.33331 13.3203 3.33331 12.6729V3.32569Z" fill="#DDDDDD" stroke="#DDDDDD" stroke-width="2" stroke-linecap="round" stroke-linejoin="round"/>
</svg>
