<svg width="30" height="30" viewBox="0 0 30 30" fill="none" xmlns="http://www.w3.org/2000/svg">
<path d="M15.1605 13.87C15.0605 13.86 14.9405 13.86 14.8305 13.87C12.4505 13.79 10.5605 11.84 10.5605 9.44C10.5605 6.99 12.5405 5 15.0005 5C17.4505 5 19.4405 6.99 19.4405 9.44C19.4305 11.84 17.5405 13.79 15.1605 13.87Z" stroke="#444444" stroke-width="1.5" stroke-linecap="round" stroke-linejoin="round"/>
<path d="M10.1607 17.56C7.7407 19.18 7.7407 21.82 10.1607 23.43C12.9107 25.27 17.4207 25.27 20.1707 23.43C22.5907 21.81 22.5907 19.17 20.1707 17.56C17.4307 15.73 12.9207 15.73 10.1607 17.56Z" stroke="#444444" stroke-width="1.5" stroke-linecap="round" stroke-linejoin="round"/>
</svg>
