<svg width="26" height="26" viewBox="0 0 26 26" fill="none" xmlns="http://www.w3.org/2000/svg">
<path d="M9.68 11.66L16.3 8.35M7 10C7.59334 10 8.17336 10.1759 8.66671 10.5056C9.16006 10.8352 9.54458 11.3038 9.77164 11.852C9.9987 12.4001 10.0581 13.0033 9.94236 13.5853C9.8266 14.1672 9.54088 14.7018 9.12132 15.1213C8.70176 15.5409 8.16721 15.8266 7.58527 15.9424C7.00333 16.0581 6.40013 15.9987 5.85195 15.7716C5.30377 15.5446 4.83524 15.1601 4.50559 14.6667C4.17595 14.1734 4 13.5933 4 13C4 12.2044 4.31607 11.4413 4.87868 10.8787C5.44129 10.3161 6.20435 10 7 10V10ZM16 19C16 19.5933 16.1759 20.1734 16.5056 20.6667C16.8352 21.1601 17.3038 21.5446 17.8519 21.7716C18.4001 21.9987 19.0033 22.0581 19.5853 21.9424C20.1672 21.8266 20.7018 21.5409 21.1213 21.1213C21.5409 20.7018 21.8266 20.1672 21.9424 19.5853C22.0581 19.0033 21.9987 18.4001 21.7716 17.852C21.5446 17.3038 21.1601 16.8352 20.6667 16.5056C20.1734 16.1759 19.5933 16 19 16C18.2044 16 17.4413 16.3161 16.8787 16.8787C16.3161 17.4413 16 18.2044 16 19ZM9.68 14.34L16.3 17.65L9.68 14.34ZM19 10C19.5933 10 20.1734 9.82405 20.6667 9.49441C21.1601 9.16477 21.5446 8.69623 21.7716 8.14805C21.9987 7.59987 22.0581 6.99667 21.9424 6.41473C21.8266 5.83279 21.5409 5.29824 21.1213 4.87868C20.7018 4.45912 20.1672 4.1734 19.5853 4.05765C19.0033 3.94189 18.4001 4.0013 17.8519 4.22836C17.3038 4.45543 16.8352 4.83994 16.5056 5.33329C16.1759 5.82664 16 6.40666 16 7C16 7.79565 16.3161 8.55871 16.8787 9.12132C17.4413 9.68393 18.2044 10 19 10Z" stroke="#AAAAAA" stroke-width="1.2" stroke-linecap="round" stroke-linejoin="round"/>
</svg>
