<svg width="28" height="28" viewBox="0 0 28 28" fill="none" xmlns="http://www.w3.org/2000/svg">
<path d="M21.6468 10.0467C21.6546 10.22 21.6546 10.3853 21.6546 10.5586C21.6625 15.8112 17.6905 21.875 10.4268 21.875C8.28442 21.875 6.18115 21.2529 4.375 20.0874C4.68775 20.1267 5.00051 20.1425 5.31326 20.1425C7.08814 20.1425 8.8161 19.544 10.2157 18.4336C8.52681 18.4021 7.04123 17.2917 6.52518 15.6695C7.11942 15.7876 7.72929 15.764 8.30788 15.5986C6.47045 15.2364 5.14907 13.6062 5.14125 11.7083C5.14125 11.6926 5.14125 11.6768 5.14125 11.6611C5.68857 11.9682 6.30626 12.1415 6.93176 12.1572C5.2038 10.9917 4.6643 8.66858 5.71202 6.84945C7.72147 9.33796 10.677 10.8421 13.8514 11.0075C13.5309 9.62934 13.9687 8.18033 14.993 7.20383C16.5802 5.6997 19.0823 5.77845 20.5835 7.37708C21.467 7.20383 22.3193 6.87308 23.0933 6.40845C22.7962 7.32983 22.1785 8.10946 21.3575 8.60558C22.1394 8.51108 22.9057 8.29846 23.625 7.98346C23.0933 8.78671 22.4209 9.47971 21.6468 10.0467Z" fill="#1D9BF0"/>
</svg>
