<svg width="18" height="18" viewBox="0 0 18 18" fill="none" xmlns="http://www.w3.org/2000/svg">
<path fill-rule="evenodd" clip-rule="evenodd" d="M8.99844 2.09844C5.18767 2.09844 2.09844 5.18767 2.09844 8.99844C2.09844 12.8092 5.18767 15.8984 8.99844 15.8984C12.8092 15.8984 15.8984 12.8092 15.8984 8.99844C15.8984 5.18767 12.8092 2.09844 8.99844 2.09844ZM0.898438 8.99844C0.898438 4.52493 4.52493 0.898438 8.99844 0.898438C13.4719 0.898438 17.0984 4.52493 17.0984 8.99844C17.0984 13.4719 13.4719 17.0984 8.99844 17.0984C4.52493 17.0984 0.898438 13.4719 0.898438 8.99844ZM8.99844 3.89844C9.32981 3.89844 9.59844 4.16707 9.59844 4.49844V8.62762L12.2668 9.96178C12.5632 10.11 12.6833 10.4704 12.5351 10.7668C12.3869 11.0632 12.0265 11.1833 11.7301 11.0351L8.73011 9.53509C8.52684 9.43346 8.39844 9.2257 8.39844 8.99844V4.49844C8.39844 4.16707 8.66707 3.89844 8.99844 3.89844Z" fill="#24CE7B"/>
</svg>
