<svg width="16" height="16" viewBox="0 0 16 16" fill="none" xmlns="http://www.w3.org/2000/svg">
<path d="M10.08 3C10.08 2.73478 10.1811 2.48043 10.3612 2.29289C10.5412 2.10536 10.7854 2 11.04 2C11.2946 2 11.5388 2.10536 11.7188 2.29289C11.8989 2.48043 12 2.73478 12 3V13C12 13.2652 11.8989 13.5196 11.7188 13.7071C11.5388 13.8946 11.2946 14 11.04 14C10.7854 14 10.5412 13.8946 10.3612 13.7071C10.1811 13.5196 10.08 13.2652 10.08 13V3ZM4 3C4 2.73478 4.10114 2.48043 4.28118 2.29289C4.46121 2.10536 4.70539 2 4.96 2C5.21461 2 5.45879 2.10536 5.63882 2.29289C5.81886 2.48043 5.92 2.73478 5.92 3V13C5.92 13.2652 5.81886 13.5196 5.63882 13.7071C5.45879 13.8946 5.21461 14 4.96 14C4.70539 14 4.46121 13.8946 4.28118 13.7071C4.10114 13.5196 4 13.2652 4 13V3Z" fill="#24CE7B"/>
</svg>
