<svg width="20" height="20" viewBox="0 0 20 20" fill="none" xmlns="http://www.w3.org/2000/svg">
<path fill-rule="evenodd" clip-rule="evenodd" d="M3.00794 10.4521C3.59955 9.59578 4.67917 9.25 6.25 9.25C6.67382 9.25 7.01697 9.29369 7.33216 9.41644C7.62448 9.53027 7.84729 9.69769 8.02477 9.83105C8.03328 9.83745 8.04169 9.84377 8.05 9.85C8.0851 9.87632 8.11782 9.90568 8.14779 9.93772L8.90391 10.7462C9.50183 11.378 10.5006 11.3742 11.0876 10.7473L11.0897 10.745L11.8547 9.93503C11.884 9.90403 11.9159 9.87558 11.95 9.85C11.9583 9.84377 11.9667 9.83745 11.9752 9.83105C12.1527 9.69769 12.3755 9.53027 12.6678 9.41644C12.983 9.29369 13.3262 9.25 13.75 9.25C15.3208 9.25 16.4005 9.59578 16.9921 10.4521C17.2726 10.8583 17.3915 11.3116 17.4468 11.7349C17.5001 12.1426 17.5 12.5787 17.5 12.9744L17.5 13.75C17.5 14.8516 17.3051 16.0018 16.5775 16.8798C15.8261 17.7865 14.6387 18.25 13 18.25H7C5.0539 18.25 3.78688 17.8197 3.10162 16.8274C2.77423 16.3534 2.63191 15.8193 2.56491 15.3064C2.49996 14.8091 2.49998 14.2747 2.5 13.7767L2.5 12.9744C2.49998 12.5787 2.49995 12.1426 2.55319 11.7349C2.60847 11.3116 2.72735 10.8583 3.00794 10.4521ZM4.04056 11.9291C4.00121 12.2305 4 12.5737 4 13V13.75C4 14.2794 4.00121 14.7211 4.05228 15.1121C4.10247 15.4963 4.19452 15.7704 4.33589 15.9751C4.58812 16.3403 5.19611 16.75 7 16.75H13C14.3613 16.75 15.0489 16.3735 15.4225 15.9227C15.8199 15.4432 16 14.7184 16 13.75V13C16 12.5737 15.9988 12.2305 15.9594 11.9291C15.921 11.6345 15.8524 11.4414 15.7579 11.3047C15.5995 11.0755 15.1792 10.75 13.75 10.75C13.4238 10.75 13.287 10.7851 13.2122 10.8142C13.1357 10.844 13.0707 10.8857 12.9008 11.012L12.1824 11.7727C12.182 11.7731 12.1816 11.7736 12.1811 11.774C10.9984 13.0354 8.99902 13.0316 7.81224 11.775L7.80971 11.7723L7.09771 11.0109C6.92898 10.8854 6.86408 10.8439 6.78784 10.8142C6.71304 10.7851 6.57619 10.75 6.25 10.75C4.82083 10.75 4.40046 11.0755 4.24207 11.3047C4.14765 11.4414 4.07904 11.6345 4.04056 11.9291Z" fill="#222222"/>
<path fill-rule="evenodd" clip-rule="evenodd" d="M4.50794 2.95214C5.09955 2.09578 6.17917 1.75 7.75 1.75H12.25C13.8208 1.75 14.9005 2.09578 15.4921 2.95214C15.7726 3.35828 15.8915 3.81159 15.9468 4.23487C16.0001 4.64259 16 5.07868 16 5.47438L16 10C16 10.4142 15.6642 10.75 15.25 10.75C14.8358 10.75 14.5 10.4142 14.5 10V5.5C14.5 5.07369 14.4988 4.73047 14.4594 4.42911C14.421 4.1345 14.3524 3.9414 14.2579 3.80474C14.0995 3.57547 13.6792 3.25 12.25 3.25H7.75C6.32083 3.25 5.90046 3.57547 5.74207 3.80474C5.64765 3.9414 5.57904 4.1345 5.54056 4.42911C5.50121 4.73047 5.5 5.07369 5.5 5.5V10C5.5 10.4142 5.16422 10.75 4.75 10.75C4.33579 10.75 4 10.4142 4 10L4 5.47437C3.99998 5.07868 3.99995 4.64258 4.05319 4.23487C4.10847 3.81159 4.22735 3.35828 4.50794 2.95214Z" fill="#222222"/>
<path fill-rule="evenodd" clip-rule="evenodd" d="M8.16406 7.92188C8.16406 7.50766 8.49985 7.17188 8.91406 7.17188H11.4116C11.8258 7.17188 12.1616 7.50766 12.1616 7.92188C12.1616 8.33609 11.8258 8.67188 11.4116 8.67188H8.91406C8.49985 8.67188 8.16406 8.33609 8.16406 7.92188Z" fill="#222222"/>
<path fill-rule="evenodd" clip-rule="evenodd" d="M7.53906 5.67188C7.53906 5.25766 7.87485 4.92188 8.28906 4.92188H12.0391C12.4533 4.92188 12.7891 5.25766 12.7891 5.67188C12.7891 6.08609 12.4533 6.42188 12.0391 6.42188H8.28906C7.87485 6.42188 7.53906 6.08609 7.53906 5.67188Z" fill="#222222"/>
</svg>
