<svg width="16" height="16" viewBox="0 0 16 16" fill="none" xmlns="http://www.w3.org/2000/svg">
<path d="M8.18944 15.5278C6.93955 15.5289 5.70769 15.2329 4.59766 14.6647C4.54397 14.6373 4.49628 14.5997 4.4573 14.554C4.41833 14.5083 4.38883 14.4555 4.37049 14.3986C4.35215 14.3416 4.34533 14.2817 4.35042 14.2221C4.35551 14.1626 4.37241 14.1046 4.40015 14.0515C4.4279 13.9984 4.46595 13.9513 4.51213 13.9127C4.5583 13.8742 4.61171 13.845 4.66928 13.8269C4.72686 13.8087 4.78749 13.802 4.8477 13.807C4.90792 13.8121 4.96654 13.8288 5.02022 13.8562C6.507 14.6042 8.21725 14.795 9.83513 14.3931C11.453 13.9913 12.8692 13.0241 13.8222 11.6701C14.7752 10.3161 15.2006 8.66687 15.0198 7.02688C14.8391 5.3869 14.0644 3.867 12.8388 2.74787C11.6132 1.62875 10.0195 0.986003 8.35212 0.938341C6.6847 0.890679 5.05615 1.44132 3.76726 2.48857C2.47836 3.53582 1.61617 5.00893 1.33993 6.63585C1.06369 8.26277 1.39205 9.93359 2.26437 11.3397C2.32591 11.4438 2.34402 11.5675 2.31486 11.6845C2.2857 11.8015 2.21158 11.9027 2.10821 11.9666C2.05642 11.9979 1.99887 12.0188 1.93888 12.028C1.87889 12.0371 1.81766 12.0345 1.75872 12.0201C1.69977 12.0058 1.6443 11.98 1.59549 11.9443C1.54668 11.9086 1.50551 11.8637 1.47436 11.8121C0.466281 10.2157 0.0825055 8.31004 0.395171 6.45341C0.707836 4.59679 1.69541 2.91702 3.17228 1.72983C4.64915 0.542639 6.51362 -0.0702315 8.41525 0.00640896C10.3169 0.0830494 12.1247 0.843924 13.499 2.14603C14.5604 3.11886 15.3274 4.36423 15.7146 5.74315C16.1019 7.12206 16.094 8.58027 15.6919 9.95502C15.2899 11.3298 14.5094 12.567 13.4377 13.5286C12.3659 14.4901 11.045 15.1383 9.62248 15.4006C9.14992 15.4876 8.67011 15.5302 8.18944 15.5278Z" fill="#666666"/>
<path d="M1.06351 15.9983C0.885441 15.995 0.710941 15.9483 0.555444 15.8624C0.399946 15.7765 0.268242 15.6541 0.171978 15.5059C0.0757132 15.3577 0.0178546 15.1883 0.00351789 15.0128C-0.0108189 14.8372 0.0188082 14.6609 0.0897791 14.4993L1.48607 11.3923C1.53805 11.2822 1.63169 11.1967 1.74682 11.1542C1.86194 11.1118 1.98934 11.1157 2.10155 11.1652C2.21224 11.2148 2.29856 11.3057 2.3416 11.4181C2.38465 11.5305 2.38091 11.6552 2.3312 11.7648L0.925719 14.8718C0.907831 14.8954 0.89816 14.9241 0.89816 14.9536C0.89816 14.983 0.907831 15.0117 0.925719 15.0353C0.945785 15.058 0.972136 15.0744 1.00152 15.0825C1.0309 15.0906 1.06203 15.09 1.09107 15.0807L4.62774 13.8361C4.68434 13.8146 4.74475 13.8046 4.80535 13.8067C4.86596 13.8089 4.9255 13.8231 4.98041 13.8485C5.03532 13.874 5.08446 13.9102 5.12488 13.9549C5.16531 13.9996 5.19618 14.0519 5.21565 14.1087C5.25702 14.2219 5.25123 14.3468 5.19955 14.4558C5.14788 14.5648 5.05454 14.6491 4.94007 14.6901L1.43096 15.9347C1.31342 15.9779 1.18889 15.9994 1.06351 15.9983Z" fill="#666666"/>
</svg>
