<svg width="30" height="30" viewBox="0 0 30 30" fill="none" xmlns="http://www.w3.org/2000/svg">
<path d="M20 7.5V6.5C20 5.09987 20 4.3998 19.7275 3.86502C19.4878 3.39462 19.1054 3.01217 18.635 2.77248C18.1002 2.5 17.4001 2.5 16 2.5H14C12.5999 2.5 11.8998 2.5 11.365 2.77248C10.8946 3.01217 10.5122 3.39462 10.2725 3.86502C10 4.3998 10 5.09987 10 6.5V7.5M12.5 14.375V20.625M17.5 14.375V20.625M3.75 7.5H26.25M23.75 7.5V21.5C23.75 23.6002 23.75 24.6503 23.3413 25.4525C22.9817 26.1581 22.4081 26.7317 21.7025 27.0913C20.9003 27.5 19.8502 27.5 17.75 27.5H12.25C10.1498 27.5 9.0997 27.5 8.29754 27.0913C7.59193 26.7317 7.01825 26.1581 6.65873 25.4525C6.25 24.6503 6.25 23.6002 6.25 21.5V7.5" stroke="white" stroke-width="2" stroke-linecap="round" stroke-linejoin="round"/>
</svg>
