<svg width="26" height="26" viewBox="0 0 26 26" fill="none" xmlns="http://www.w3.org/2000/svg">
<path d="M7.73242 23.0407C7.3875 23.3236 7.02736 23.3337 6.652 23.071C6.27665 22.8083 6.15998 22.4648 6.30201 22.0405L7.4554 16.3796L3.13685 11.8267C2.77164 11.5641 2.65498 11.2256 2.78686 10.8114C2.91874 10.3972 3.20786 10.1901 3.65423 10.1901L9.22059 9.33486L12.1149 3.40115C12.1758 3.17889 12.2925 3.0122 12.4649 2.90107C12.6374 2.78994 12.8149 2.73438 12.9975 2.73438C13.1801 2.73438 13.3577 2.78994 13.5301 2.90107C13.7026 3.0122 13.8193 3.17889 13.8801 3.40115L16.7745 9.33486L22.3408 10.1901C22.7872 10.1901 23.0763 10.3972 23.2082 10.8114C23.3401 11.2256 23.2234 11.5641 22.8582 11.8267L18.5397 16.3796L19.6931 22.0405C19.8351 22.4648 19.7184 22.8083 19.3431 23.071C18.9677 23.3337 18.6076 23.3236 18.2627 23.0407L12.9975 19.8953L7.73242 23.0407Z" fill="#FFDA56"/>
</svg>
