<svg width="52" height="52" viewBox="0 0 52 52" fill="none" xmlns="http://www.w3.org/2000/svg">
<path d="M26.0026 47.6693C37.9688 47.6693 47.6693 37.9688 47.6693 26.0026C47.6693 14.0364 37.9688 4.33594 26.0026 4.33594C14.0364 4.33594 4.33594 14.0364 4.33594 26.0026C4.33594 37.9688 14.0364 47.6693 26.0026 47.6693Z" stroke="#24CE7B" stroke-width="2" stroke-linecap="round" stroke-linejoin="round"/>
<path d="M20.5859 19.4275C20.5859 18.3934 20.5859 17.8763 20.802 17.5877C20.9904 17.3361 21.2787 17.1787 21.5921 17.1563C21.9518 17.1306 22.3867 17.4102 23.2566 17.9694L33.4845 24.5446C34.2394 25.0298 34.6168 25.2724 34.7472 25.581C34.8611 25.8505 34.8611 26.1547 34.7472 26.4243C34.6168 26.7328 34.2394 26.9754 33.4845 27.4606L23.2566 34.0358C22.3867 34.595 21.9518 34.8746 21.5921 34.8489C21.2787 34.8265 20.9904 34.6691 20.802 34.4176C20.5859 34.1289 20.5859 33.6118 20.5859 32.5777V19.4275Z" stroke="#24CE7B" stroke-width="2" stroke-linecap="round" stroke-linejoin="round"/>
</svg>
