<svg width="18" height="18" viewBox="0 0 18 18" fill="none" xmlns="http://www.w3.org/2000/svg">
<path d="M13.7757 6.65625L13.6175 6.18191L13.7757 6.65625ZM8.80132 8.31436L8.95943 8.78871L8.80132 8.31436ZM15.25 8.99814C15.25 9.27428 15.4739 9.49814 15.75 9.49814C16.0261 9.49814 16.25 9.27428 16.25 8.99814H15.25ZM13.7757 2.15625L13.9338 2.63059L13.7757 2.15625ZM8.80132 3.81436L8.6432 3.34002L8.80132 3.81436ZM6.25 10.4981C6.25 10.7743 6.47386 10.9981 6.75 10.9981C7.02614 10.9981 7.25 10.7743 7.25 10.4981H6.25ZM15.25 12.7481C15.25 13.7146 14.4665 14.4981 13.5 14.4981V15.4981C15.0188 15.4981 16.25 14.2669 16.25 12.7481H15.25ZM13.5 14.4981C12.5335 14.4981 11.75 13.7146 11.75 12.7481H10.75C10.75 14.2669 11.9812 15.4981 13.5 15.4981V14.4981ZM11.75 12.7481C11.75 11.7816 12.5335 10.9981 13.5 10.9981V9.99814C11.9812 9.99814 10.75 11.2294 10.75 12.7481H11.75ZM13.5 10.9981C14.4665 10.9981 15.25 11.7816 15.25 12.7481H16.25C16.25 11.2294 15.0188 9.99814 13.5 9.99814V10.9981ZM6.25 14.2481C6.25 15.2146 5.4665 15.9981 4.5 15.9981V16.9981C6.01878 16.9981 7.25 15.7669 7.25 14.2481H6.25ZM4.5 15.9981C3.5335 15.9981 2.75 15.2146 2.75 14.2481H1.75C1.75 15.7669 2.98122 16.9981 4.5 16.9981V15.9981ZM2.75 14.2481C2.75 13.2816 3.5335 12.4981 4.5 12.4981V11.4981C2.98122 11.4981 1.75 12.7294 1.75 14.2481H2.75ZM4.5 12.4981C5.4665 12.4981 6.25 13.2816 6.25 14.2481H7.25C7.25 12.7294 6.01878 11.4981 4.5 11.4981V12.4981ZM16.25 12.7481V8.07928H15.25V12.7481H16.25ZM13.6175 6.18191L8.6432 7.84002L8.95943 8.78871L13.9338 7.13059L13.6175 6.18191ZM6.25 11.1604V14.2481H7.25V11.1604H6.25ZM8.6432 7.84002C7.21401 8.31642 6.25 9.65391 6.25 11.1604H7.25C7.25 10.0843 7.93858 9.12899 8.95943 8.78871L8.6432 7.84002ZM16.25 8.07928C16.25 6.71416 14.9126 5.75022 13.6175 6.18191L13.9338 7.13059C14.5813 6.91475 15.25 7.39672 15.25 8.07928H16.25ZM16.25 8.99814V3.57927H15.25V8.99814H16.25ZM13.6175 1.68191L8.6432 3.34002L8.95943 4.28871L13.9338 2.63059L13.6175 1.68191ZM6.25 6.66041V10.4981H7.25V6.66041H6.25ZM8.6432 3.34002C7.21401 3.81642 6.25 5.15391 6.25 6.66041H7.25C7.25 5.58434 7.93858 4.62899 8.95943 4.28871L8.6432 3.34002ZM16.25 3.57927C16.25 2.21416 14.9126 1.25022 13.6175 1.68191L13.9338 2.63059C14.5813 2.41475 15.25 2.89672 15.25 3.57927H16.25Z" fill="#24CE7B"/>
</svg>
