<svg width="82" height="82" viewBox="0 0 82 82" fill="none" xmlns="http://www.w3.org/2000/svg">
<path fill-rule="evenodd" clip-rule="evenodd" d="M15.2693 68.3343H66.7319C71.9958 68.3343 75.2831 62.6327 72.6456 58.0772L46.9144 13.6322C44.2824 9.08613 37.7188 9.08612 35.0869 13.6322L9.35559 58.0772C6.71816 62.6327 10.0054 68.3343 15.2693 68.3343ZM45.2714 57.2301C45.2714 59.5888 43.3593 61.5009 41.0006 61.5009C38.6419 61.5009 36.7298 59.5888 36.7298 57.2301C36.7298 54.8714 38.6419 52.9592 41.0006 52.9592C43.3593 52.9592 45.2714 54.8714 45.2714 57.2301ZM44.4173 30.7509C44.4173 28.8639 42.8876 27.3342 41.0006 27.3342C39.1136 27.3342 37.5839 28.8639 37.5839 30.7509V44.4176C37.5839 46.3046 39.1136 47.8342 41.0006 47.8342C42.8876 47.8342 44.4173 46.3046 44.4173 44.4176V30.7509Z" fill="url(#paint0_linear_443_8253)"/>
<defs>
<linearGradient id="paint0_linear_443_8253" x1="10.4046" y1="20.1016" x2="77.2429" y2="23.5289" gradientUnits="userSpaceOnUse">
<stop stop-color="#13E880"/>
<stop offset="1" stop-color="#80E8FF"/>
</linearGradient>
</defs>
</svg>
