<svg width="24" height="24" viewBox="0 0 24 24" fill="none" xmlns="http://www.w3.org/2000/svg">
<path fill-rule="evenodd" clip-rule="evenodd" d="M2.25 11C2.25 10.5858 2.58579 10.25 3 10.25L15 10.25C15.4142 10.25 15.75 10.5858 15.75 11C15.75 11.4142 15.4142 11.75 15 11.75L3 11.75C2.58579 11.75 2.25 11.4142 2.25 11Z" fill="#292929"/>
<path fill-rule="evenodd" clip-rule="evenodd" d="M2.25 5C2.25 4.58579 2.58579 4.25 3 4.25L21 4.25C21.4142 4.25 21.75 4.58579 21.75 5C21.75 5.41422 21.4142 5.75 21 5.75L3 5.75C2.58579 5.75 2.25 5.41421 2.25 5Z" fill="#292929"/>
<path fill-rule="evenodd" clip-rule="evenodd" d="M2.25 17C2.25 16.5858 2.58579 16.25 3 16.25L12 16.25C12.4142 16.25 12.75 16.5858 12.75 17C12.75 17.4142 12.4142 17.75 12 17.75L3 17.75C2.58579 17.75 2.25 17.4142 2.25 17Z" fill="#292929"/>
<path fill-rule="evenodd" clip-rule="evenodd" d="M18 15.75C17.3096 15.75 16.75 16.3096 16.75 17C16.75 17.6904 17.3096 18.25 18 18.25C18.6904 18.25 19.25 17.6904 19.25 17C19.25 16.3096 18.6904 15.75 18 15.75ZM15.25 17C15.25 15.4812 16.4812 14.25 18 14.25C19.5188 14.25 20.75 15.4812 20.75 17C20.75 18.5188 19.5188 19.75 18 19.75C16.4812 19.75 15.25 18.5188 15.25 17Z" fill="#292929"/>
<path fill-rule="evenodd" clip-rule="evenodd" d="M19.713 9.30711C19.9932 9.19103 20.3158 9.25519 20.5303 9.46969L22.5303 11.4697C22.8232 11.7626 22.8232 12.2375 22.5303 12.5304C22.2374 12.8232 21.7626 12.8232 21.4697 12.5304L20.75 11.8107V17C20.75 17.4142 20.4142 17.75 20 17.75C19.5858 17.75 19.25 17.4142 19.25 17V10C19.25 9.69668 19.4327 9.4232 19.713 9.30711Z" fill="#292929"/>
</svg>
