<svg width="30" height="30" viewBox="0 0 30 30" fill="none" xmlns="http://www.w3.org/2000/svg">
<path d="M25.8327 18.2503V11.7503C25.8327 6.33366 23.666 4.16699 18.2493 4.16699H11.7493C6.33268 4.16699 4.16602 6.33366 4.16602 11.7503V18.2503C4.16602 23.667 6.33268 25.8337 11.7493 25.8337H18.2493C23.666 25.8337 25.8327 23.667 25.8327 18.2503Z" stroke="#444444" stroke-width="1.5" stroke-linecap="round" stroke-linejoin="round"/>
<path d="M11.1208 20.5355C12.0601 20.5355 12.8216 19.774 12.8216 18.8346C12.8216 17.8953 12.0601 17.1338 11.1208 17.1338C10.1814 17.1338 9.41992 17.8953 9.41992 18.8346C9.41992 19.774 10.1814 20.5355 11.1208 20.5355Z" stroke="#444444" stroke-width="1.5" stroke-linecap="round" stroke-linejoin="round"/>
<path d="M19.0612 17.6975V11.0458C19.0612 9.62661 18.1728 9.43167 17.2737 9.68084L13.8721 10.6125C13.2546 10.7858 12.832 11.2733 12.832 11.9775V13.1691V13.9708V18.8458" stroke="#444444" stroke-width="1.5" stroke-linecap="round" stroke-linejoin="round"/>
<path d="M17.361 19.3988C18.3003 19.3988 19.0618 18.6373 19.0618 17.6979C19.0618 16.7586 18.3003 15.9971 17.361 15.9971C16.4217 15.9971 15.6602 16.7586 15.6602 17.6979C15.6602 18.6373 16.4217 19.3988 17.361 19.3988Z" stroke="#444444" stroke-width="1.5" stroke-linecap="round" stroke-linejoin="round"/>
<path d="M12.8223 13.9596L19.0623 12.2588" stroke="#444444" stroke-width="1.5" stroke-linecap="round" stroke-linejoin="round"/>
</svg>
