<svg width="30" height="30" viewBox="0 0 30 30" fill="none" xmlns="http://www.w3.org/2000/svg">
<path fill-rule="evenodd" clip-rule="evenodd" d="M7.6887 8.82812C6.96894 8.82812 6.51562 9.34356 6.51562 9.80889V20.1935C6.51562 20.6588 6.96894 21.1743 7.6887 21.1743H23.0733C23.7931 21.1743 24.2464 20.6588 24.2464 20.1935V9.80889C24.2464 9.34356 23.7931 8.82812 23.0733 8.82812H7.6887ZM5.01562 9.80889C5.01562 8.37038 6.29308 7.32812 7.6887 7.32812H23.0733C24.4689 7.32812 25.7464 8.37038 25.7464 9.80889V20.1935C25.7464 21.632 24.4689 22.6743 23.0733 22.6743H7.6887C6.29308 22.6743 5.01562 21.632 5.01562 20.1935V9.80889Z" fill="#222222"/>
<path fill-rule="evenodd" clip-rule="evenodd" d="M5.13115 9.41282C5.35195 9.06236 5.81504 8.95724 6.1655 9.17803L15.3811 14.9839L24.5967 9.17803C24.9472 8.95724 25.4103 9.06236 25.6311 9.41282C25.8519 9.76328 25.7467 10.2264 25.3963 10.4472L15.7809 16.5049C15.5366 16.6588 15.2256 16.6588 14.9813 16.5049L5.36594 10.4472C5.01548 10.2264 4.91036 9.76328 5.13115 9.41282Z" fill="#222222"/>
</svg>
