<svg width="20" height="20" viewBox="0 0 20 20" fill="none" xmlns="http://www.w3.org/2000/svg">
<path fill-rule="evenodd" clip-rule="evenodd" d="M15.2563 1.92187C17.2743 1.92187 18.9102 3.55776 18.9102 5.57572L18.9102 14.4219C18.9102 16.4398 17.2743 18.0757 15.2563 18.0757L4.74348 18.0757C2.72552 18.0757 1.08964 16.4398 1.08964 14.4219L1.08964 5.57572C1.08964 3.55776 2.72552 1.92187 4.74349 1.92187L15.2563 1.92187ZM17.7563 5.57572C17.7563 4.19501 16.637 3.07572 15.2563 3.07572L4.74349 3.07572C3.36278 3.07572 2.24349 4.19501 2.24349 5.57572L2.24349 14.4219C2.24349 15.8026 3.36277 16.9219 4.74348 16.9219L15.2563 16.9219C16.637 16.9219 17.7563 15.8026 17.7563 14.4219L17.7563 5.57572Z" fill="#222222"/>
<path d="M5.83464 14.1654C5.83464 14.6256 5.46154 14.9987 5.0013 14.9987C4.54106 14.9987 4.16797 14.6256 4.16797 14.1654C4.16797 13.7051 4.54106 13.332 5.0013 13.332C5.46154 13.332 5.83464 13.7051 5.83464 14.1654Z" fill="#222222"/>
<path fill-rule="evenodd" clip-rule="evenodd" d="M5.0013 14.2295C5.0367 14.2295 5.0654 14.2008 5.0654 14.1654C5.0654 14.13 5.0367 14.1013 5.0013 14.1013C4.9659 14.1013 4.9372 14.13 4.9372 14.1654C4.9372 14.2008 4.9659 14.2295 5.0013 14.2295ZM5.0013 14.9987C5.46154 14.9987 5.83464 14.6256 5.83464 14.1654C5.83464 13.7051 5.46154 13.332 5.0013 13.332C4.54106 13.332 4.16797 13.7051 4.16797 14.1654C4.16797 14.6256 4.54106 14.9987 5.0013 14.9987Z" fill="#222222"/>
<path fill-rule="evenodd" clip-rule="evenodd" d="M17.7563 6.41166L2.24349 6.41166L2.24349 8.59115L17.7563 8.59115L17.7563 6.41166ZM18.9102 5.83474L18.9102 9.16807C18.9102 9.48669 18.6519 9.74499 18.3332 9.74499L1.66656 9.74499C1.51356 9.74499 1.36681 9.68421 1.25862 9.57602C1.15042 9.46782 1.08964 9.32108 1.08964 9.16807L1.08964 5.83474C1.08964 5.51611 1.34794 5.25781 1.66656 5.25781L18.3332 5.25781C18.6519 5.25781 18.9102 5.51611 18.9102 5.83474Z" fill="#222222"/>
</svg>
