<svg width="24" height="24" viewBox="0 0 24 24" fill="none" xmlns="http://www.w3.org/2000/svg">
<circle cx="12" cy="12" r="11.5" fill="white" stroke="#24CE7B"/>
<g clip-path="url(#clip0_14_61630)">
<path d="M10 8.99659C10 8.60812 10 8.41389 10.081 8.30682C10.1516 8.21354 10.2594 8.15582 10.3762 8.14885C10.5102 8.14085 10.6718 8.24859 10.995 8.46407L15.2012 11.2682C15.4683 11.4463 15.6018 11.5353 15.6484 11.6475C15.6891 11.7456 15.6891 11.8559 15.6484 11.954C15.6018 12.0662 15.4683 12.1552 15.2012 12.3332L10.995 15.1374C10.6718 15.3529 10.5102 15.4606 10.3762 15.4526C10.2594 15.4456 10.1516 15.3879 10.081 15.2947C10 15.1876 10 14.9933 10 14.6049V8.99659Z" fill="#24CE7B" stroke="#24CE7B" stroke-width="2" stroke-linecap="round" stroke-linejoin="round"/>
</g>
<defs>
<clipPath id="clip0_14_61630">
<rect width="9.6" height="9.6" fill="white" transform="translate(8 7)"/>
</clipPath>
</defs>
</svg>
