<svg width="69" height="12" viewBox="0 0 69 12" fill="none" xmlns="http://www.w3.org/2000/svg">
<path d="M0 11.8297V0.231445H5.09006C6.22262 0.231445 7.11833 0.515289 7.77289 1.07861C8.43176 1.64193 8.75904 2.4629 8.75904 3.53714C8.75904 4.3843 8.44898 5.10919 7.82457 5.70745C8.24228 5.92579 8.57387 6.26204 8.82794 6.72492C9.0777 7.18344 9.20259 7.72492 9.20259 8.34501C9.20259 9.44109 8.86239 10.297 8.17769 10.9127C7.49298 11.5284 6.56713 11.8341 5.39581 11.8341H0V11.8297ZM4.75417 2.88648H2.94982V4.63758H4.72402C5.40442 4.63758 5.74893 4.34937 5.74893 3.76858C5.74893 3.18779 5.41734 2.88648 4.75417 2.88648ZM5.02977 7.18344H2.94982V9.18344H5.04269C5.80921 9.18344 6.18817 8.85157 6.18817 8.19217C6.18817 7.53278 5.8006 7.18344 5.02547 7.18344H5.02977Z" fill="#24CE7B"/>
<path d="M20.3216 0.231445L15.9937 7.58082V11.8297H13.0439V7.58082L8.70312 0.231445H12.1266L14.5123 4.60264L16.898 0.231445H20.3216Z" fill="#24CE7B"/>
<path d="M22.9535 11.8297V0.231445H28.0436C29.1761 0.231445 30.0719 0.515289 30.7264 1.07861C31.3853 1.64193 31.7126 2.4629 31.7126 3.53714C31.7126 4.3843 31.4025 5.10919 30.7781 5.70745C31.1958 5.92579 31.5317 6.26204 31.7815 6.72492C32.0312 7.18344 32.1561 7.72492 32.1561 8.34501C32.1561 9.44109 31.8159 10.297 31.1312 10.9127C30.4465 11.5284 29.5206 11.8341 28.3493 11.8341H22.9492L22.9535 11.8297ZM27.712 2.88211H25.9077V4.63321H27.6819C28.3666 4.63321 28.7068 4.345 28.7068 3.76421C28.7068 3.18342 28.3752 2.88211 27.712 2.88211ZM27.9876 7.17907H25.9077V9.17908H28.0048C28.7714 9.17908 29.1503 8.8472 29.1503 8.18781C29.1503 7.52842 28.7627 7.17907 27.9876 7.17907Z" fill="#24CE7B"/>
<path d="M40.5051 0.231445V2.88648H35.9619V4.62448H39.8462V7.21401H35.9619V9.18344H40.6386L39.2433 11.8341H33.0078V0.231445H40.5008H40.5051Z" fill="#24CE7B"/>
<path d="M46.3711 0L52.5937 11.8297H49.1831L48.619 10.6682H44.1059L43.5418 11.8297H40.1484L46.3711 0ZM46.3711 6.04806L45.2385 8.35811H47.4864L46.3711 6.04806Z" fill="#24CE7B"/>
<path d="M59.9823 0.231445V2.88648H56.4209V11.8297H53.4711V2.88648H49.8926V0.231445H59.9866H59.9823Z" fill="#24CE7B"/>
<path d="M68.8326 3.82961L65.8225 3.98245C65.8225 3.5676 65.7019 3.24445 65.465 3.00428C65.2239 2.76847 64.8923 2.6462 64.4617 2.6462C64.0956 2.6462 63.8028 2.7379 63.5832 2.91694C63.3636 3.09598 63.2516 3.34926 63.2516 3.66804C63.2516 3.95625 63.3808 4.17896 63.6349 4.33616C63.9105 4.48027 64.4143 4.64621 65.1464 4.83398C66.4813 5.19643 67.4589 5.63748 68.0747 6.1615C68.6905 6.68551 69.0005 7.40604 69.0005 8.32308C69.0005 9.54142 68.5957 10.4628 67.7904 11.0829C66.9766 11.6943 65.9473 11.9999 64.7028 11.9999C63.286 11.9999 62.1406 11.6593 61.2621 10.9781C60.3965 10.2881 59.9659 9.31871 59.9788 8.07853L62.9889 7.92133C62.9803 8.36674 63.1353 8.72482 63.454 8.99994C63.777 9.27505 64.1904 9.41042 64.6985 9.41042C65.5555 9.41042 65.9818 9.10037 65.9818 8.48028C65.9818 8.20954 65.8354 7.98246 65.5382 7.79032C65.2411 7.59818 64.7416 7.41041 64.0397 7.22264C62.92 6.94316 62.0329 6.58508 61.3783 6.15276C60.6118 5.64621 60.2329 4.85145 60.2329 3.76411C60.2329 2.67677 60.5903 1.8034 61.3051 1.11344C62.0286 0.410381 63.0578 0.0610352 64.3928 0.0610352C65.7277 0.0610352 66.7871 0.397281 67.6053 1.06977C68.4019 1.73353 68.8067 2.65056 68.8283 3.82961H68.8326Z" fill="#24CE7B"/>
</svg>
