<svg width="28" height="28" viewBox="0 0 28 28" fill="none" xmlns="http://www.w3.org/2000/svg">
<path d="M14.3874 5.25C9.34048 5.25 5.25 8.50119 5.25 12.5136C5.25 15.0008 6.82262 17.1952 9.21779 18.5057L8.55696 22.0469C8.5235 22.2226 8.71868 22.3536 8.86925 22.2532L12.7952 19.6685C12.7952 19.6685 13.8436 19.78 14.3874 19.78C19.4342 19.78 23.5247 16.5288 23.5247 12.5164C23.5247 8.50398 19.4342 5.25 14.3874 5.25Z" fill="#381F1F"/>
<path d="M10.6855 10.4922H8.05048C7.80232 10.4922 7.60156 10.6929 7.60156 10.9439C7.60156 11.1948 7.80232 11.3956 8.05048 11.3956H8.9065V14.5743C8.9065 14.6886 8.9539 14.8029 9.03476 14.8866C9.11563 14.9675 9.22716 15.0149 9.34148 15.0149H9.43628C9.55061 15.0149 9.66214 14.9675 9.743 14.8866C9.82386 14.8029 9.87126 14.6914 9.87126 14.5743V11.3956H10.6799C10.928 11.3956 11.1288 11.1921 11.1288 10.9439C11.1288 10.6957 10.928 10.4922 10.6799 10.4922H10.6855Z" fill="#F7E14C"/>
<path d="M16.8507 14.1661H15.6266V10.9204C15.6266 10.65 15.4091 10.4297 15.1414 10.4297C14.8737 10.4297 14.6562 10.6472 14.6562 10.9204V14.5759C14.6562 14.8018 14.8375 14.9858 15.0633 14.9858H16.8535C17.0793 14.9858 17.2606 14.8018 17.2606 14.5759C17.2606 14.3501 17.0793 14.1661 16.8535 14.1661H16.8507Z" fill="#F7E14C"/>
<path d="M20.7735 14.3138L19.41 12.507L20.6425 11.2634C20.8098 11.0961 20.8098 10.8228 20.6425 10.6555C20.4752 10.4882 20.2047 10.4882 20.0374 10.6555L18.5094 12.1947V10.9204C18.5094 10.65 18.2919 10.4297 18.0242 10.4297C17.7566 10.4297 17.5391 10.6472 17.5391 10.9204V14.5285C17.5391 14.799 17.7566 15.0193 18.0242 15.0193C18.2919 15.0193 18.5094 14.799 18.5094 14.5285V13.416L18.7854 13.1372L20.0764 14.8436C20.2186 15.036 20.4919 15.075 20.6843 14.9301C20.8767 14.7851 20.9157 14.509 20.7707 14.3166L20.7735 14.3138Z" fill="#F7E14C"/>
<path d="M14.3575 14.4337L13.0442 10.8145H13.0386C12.955 10.5914 12.7124 10.4297 12.4224 10.4297C12.3527 10.4297 12.2802 10.4381 12.2133 10.4604C12.1492 10.4799 12.0878 10.5078 12.032 10.544C11.9791 10.5775 11.9317 10.6221 11.8898 10.6695C11.862 10.7029 11.8396 10.7392 11.8229 10.7754C11.8062 10.8089 11.7421 10.9929 11.7225 11.0515L11.7002 11.1128L11.6723 11.1853L11.6417 11.269L11.6082 11.361L11.5692 11.4642L11.5274 11.5757L11.4827 11.6928L11.4381 11.8183L11.3907 11.9493L11.3405 12.0832L11.2903 12.2226L11.2374 12.3648L11.1844 12.507L11.1314 12.652L11.0784 12.797L11.0255 12.942L10.9725 13.0842L10.9195 13.2236L10.8693 13.3602L10.8191 13.4941L10.7717 13.6223L10.7271 13.745L10.6853 13.8593L10.6462 13.9653L10.61 14.0629L10.5765 14.1521L10.5486 14.2302L10.5236 14.2971L10.504 14.3529L10.4873 14.3947L10.4762 14.4226L10.4706 14.4365C10.3897 14.6652 10.5096 14.9161 10.7355 14.997C10.9613 15.0778 11.2123 14.9579 11.2903 14.7293L11.5134 14.088H13.3091L13.5322 14.7293C13.613 14.9579 13.8612 15.0778 14.087 14.997C14.3129 14.9161 14.4328 14.6652 14.3547 14.4365L14.3575 14.4337ZM11.8006 13.2626L12.4029 11.5283C12.4029 11.5283 12.4168 11.5283 12.4224 11.5283L13.0247 13.2626H11.7978H11.8006Z" fill="#F7E14C"/>
</svg>
