<svg width="20" height="20" viewBox="0 0 20 20" fill="none" xmlns="http://www.w3.org/2000/svg">
<path d="M17.5 10H2.5M10 17.5C8.51664 17.5 7.0666 17.0601 5.83323 16.236C4.59986 15.4119 3.63856 14.2406 3.07091 12.8701C2.50325 11.4997 2.35472 9.99168 2.64411 8.53683C2.9335 7.08197 3.64781 5.7456 4.6967 4.6967C5.7456 3.64781 7.08197 2.9335 8.53683 2.64411C9.99168 2.35472 11.4997 2.50325 12.8701 3.07091C14.2406 3.63856 15.4119 4.59986 16.236 5.83323C17.0601 7.0666 17.5 8.51664 17.5 10C17.5 11.9891 16.7098 13.8968 15.3033 15.3033C13.8968 16.7098 11.9891 17.5 10 17.5V17.5ZM13.3333 10C13.3333 5.83334 11.8417 2.5 10 2.5C8.15834 2.5 6.66667 5.83334 6.66667 10C6.66667 14.1667 8.15834 17.5 10 17.5C11.8417 17.5 13.3333 14.1667 13.3333 10Z" stroke="#222222" stroke-linecap="round" stroke-linejoin="round"/>
</svg>
