<svg width="28" height="24" viewBox="0 0 28 24" fill="none" xmlns="http://www.w3.org/2000/svg">
<g clip-path="url(#clip0_1_17780)">
<path d="M1.41767 8.28266C2.19926 8.28266 2.83534 7.68403 2.83534 6.94846C2.83534 6.21289 2.19926 5.61426 1.41767 5.61426C0.63608 5.61426 0 6.21289 0 6.94846C0 7.68403 0.63608 8.28266 1.41767 8.28266Z" fill="url(#paint0_linear_1_17780)"/>
<path d="M26.5778 8.28266C27.3594 8.28266 27.9955 7.68403 27.9955 6.94846C27.9955 6.21289 27.3594 5.61426 26.5778 5.61426C25.7962 5.61426 25.1602 6.21289 25.1602 6.94846C25.1602 7.68403 25.7962 8.28266 26.5778 8.28266Z" fill="url(#paint1_linear_1_17780)"/>
<path d="M13.8903 2.66841C14.6719 2.66841 15.308 2.06977 15.308 1.3342C15.308 0.598631 14.6719 0 13.8903 0C13.1087 0 12.4727 0.598631 12.4727 1.3342C12.4727 2.06977 13.1087 2.66841 13.8903 2.66841Z" fill="url(#paint2_linear_1_17780)"/>
<path d="M5.20057 23.9998H22.7988L25.6341 10.0318L19.0197 13.4553L14.0018 3.69336L8.98379 13.4553L2.36523 10.0318L5.20057 23.9998ZM5.45417 21.3197H22.5452V22.0122H5.45417V21.3197Z" fill="url(#paint3_linear_1_17780)"/>
</g>
<defs>
<linearGradient id="paint0_linear_1_17780" x1="0.08612" y1="6.06789" x2="2.99572" y2="6.20929" gradientUnits="userSpaceOnUse">
<stop stop-color="#13E880"/>
<stop offset="1" stop-color="#80E8FF"/>
</linearGradient>
<linearGradient id="paint1_linear_1_17780" x1="25.2463" y1="6.06789" x2="28.1559" y2="6.20929" gradientUnits="userSpaceOnUse">
<stop stop-color="#13E880"/>
<stop offset="1" stop-color="#80E8FF"/>
</linearGradient>
<linearGradient id="paint2_linear_1_17780" x1="12.5588" y1="0.45363" x2="15.4684" y2="0.595032" gradientUnits="userSpaceOnUse">
<stop stop-color="#13E880"/>
<stop offset="1" stop-color="#80E8FF"/>
</linearGradient>
<linearGradient id="paint3_linear_1_17780" x1="3.072" y1="7.14547" x2="26.9412" y2="8.39644" gradientUnits="userSpaceOnUse">
<stop stop-color="#13E880"/>
<stop offset="1" stop-color="#80E8FF"/>
</linearGradient>
<clipPath id="clip0_1_17780">
<rect width="28" height="24" fill="white"/>
</clipPath>
</defs>
</svg>
