<svg width="48" height="48" viewBox="0 0 48 48" fill="none" xmlns="http://www.w3.org/2000/svg">
<path d="M24 48C37.2549 48 48 37.2549 48 24C48 10.7452 37.2549 0 24 0C10.7452 0 0 10.7452 0 24C0 37.2549 10.7452 48 24 48Z" fill="#DDDDDD"/>
<path d="M24.0002 27.427C28.734 27.427 32.5716 23.5895 32.5716 18.8556C32.5716 14.1217 28.734 10.2842 24.0002 10.2842C19.2663 10.2842 15.4287 14.1217 15.4287 18.8556C15.4287 23.5895 19.2663 27.427 24.0002 27.427Z" fill="white"/>
<mask id="mask0_191_31975" style="mask-type:alpha" maskUnits="userSpaceOnUse" x="0" y="0" width="48" height="48">
<path d="M24 48C37.2549 48 48 37.2549 48 24C48 10.7452 37.2549 0 24 0C10.7452 0 0 10.7452 0 24C0 37.2549 10.7452 48 24 48Z" fill="#F0EFEF"/>
</mask>
<g mask="url(#mask0_191_31975)">
<path d="M42.8578 42.8726C37.5806 46.095 31.059 47.9993 24.0006 47.9993C16.9422 47.9993 10.4206 46.095 5.14355 42.8726C6.19446 39.5933 8.46763 36.6628 11.6532 34.5054C15.1379 32.1456 19.5001 30.8564 24.0006 30.8564C28.5012 30.8564 32.8634 32.1456 36.3481 34.5054C39.5337 36.6628 41.8066 39.5933 42.8578 42.8726Z" fill="white"/>
</g>
</svg>
