<svg width="18" height="19" viewBox="0 0 18 19" fill="none" xmlns="http://www.w3.org/2000/svg">
<path d="M0.473167 17.0537C0.182205 17.3485 0.182205 17.8265 0.473167 18.1213C0.76413 18.4161 1.23587 18.4161 1.52684 18.1213L0.473167 17.0537ZM17.5268 1.90966C17.8178 1.61485 17.8178 1.13686 17.5268 0.842052C17.2359 0.54724 16.7641 0.54724 16.4732 0.842052L17.5268 1.90966ZM16.4732 0.842052L0.473167 17.0537L1.52684 18.1213L17.5268 1.90966L16.4732 0.842052Z" fill="#1D1F28"/>
<path d="M1.52683 0.837324C1.23587 0.542513 0.764129 0.542513 0.473166 0.837324C0.182204 1.13214 0.182204 1.61012 0.473166 1.90493L1.52683 0.837324ZM16.4732 18.1166C16.7641 18.4114 17.2359 18.4114 17.5268 18.1166C17.8178 17.8218 17.8178 17.3438 17.5268 17.049L16.4732 18.1166ZM17.5268 17.049L1.52683 0.837324L0.473166 1.90493L16.4732 18.1166L17.5268 17.049Z" fill="#1D1F28"/>
</svg>
