<svg width="20" height="20" viewBox="0 0 20 20" fill="none" xmlns="http://www.w3.org/2000/svg">
<path fill-rule="evenodd" clip-rule="evenodd" d="M1.75 4.17188C1.75 3.75766 2.08579 3.42188 2.5 3.42188H8.33333C8.53225 3.42188 8.72301 3.50089 8.86366 3.64154L10.3107 5.08854H17.5C17.9142 5.08854 18.25 5.42433 18.25 5.83854V13.8385C18.25 15.3573 17.0188 16.5885 15.5 16.5885H4.5C2.98122 16.5885 1.75 15.3573 1.75 13.8385V4.17188ZM3.25 4.92188V13.8385C3.25 14.5289 3.80965 15.0885 4.5 15.0885H15.5C16.1904 15.0885 16.75 14.5289 16.75 13.8385V6.58854H10C9.80109 6.58854 9.61032 6.50952 9.46967 6.36887L8.02267 4.92188H3.25Z" fill="#24CE7B"/>
<path fill-rule="evenodd" clip-rule="evenodd" d="M9.16927 12.4219C9.12325 12.4219 9.08594 12.4592 9.08594 12.5052C9.08594 12.5512 9.12325 12.5885 9.16927 12.5885C9.21529 12.5885 9.2526 12.5512 9.2526 12.5052C9.2526 12.4592 9.21529 12.4219 9.16927 12.4219ZM7.58594 12.5052C7.58594 11.6308 8.29482 10.9219 9.16927 10.9219C10.0437 10.9219 10.7526 11.6308 10.7526 12.5052C10.7526 13.3797 10.0437 14.0885 9.16927 14.0885C8.29482 14.0885 7.58594 13.3797 7.58594 12.5052Z" fill="#24CE7B"/>
<path fill-rule="evenodd" clip-rule="evenodd" d="M10 7.58594C10.4142 7.58594 10.75 7.92172 10.75 8.33594V12.5026C10.75 12.9168 10.4142 13.2526 10 13.2526C9.58579 13.2526 9.25 12.9168 9.25 12.5026V8.33594C9.25 7.92172 9.58579 7.58594 10 7.58594Z" fill="#24CE7B"/>
<path fill-rule="evenodd" clip-rule="evenodd" d="M9.46783 7.80561C9.76072 7.51271 10.2356 7.51271 10.5285 7.80561L12.1952 9.47227C12.488 9.76517 12.4881 10.24 12.1952 10.5329C11.9023 10.8258 11.4274 10.8258 11.1345 10.5329L9.46783 8.86627C9.17494 8.57337 9.17494 8.0985 9.46783 7.80561Z" fill="#24CE7B"/>
</svg>
