<svg width="17" height="16" viewBox="0 0 17 16" fill="none" xmlns="http://www.w3.org/2000/svg">
<path d="M10.5091 5.78475H15.4545C15.8644 5.78475 16.2575 5.95033 16.5473 6.24506C16.8372 6.53978 17 6.93952 17 7.35633V9.00963C17.0002 9.215 16.9608 9.41843 16.8841 9.6084L14.4925 15.5136C14.4342 15.6576 14.3351 15.7807 14.2078 15.8673C14.0805 15.9539 13.9309 16.0001 13.7777 16H0.772727C0.567787 16 0.371241 15.9172 0.226327 15.7698C0.0814121 15.6225 0 15.4226 0 15.2142V7.35633C0 7.14792 0.0814121 6.94806 0.226327 6.80069C0.371241 6.65333 0.567787 6.57054 0.772727 6.57054H3.46336C3.58707 6.57057 3.70898 6.5404 3.81884 6.48256C3.9287 6.42472 4.0233 6.3409 4.09468 6.23815L8.30836 0.166367C8.36163 0.0896058 8.44018 0.0347952 8.52978 0.0118736C8.61937 -0.0110481 8.71408 -0.000563287 8.79673 0.0414268L10.1985 0.754137C10.5929 0.95464 10.9081 1.28636 11.0915 1.69419C11.275 2.10201 11.3157 2.56139 11.2069 2.99599L10.5091 5.78475ZM4.63636 7.81837V14.4284H13.26L15.4545 9.00963V7.35633H10.5091C10.2737 7.35629 10.0415 7.30159 9.83004 7.19639C9.61862 7.09119 9.43362 6.93827 9.28917 6.7493C9.14471 6.56033 9.0446 6.3403 8.99649 6.106C8.94838 5.8717 8.95352 5.62933 9.01154 5.39736L9.70932 2.60938C9.73116 2.52242 9.72305 2.43047 9.68636 2.34884C9.64967 2.26721 9.58659 2.20081 9.50764 2.1607L8.99686 1.90139L5.35732 7.14417C5.16414 7.42233 4.91686 7.65021 4.63636 7.81837ZM3.09091 8.14212H1.54545V14.4284H3.09091V8.14212Z" fill="#24CE7B"/>
</svg>
