<svg width="695" height="48" viewBox="0 0 695 48" fill="none" xmlns="http://www.w3.org/2000/svg">
<path fill-rule="evenodd" clip-rule="evenodd" d="M142.896 0V48H140.896V0H142.896ZM34.3396 45.8182V2.18182H32.3396V45.8182H34.3396ZM28.9564 13.9636V34.0364H26.9564V13.9636H28.9564ZM23.5631 28.9745V19.0255H21.5631V28.9745H23.5631ZM0 19.2V28.8H2V19.2H0ZM7.39327 25.7455V22.2545H5.39327V25.7455H7.39327ZM12.7765 22.6909V25.3091H10.7765V22.6909H12.7765ZM61.0358 25.3091V22.6909H59.0358V25.3091H61.0358ZM18.1698 23.1273V24.8727H16.1698V23.1273H18.1698ZM39.7329 15.7091V32.2909H37.7329V15.7091H39.7329ZM45.1262 28.3636V19.6364H43.1262V28.3636H45.1262ZM50.5094 15.7091V32.2909H48.5094V15.7091H50.5094ZM55.9027 26.6182V21.3818H53.9027V26.6182H55.9027ZM66.6893 21.3818V26.6182H64.6893V21.3818H66.6893ZM72.0725 31.8545V16.1455H70.0725V31.8545H72.0725ZM110.066 21.5782V26.4218H108.066V21.5782H110.066ZM115.719 28.8509V19.1491H113.719V28.8509H115.719ZM119.102 24.8073V23.1927H121.102V24.8073H119.102ZM77.4658 38.4V9.6H75.4658V38.4H77.4658ZM82.8591 18.3273V29.6727H80.8591V18.3273H82.8591ZM88.2423 26.6182V21.3818H86.2423V26.6182H88.2423ZM93.6356 22.6909V25.3091H91.6356V22.6909H93.6356ZM126.726 28.8509V19.1491H124.726V28.8509H126.726ZM132.109 9.45455V38.5455H130.109V9.45455H132.109ZM137.502 41.4545V6.54545H135.502V41.4545H137.502ZM148.279 41.4545V6.54545H146.279V41.4545H148.279ZM151.672 36.3636V11.6364H153.672V36.3636H151.672ZM99.0289 31.8545V16.1455H97.0289V31.8545H99.0289ZM104.412 20.5091V27.4909H102.412V20.5091H104.412ZM158.096 15.1127V32.8873H160.096V15.1127H158.096ZM163.489 29.8182V18.1818H165.489V29.8182H163.489ZM170.872 25.3091V22.6909H168.872V25.3091H170.872ZM219.132 19.6364V28.3636H217.132V19.6364H219.132ZM176.266 24.8727V23.1273H174.266V24.8727H176.266ZM337.975 25.3091V22.6909H339.975V25.3091H337.975ZM331.551 18.3273V29.6727H333.551V18.3273H331.551ZM320.775 25.3091V22.6909H322.775V25.3091H320.775ZM181.659 28.9745V19.0255H179.659V28.9745H181.659ZM187.052 13.9636V34.0364H185.052V13.9636H187.052ZM192.436 29.6727V18.3273H190.436V29.6727H192.436ZM197.829 15.7091V32.2909H195.829V15.7091H197.829ZM203.222 38.4V9.6H201.222V38.4H203.222ZM208.605 11.3455V36.6545H206.605V11.3455H208.605ZM213.999 34.0364V13.9636H211.999V34.0364H213.999ZM224.785 11.3455V36.6545H222.785V11.3455H224.785ZM230.168 41.4545V6.54545H228.168V41.4545H230.168ZM268.162 22.6909V25.3091H266.162V22.6909H268.162ZM273.815 26.6182V21.3818H271.815V26.6182H273.815ZM277.198 24.4364V23.5636H279.198V24.4364H277.198ZM343.999 23.5636V24.4364H345.999V23.5636H343.999ZM327.988 21.3818V26.6182H325.988V21.3818H327.988ZM314.981 23.5636V24.4364H316.981V23.5636H314.981ZM235.562 0V48H233.562V0H235.562ZM240.955 36.6545V11.3455H238.955V36.6545H240.955ZM246.338 16.1455V31.8545H244.338V16.1455H246.338ZM251.732 27.4909V20.5091H249.732V27.4909H251.732ZM284.822 21.3818V26.6182H282.822V21.3818H284.822ZM290.205 31.8545V16.1455H288.205V31.8545H290.205ZM295.598 20.9455V27.0545H293.598V20.9455H295.598ZM300.991 29.6727V18.3273H298.991V29.6727H300.991ZM306.375 21.3818V26.6182H304.375V21.3818H306.375ZM311.768 25.3091V22.6909H309.768V25.3091H311.768ZM257.125 16.1455V31.8545H255.125V16.1455H257.125ZM262.508 27.4909V20.5091H260.508V27.4909H262.508ZM349 28.8V19.2H351V28.8H349ZM356.393 25.7455V22.2545H354.393V25.7455H356.393ZM361.777 22.6909V25.3091H359.777V22.6909H361.777ZM410.036 25.3091V22.6909H408.036V25.3091H410.036ZM367.17 23.1273V24.8727H365.17V23.1273H367.17ZM372.563 28.9745V19.0255H370.563V28.9745H372.563ZM377.956 13.9636V34.0364H375.956V13.9636H377.956ZM383.34 45.8182V2.18182H381.34V45.8182H383.34ZM388.733 15.7091V32.2909H386.733V15.7091H388.733ZM394.126 28.3636V19.6364H392.126V28.3636H394.126ZM399.509 15.7091V32.2909H397.509V15.7091H399.509ZM404.903 26.6182V21.3818H402.903V26.6182H404.903ZM415.689 21.3818V26.6182H413.689V21.3818H415.689ZM421.073 31.8545V16.1455H419.073V31.8545H421.073ZM459.066 21.5782V26.4218H457.066V21.5782H459.066ZM464.719 28.8509V19.1491H462.719V28.8509H464.719ZM468.102 24.8073V23.1927H470.102V24.8073H468.102ZM426.466 38.4V9.6H424.466V38.4H426.466ZM431.859 18.3273V29.6727H429.859V18.3273H431.859ZM437.242 26.6182V21.3818H435.242V26.6182H437.242ZM442.636 22.6909V25.3091H440.636V22.6909H442.636ZM475.726 28.8509V19.1491H473.726V28.8509H475.726ZM481.109 9.45455V38.5455H479.109V9.45455H481.109ZM486.502 41.4545V6.54545H484.502V41.4545H486.502ZM491.896 0V48H489.896V0H491.896ZM497.279 41.4545V6.54545H495.279V41.4545H497.279ZM500.672 36.3636V11.6364H502.672V36.3636H500.672ZM448.029 31.8545V16.1455H446.029V31.8545H448.029ZM453.412 20.5091V27.4909H451.412V20.5091H453.412ZM507.096 15.1127V32.8873H509.096V15.1127H507.096ZM512.489 29.8182V18.1818H514.489V29.8182H512.489ZM519.872 25.3091V22.6909H517.872V25.3091H519.872ZM568.132 19.6364V28.3636H566.132V19.6364H568.132ZM525.266 24.8727V23.1273H523.266V24.8727H525.266ZM686.975 25.3091V22.6909H688.975V25.3091H686.975ZM680.551 18.3273V29.6727H682.551V18.3273H680.551ZM669.775 25.3091V22.6909H671.775V25.3091H669.775ZM530.659 28.9745V19.0255H528.659V28.9745H530.659ZM536.052 13.9636V34.0364H534.052V13.9636H536.052ZM541.436 29.6727V18.3273H539.436V29.6727H541.436ZM546.829 15.7091V32.2909H544.829V15.7091H546.829ZM552.222 38.4V9.6H550.222V38.4H552.222ZM557.605 11.3455V36.6545H555.605V11.3455H557.605ZM562.999 34.0364V13.9636H560.999V34.0364H562.999ZM573.785 11.3455V36.6545H571.785V11.3455H573.785ZM579.168 41.4545V6.54545H577.168V41.4545H579.168ZM617.161 22.6909V25.3091H615.161V22.6909H617.161ZM622.815 26.6182V21.3818H620.815V26.6182H622.815ZM626.198 24.4364V23.5636H628.198V24.4364H626.198ZM692.999 23.5636V24.4364H694.999V23.5636H692.999ZM676.988 21.3818V26.6182H674.988V21.3818H676.988ZM663.981 23.5636V24.4364H665.981V23.5636H663.981ZM584.562 0V48H582.562V0H584.562ZM589.955 36.6545V11.3455H587.955V36.6545H589.955ZM595.338 16.1455V31.8545H593.338V16.1455H595.338ZM600.732 27.4909V20.5091H598.732V27.4909H600.732ZM633.822 21.3818V26.6182H631.822V21.3818H633.822ZM639.205 31.8545V16.1455H637.205V31.8545H639.205ZM644.598 20.9455V27.0545H642.598V20.9455H644.598ZM649.991 29.6727V18.3273H647.991V29.6727H649.991ZM655.375 21.3818V26.6182H653.375V21.3818H655.375ZM660.768 25.3091V22.6909H658.768V25.3091H660.768ZM606.125 16.1455V31.8545H604.125V16.1455H606.125ZM611.508 27.4909V20.5091H609.508V27.4909H611.508Z" fill="url(#paint0_linear_91_9725)"/>
<defs>
<linearGradient id="paint0_linear_91_9725" x1="611.166" y1="42.7237" x2="585.673" y2="-81.0702" gradientUnits="userSpaceOnUse">
<stop stop-color="#9713E8"/>
<stop offset="1" stop-color="#FF80D4"/>
</linearGradient>
</defs>
</svg>
