<svg width="28" height="28" viewBox="0 0 28 28" fill="none" xmlns="http://www.w3.org/2000/svg">
<path d="M22.3832 19.1835C22.069 19.8866 21.6971 20.5338 21.2662 21.1288C20.6789 21.94 20.198 22.5015 19.8273 22.8133C19.2528 23.3251 18.6373 23.5872 17.9781 23.6022C17.5049 23.6022 16.9342 23.4717 16.2699 23.2071C15.6034 22.9438 14.9909 22.8133 14.4309 22.8133C13.8435 22.8133 13.2136 22.9438 12.5398 23.2071C11.865 23.4717 11.3214 23.6096 10.9058 23.6233C10.2737 23.6494 9.6436 23.3798 9.01469 22.8133C8.61329 22.4742 8.11122 21.8928 7.50976 21.0692C6.86445 20.1897 6.33391 19.1698 5.91827 18.0071C5.47314 16.7512 5.25 15.535 5.25 14.3576C5.25 13.0089 5.55086 11.8457 6.15347 10.8709C6.62707 10.0879 7.25713 9.47024 8.04569 9.01682C8.83426 8.5634 9.6863 8.33234 10.6039 8.31756C11.1059 8.31756 11.7643 8.46799 12.5825 8.76365C13.3984 9.0603 13.9223 9.21073 14.152 9.21073C14.3237 9.21073 14.9057 9.03483 15.8922 8.68414C16.8252 8.35892 17.6126 8.22427 18.2577 8.27731C20.0056 8.41396 21.3188 9.08141 22.1921 10.2839C20.6289 11.2014 19.8556 12.4865 19.871 14.1351C19.8851 15.4192 20.366 16.4878 21.3111 17.3363C21.7394 17.7301 22.2178 18.0344 22.75 18.2506C22.6346 18.5748 22.5128 18.8853 22.3832 19.1835ZM18.3744 3.90261C18.3744 4.90909 17.9948 5.84884 17.2381 6.71866C16.325 7.75271 15.2206 8.35023 14.023 8.25594C14.0077 8.1352 13.9988 8.00811 13.9988 7.87457C13.9988 6.90835 14.4331 5.87431 15.2042 5.02883C15.5892 4.60076 16.0788 4.24482 16.6726 3.96088C17.2651 3.68117 17.8255 3.52649 18.3526 3.5C18.3679 3.63455 18.3744 3.76911 18.3744 3.9026V3.90261Z" fill="black"/>
</svg>
