<svg width="34" height="34" viewBox="0 0 34 34" fill="none" xmlns="http://www.w3.org/2000/svg">
<g clip-path="url(#clip0_1_336)">
<path d="M27.5254 12.7041C27.5254 12.7041 27.3157 11.2236 26.6698 10.5735C25.852 9.71793 24.9377 9.71373 24.5183 9.6634C21.5153 9.44531 17.0067 9.44531 17.0067 9.44531H16.9983C16.9983 9.44531 12.4896 9.44531 9.48668 9.6634C9.06727 9.71373 8.15296 9.71793 7.33512 10.5735C6.68923 11.2236 6.48372 12.7041 6.48372 12.7041C6.48372 12.7041 6.26562 14.4447 6.26562 16.181V17.8083C6.26562 19.5447 6.47952 21.2852 6.47952 21.2852C6.47952 21.2852 6.68923 22.7657 7.33092 23.4158C8.14877 24.2714 9.22245 24.242 9.70058 24.3343C11.4201 24.4979 17.0025 24.5482 17.0025 24.5482C17.0025 24.5482 21.5153 24.5398 24.5183 24.3259C24.9377 24.2756 25.852 24.2714 26.6698 23.4158C27.3157 22.7657 27.5254 21.2852 27.5254 21.2852C27.5254 21.2852 27.7393 19.5488 27.7393 17.8083V16.181C27.7393 14.4447 27.5254 12.7041 27.5254 12.7041ZM14.7838 19.7837V13.7484L20.5842 16.7766L14.7838 19.7837Z" fill="#ACACAC"/>
</g>
<defs>
<clipPath id="clip0_1_336">
<rect width="21.4737" height="21.4737" fill="white" transform="translate(6.26562 6.26562)"/>
</clipPath>
</defs>
</svg>
