<svg width="17" height="16" viewBox="0 0 17 16" fill="none" xmlns="http://www.w3.org/2000/svg">
<path d="M10.5091 10.2152H15.4545C15.8644 10.2152 16.2575 10.0497 16.5473 9.75494C16.8372 9.46022 17 9.06048 17 8.64367V6.99037C17.0002 6.785 16.9608 6.58157 16.8841 6.3916L14.4925 0.486403C14.4342 0.342433 14.3351 0.219336 14.2078 0.132734C14.0805 0.046134 13.9309 -6.67572e-05 13.7777 0H0.772727C0.567787 0 0.371241 0.0827875 0.226327 0.230152C0.0814121 0.377516 0 0.577385 0 0.785789V8.64367C0 8.85208 0.0814121 9.05194 0.226327 9.19931C0.371241 9.34667 0.567787 9.42946 0.772727 9.42946H3.46336C3.58707 9.42943 3.70898 9.4596 3.81884 9.51744C3.9287 9.57528 4.0233 9.6591 4.09468 9.76185L8.30836 15.8336C8.36163 15.9104 8.44018 15.9652 8.52978 15.9881C8.61937 16.011 8.71408 16.0006 8.79673 15.9586L10.1985 15.2459C10.5929 15.0454 10.9081 14.7136 11.0915 14.3058C11.275 13.898 11.3157 13.4386 11.2069 13.004L10.5091 10.2152ZM4.63636 8.18163V1.57158H13.26L15.4545 6.99037V8.64367H10.5091C10.2737 8.64371 10.0415 8.69841 9.83004 8.80361C9.61862 8.90881 9.43362 9.06173 9.28917 9.2507C9.14471 9.43967 9.0446 9.6597 8.99649 9.894C8.94838 10.1283 8.95352 10.3707 9.01154 10.6026L9.70932 13.3906C9.73116 13.4776 9.72305 13.5695 9.68636 13.6512C9.64967 13.7328 9.58659 13.7992 9.50764 13.8393L8.99686 14.0986L5.35732 8.85583C5.16414 8.57767 4.91686 8.34979 4.63636 8.18163ZM3.09091 7.85788H1.54545V1.57158H3.09091V7.85788Z" fill="#FF8383"/>
</svg>
