<svg width="30" height="30" viewBox="0 0 30 30" fill="none" xmlns="http://www.w3.org/2000/svg">
<path fill-rule="evenodd" clip-rule="evenodd" d="M14.9918 6.19531C10.1336 6.19531 6.19531 10.1336 6.19531 14.9918C6.19531 19.85 10.1336 23.7883 14.9918 23.7883C19.85 23.7883 23.7883 19.85 23.7883 14.9918C23.7883 10.1336 19.85 6.19531 14.9918 6.19531ZM4.69531 14.9918C4.69531 9.30522 9.30522 4.69531 14.9918 4.69531C20.6784 4.69531 25.2883 9.30522 25.2883 14.9918C25.2883 20.6784 20.6784 25.2883 14.9918 25.2883C9.30522 25.2883 4.69531 20.6784 4.69531 14.9918Z" fill="#222222"/>
<path fill-rule="evenodd" clip-rule="evenodd" d="M4.69531 14.9922C4.69531 14.578 5.0311 14.2422 5.44531 14.2422H24.5383C24.9526 14.2422 25.2883 14.578 25.2883 14.9922C25.2883 15.4064 24.9526 15.7422 24.5383 15.7422H5.44531C5.0311 15.7422 4.69531 15.4064 4.69531 14.9922Z" fill="#222222"/>
<path fill-rule="evenodd" clip-rule="evenodd" d="M14.9842 4.69531C15.21 4.69531 15.4237 4.79699 15.5661 4.97213C17.872 7.80773 19.2164 11.3032 19.405 14.9531L18.656 14.9918L19.405 15.0305C19.2164 18.6805 17.872 22.1759 15.5661 25.0115C15.4237 25.1867 15.21 25.2883 14.9842 25.2883C14.7585 25.2883 14.5448 25.1867 14.4023 25.0115C12.0965 22.1759 10.7521 18.6805 10.5635 15.0305C10.5622 15.0047 10.5622 14.9789 10.5635 14.9531C10.7521 11.3032 12.0965 7.80773 14.4023 4.97213C14.5448 4.79699 14.7585 4.69531 14.9842 4.69531ZM17.9049 14.9918C17.7426 11.9934 16.7259 9.11081 14.9842 6.68035C13.2425 9.11081 12.2259 11.9934 12.0635 14.9918C12.2259 17.9902 13.2425 20.8728 14.9842 23.3033C16.7259 20.8728 17.7426 17.9902 17.9049 14.9918Z" fill="#222222"/>
</svg>
