<svg width="20" height="20" viewBox="0 0 20 20" fill="none" xmlns="http://www.w3.org/2000/svg">
<path d="M11.6668 5.83301H9.5835C9.25198 5.83301 8.93403 5.9647 8.69961 6.19912C8.46519 6.43354 8.3335 6.75149 8.3335 7.08301V7.08301C8.3335 7.41453 8.46519 7.73247 8.69961 7.96689C8.93403 8.20131 9.25198 8.33301 9.5835 8.33301H10.4168C10.7483 8.33301 11.0663 8.4647 11.3007 8.69912C11.5351 8.93354 11.6668 9.25149 11.6668 9.58301V9.58301C11.6668 9.91453 11.5351 10.2325 11.3007 10.4669C11.0663 10.7013 10.7483 10.833 10.4168 10.833H8.3335" stroke="#222222" stroke-width="1.1" stroke-linecap="round" stroke-linejoin="round"/>
<path d="M5 17.5H15M16.6667 14.1667H3.33333C3.11232 14.1667 2.90036 14.0789 2.74408 13.9226C2.5878 13.7663 2.5 13.5543 2.5 13.3333V3.33333C2.5 3.11232 2.5878 2.90036 2.74408 2.74408C2.90036 2.5878 3.11232 2.5 3.33333 2.5H16.6667C16.8877 2.5 17.0996 2.5878 17.2559 2.74408C17.4122 2.90036 17.5 3.11232 17.5 3.33333V13.3333C17.5 13.5543 17.4122 13.7663 17.2559 13.9226C17.0996 14.0789 16.8877 14.1667 16.6667 14.1667ZM10 5V5.83333V5ZM10 10.8333V11.6667V10.8333Z" stroke="#222222" stroke-width="1.1" stroke-linecap="round" stroke-linejoin="round"/>
</svg>
