<svg width="30" height="30" viewBox="0 0 30 30" fill="none" xmlns="http://www.w3.org/2000/svg">
<path fill-rule="evenodd" clip-rule="evenodd" d="M14.4437 12.1854C15.3212 10.9147 15.1469 9.19504 14.0322 8.12636C12.902 7.04065 11.1733 6.87508 9.85752 7.7265C9.31732 8.07567 8.89343 8.5779 8.63995 9.16907C8.39011 9.75446 8.32463 10.4021 8.45224 11.0256C8.58037 11.6521 8.89396 12.2255 9.35224 12.6714C9.81924 13.1228 10.4076 13.4284 11.0455 13.5508C11.6878 13.6762 12.3526 13.6132 12.96 13.3695C13.5602 13.1293 14.0763 12.7174 14.4437 12.1854Z" stroke="#444444" stroke-width="1.5" stroke-linecap="round" stroke-linejoin="round"/>
<path fill-rule="evenodd" clip-rule="evenodd" d="M15.5575 22.4715C14.6799 21.2009 14.8542 19.4812 15.9689 18.4125C17.0992 17.3268 18.8278 17.1612 20.1436 18.0126C20.6838 18.3618 21.1077 18.864 21.3612 19.4552C21.611 20.0406 21.6765 20.6882 21.5489 21.3118C21.4208 21.9382 21.1072 22.5116 20.6489 22.9575C20.1819 23.4089 19.5935 23.7145 18.9556 23.8369C18.3145 23.9611 17.6511 23.8977 17.0451 23.6544C16.4436 23.4151 15.9261 23.0036 15.5575 22.4715V22.4715Z" stroke="#444444" stroke-width="1.5" stroke-linecap="round" stroke-linejoin="round"/>
<path d="M15 9.64941C14.5858 9.64941 14.25 9.9852 14.25 10.3994C14.25 10.8136 14.5858 11.1494 15 11.1494V9.64941ZM24 11.1494C24.4142 11.1494 24.75 10.8136 24.75 10.3994C24.75 9.9852 24.4142 9.64941 24 9.64941V11.1494ZM8.38757 11.1494C8.80178 11.1494 9.13757 10.8136 9.13757 10.3994C9.13757 9.9852 8.80178 9.64941 8.38757 9.64941V11.1494ZM6 9.64941C5.58579 9.64941 5.25 9.9852 5.25 10.3994C5.25 10.8136 5.58579 11.1494 6 11.1494V9.64941ZM15 21.4351C15.4142 21.4351 15.75 21.0993 15.75 20.6851C15.75 20.2709 15.4142 19.9351 15 19.9351V21.4351ZM6 19.9351C5.58579 19.9351 5.25 20.2709 5.25 20.6851C5.25 21.0993 5.58579 21.4351 6 21.4351V19.9351ZM21.6124 19.9351C21.1982 19.9351 20.8624 20.2709 20.8624 20.6851C20.8624 21.0993 21.1982 21.4351 21.6124 21.4351V19.9351ZM24 21.4351C24.4142 21.4351 24.75 21.0993 24.75 20.6851C24.75 20.2709 24.4142 19.9351 24 19.9351V21.4351ZM15 11.1494H24V9.64941H15V11.1494ZM8.38757 9.64941H6V11.1494H8.38757V9.64941ZM15 19.9351H6V21.4351H15V19.9351ZM21.6124 21.4351H24V19.9351H21.6124V21.4351Z" fill="#444444"/>
</svg>
