<svg width="20" height="20" viewBox="0 0 20 20" fill="none" xmlns="http://www.w3.org/2000/svg">
<path d="M13.3335 10.833H15.4168C15.7483 10.833 16.0663 10.7013 16.3007 10.4669C16.5351 10.2325 16.6668 9.91453 16.6668 9.58301C16.6668 9.25149 16.5351 8.93354 16.3007 8.69912C16.0663 8.4647 15.7483 8.33301 15.4168 8.33301H14.5835C14.252 8.33301 13.934 8.20131 13.6996 7.96689C13.4652 7.73247 13.3335 7.41453 13.3335 7.08301C13.3335 6.75149 13.4652 6.43354 13.6996 6.19912C13.934 5.9647 14.252 5.83301 14.5835 5.83301H16.6668" stroke="#222222" stroke-width="1.2" stroke-linecap="round" stroke-linejoin="round"/>
<path d="M11.6668 2.5H4.16683C3.94582 2.5 3.73385 2.5878 3.57757 2.74408C3.42129 2.90036 3.3335 3.11232 3.3335 3.33333V17.5L5.2835 16.6667L7.22516 17.5L9.16683 16.6667L11.1085 17.5L13.0502 16.6667L15.0002 17.5V15" stroke="#222222" stroke-width="1.2" stroke-linecap="round" stroke-linejoin="round"/>
<path d="M9.99984 9.16667H6.6665M14.9998 5.83333V5V5.83333ZM14.9998 11.6667V10.8333V11.6667ZM9.99984 12.5H6.6665H9.99984Z" stroke="#222222" stroke-width="1.2" stroke-linecap="round" stroke-linejoin="round"/>
</svg>
