<svg width="34" height="34" viewBox="0 0 34 34" fill="none" xmlns="http://www.w3.org/2000/svg">
<g clip-path="url(#clip0_1_333)">
<path d="M27.7393 17.0025C27.7393 11.0727 22.9323 6.26562 17.0025 6.26562C11.0727 6.26562 6.26562 11.0727 6.26562 17.0025C6.26562 22.3614 10.1919 26.8034 15.3248 27.6089V20.1061H12.5987V17.0025H15.3248V14.637C15.3248 11.9461 16.9278 10.4597 19.3803 10.4597C20.5546 10.4597 21.7837 10.6694 21.7837 10.6694V13.3117H20.4299C19.0962 13.3117 18.6801 14.1394 18.6801 14.9893V17.0025H21.6579L21.1819 20.1061H18.6801V27.6089C23.813 26.8034 27.7393 22.3614 27.7393 17.0025Z" fill="#ACACAC"/>
</g>
<defs>
<clipPath id="clip0_1_333">
<rect width="21.4737" height="21.4737" fill="white" transform="translate(6.26562 6.26562)"/>
</clipPath>
</defs>
</svg>
