<svg width="82" height="82" viewBox="0 0 82 82" fill="none" xmlns="http://www.w3.org/2000/svg">
<path fill-rule="evenodd" clip-rule="evenodd" d="M53.2837 59.5386C48.8929 62.2202 43.7323 63.7655 38.2109 63.7655C22.2173 63.7655 9.25195 50.8001 9.25195 34.8066C9.25195 18.813 22.2173 5.84766 38.2109 5.84766C54.2044 5.84766 67.1698 18.813 67.1698 34.8066C67.1698 42.8237 63.912 50.0799 58.6479 55.3235L71.164 69.7306C72.398 71.151 72.2469 73.3029 70.8264 74.5369C69.406 75.7709 67.2542 75.6198 66.0202 74.1993L53.2837 59.5386ZM47.0018 26.0144C48.1052 27.1178 48.1052 28.9068 47.0018 30.0102L41.9523 35.0597L47.0965 40.204C48.2052 41.3127 48.2052 43.1103 47.0965 44.2191C45.9878 45.3278 44.1901 45.3278 43.0814 44.2191L37.9372 39.0749L33.4161 43.5959C32.3127 44.6993 30.5238 44.6993 29.4204 43.5959C28.317 42.4925 28.3169 40.7035 29.4204 39.6001L33.9414 35.0791L29.43 30.5677C28.3213 29.459 28.3213 27.6614 29.43 26.5526C30.5388 25.4439 32.3364 25.4439 33.4451 26.5526L37.9565 31.064L43.006 26.0144C44.1094 24.911 45.8984 24.911 47.0018 26.0144Z" fill="url(#paint0_linear_443_8142)"/>
<defs>
<linearGradient id="paint0_linear_443_8142" x1="11.1578" y1="17.6668" x2="75.5907" y2="20.3265" gradientUnits="userSpaceOnUse">
<stop stop-color="#13E880"/>
<stop offset="1" stop-color="#80E8FF"/>
</linearGradient>
</defs>
</svg>
