<svg width="34" height="34" viewBox="0 0 34 34" fill="none" xmlns="http://www.w3.org/2000/svg">
<path d="M9.48865 14.0312C9.21844 14.0312 8.98704 14.1298 8.79594 14.3254C8.60336 14.5209 8.50781 14.7583 8.50781 15.036C8.50781 15.3137 8.60336 15.551 8.79594 15.7466C8.98853 15.9422 9.21844 16.0407 9.48865 16.0407C9.75887 16.0407 9.99773 15.9422 10.1933 15.7466C10.3889 15.551 10.4859 15.3137 10.4859 15.036C10.4859 14.7583 10.3889 14.5209 10.1933 14.3254C9.99773 14.1298 9.76335 14.0312 9.48865 14.0312Z" fill="#ACACAC"/>
<path d="M17.8637 14.0156C17.5934 14.0156 17.362 14.1127 17.1709 14.3082C16.9784 14.5038 16.8828 14.7412 16.8828 15.0189C16.8828 15.2965 16.9799 15.5339 17.1709 15.7295C17.362 15.9251 17.5934 16.0221 17.8637 16.0221C18.1339 16.0221 18.3727 15.9236 18.5683 15.7295C18.7639 15.5339 18.8609 15.2965 18.8609 15.0189C18.8609 14.7412 18.7639 14.5038 18.5683 14.3082C18.3727 14.1127 18.1383 14.0156 17.8637 14.0156Z" fill="#ACACAC"/>
<path d="M23.4511 14.0312C23.1809 14.0312 22.9495 14.1298 22.7569 14.3254C22.5658 14.5209 22.4688 14.7583 22.4688 15.036C22.4688 15.3137 22.5658 15.551 22.7569 15.7466C22.9495 15.9422 23.1809 16.0407 23.4511 16.0407C23.7213 16.0407 23.9602 15.9422 24.1557 15.7466C24.3513 15.551 24.4483 15.3137 24.4483 15.036C24.4483 14.7583 24.3498 14.5209 24.1557 14.3254C23.9602 14.1298 23.7258 14.0312 23.4511 14.0312Z" fill="#ACACAC"/>
<path d="M25.9412 6.65625H7.00664C5.55554 6.65625 4.36719 7.8446 4.36719 9.29571V20.0043C4.36719 21.4554 5.55554 22.6438 7.00664 22.6438H14.4413C14.4413 22.6438 15.8775 26.5626 16.4 26.5626C16.9225 26.5626 18.4766 22.6438 18.4766 22.6438H25.9412C27.3938 22.6438 28.5806 21.4554 28.5806 20.0043V9.29571C28.5806 7.8446 27.3923 6.65625 25.9412 6.65625ZM11.4047 16.5423C11.03 16.9648 10.4553 17.1424 9.82823 17.1424C9.26242 17.1424 8.84889 16.9722 8.54284 16.7393H8.52493V17.0409H7.10368V10.8409H8.52493V13.2101H8.54284C8.92801 12.8817 9.43859 12.7697 10.0402 12.7503C10.5553 12.7324 11.0912 13.0548 11.4122 13.4266C11.7317 13.7968 11.9661 14.3776 11.9661 15.0195C11.9661 15.7182 11.781 16.1183 11.4047 16.5408V16.5423ZM14.4562 17.0872H13.0066V13.2504C13.0066 12.3651 12.3065 12.2487 12.3065 12.2487V10.714C12.3065 10.714 14.3383 10.8379 14.4562 13.2997V17.0887V17.0872ZM20.1442 15.9108C20.0218 16.1885 19.8456 16.4363 19.6112 16.6542C19.3813 16.8692 19.1171 17.0349 18.817 17.1499C18.5184 17.2648 18.2019 17.3231 17.869 17.3231C17.5361 17.3231 17.2316 17.2648 16.936 17.1499C16.6389 17.0349 16.3746 16.8692 16.1417 16.6542C15.9014 16.4273 15.7207 16.178 15.5968 15.9018C15.4744 15.6271 15.4117 15.336 15.4117 15.027C15.4117 14.7179 15.4729 14.4268 15.5968 14.1521C15.7207 13.8774 15.9014 13.6266 16.1417 13.3997C16.3761 13.1847 16.6404 13.019 16.936 12.9041C17.2316 12.7891 17.5421 12.7324 17.869 12.7324C18.196 12.7324 18.5169 12.7891 18.817 12.9041C19.1156 13.019 19.3798 13.1847 19.6112 13.3997C19.8456 13.6177 20.0218 13.8655 20.1442 14.1432C20.2651 14.4209 20.3263 14.715 20.3263 15.027C20.3263 15.339 20.2651 15.6316 20.1442 15.9093V15.9108ZM25.8456 16.5258C25.8456 17.6142 25.6396 18.2785 25.1529 18.7398C24.5752 19.2877 23.7526 19.3265 23.0599 19.228V18.1024C23.6376 18.1606 24.4333 17.7799 24.4318 17.0304V16.7423H24.4139C24.09 17.1902 23.6167 17.3529 22.9867 17.3529C22.403 17.3529 21.8969 17.1379 21.555 16.7363C21.2116 16.3348 21.0414 15.7973 21.0414 15.1225C21.0414 14.3656 21.2325 13.7655 21.6147 13.3206C21.9954 12.8757 22.5403 12.6682 23.1629 12.6682C23.7212 12.6682 24.072 12.8025 24.4154 13.1161H24.4333V12.7772H25.8456V16.5273V16.5258Z" fill="#ACACAC"/>
</svg>
