<svg width="34" height="34" viewBox="0 0 34 34" fill="none" xmlns="http://www.w3.org/2000/svg">
<g clip-path="url(#clip0_1_330)">
<path d="M13.021 25.7293C21.1223 25.7293 25.5546 19.0158 25.5546 13.1957C25.5546 13.0069 25.5504 12.814 25.542 12.6253C26.4042 12.0017 27.1483 11.2294 27.7393 10.3445C26.9363 10.7018 26.0837 10.9351 25.2107 11.0366C26.1299 10.4856 26.8182 9.61996 27.1479 8.60022C26.2832 9.11272 25.3375 9.47424 24.3513 9.66929C23.6869 8.9633 22.8084 8.49585 21.8517 8.33921C20.8949 8.18258 19.9132 8.34548 19.0583 8.80273C18.2035 9.25998 17.523 9.98612 17.1222 10.8689C16.7214 11.7516 16.6226 12.7418 16.841 13.6864C15.09 13.5985 13.3769 13.1436 11.813 12.3513C10.249 11.5589 8.86903 10.4467 7.76249 9.08674C7.20009 10.0564 7.02799 11.2038 7.28118 12.2958C7.53437 13.3878 8.19384 14.3424 9.12557 14.9656C8.42608 14.9434 7.74192 14.755 7.12961 14.4162V14.4707C7.12898 15.4882 7.48077 16.4746 8.12517 17.2622C8.76957 18.0497 9.66681 18.5898 10.6644 18.7906C10.0164 18.9679 9.33635 18.9937 8.6768 18.8661C8.95829 19.7412 9.50598 20.5066 10.2434 21.0555C10.9809 21.6043 11.8713 21.9093 12.7904 21.9277C11.23 23.1534 9.30252 23.8182 7.31834 23.8151C6.96646 23.8145 6.61493 23.793 6.26562 23.7505C8.28134 25.0437 10.6262 25.7305 13.021 25.7293Z" fill="#ACACAC"/>
</g>
<defs>
<clipPath id="clip0_1_330">
<rect width="21.4737" height="21.4737" fill="white" transform="translate(6.26562 6.26562)"/>
</clipPath>
</defs>
</svg>
