<svg width="82" height="82" viewBox="0 0 82 82" fill="none" xmlns="http://www.w3.org/2000/svg">
<path d="M16.0833 70.7493L70.7499 16.0826C72.0842 14.7483 72.0842 12.585 70.7499 11.2507C69.4156 9.91643 67.2523 9.91643 65.918 11.2507L58.6626 18.5061C54.8222 15.471 50.0144 13.6667 44.797 13.6667C32.459 13.6667 23.2267 21.9396 23.2267 29.4658C13.9682 30.7644 6.83398 38.93 6.83398 48.8095C6.83398 54.7588 9.42104 60.0866 13.5012 63.6676L11.2514 65.9174C9.91708 67.2517 9.91708 69.415 11.2514 70.7493C12.5857 72.0836 14.749 72.0836 16.0833 70.7493Z" fill="url(#paint0_linear_443_8034)"/>
<path d="M75.1673 54.2665C75.1673 62.0354 68.8917 68.3333 61.1502 68.3333H32.3403C30.8182 68.3333 30.0561 66.4929 31.1326 65.4168L64.5154 32.0477C65.4263 31.1372 66.9641 31.5308 67.1925 32.7983C67.4435 34.1913 67.5747 35.6275 67.5747 37.0952V41C72.0844 43.338 75.1673 48.8213 75.1673 54.2665Z" fill="url(#paint1_linear_443_8034)"/>
<defs>
<linearGradient id="paint0_linear_443_8034" x1="17.4636" y1="10.6297" x2="92.6528" y2="28.0392" gradientUnits="userSpaceOnUse">
<stop stop-color="#13E880"/>
<stop offset="1" stop-color="#80E8FF"/>
</linearGradient>
<linearGradient id="paint1_linear_443_8034" x1="17.4636" y1="10.6297" x2="92.6528" y2="28.0392" gradientUnits="userSpaceOnUse">
<stop stop-color="#13E880"/>
<stop offset="1" stop-color="#80E8FF"/>
</linearGradient>
</defs>
</svg>
