<svg width="32" height="32" viewBox="0 0 32 32" fill="none" xmlns="http://www.w3.org/2000/svg">
<path d="M13.1111 12.3363V16.0154H14.4256V12.2971C14.4256 12.2971 14.5766 10.4793 12.4805 10.3965V11.6955C12.4805 11.6955 13.1111 11.835 13.1111 12.3363Z" fill="#ACACAC"/>
<path d="M17.5426 16.1598C18.7594 16.1598 19.7453 15.2704 19.7453 14.1717C19.7453 13.073 18.7594 12.1836 17.5426 12.1836C16.3257 12.1836 15.3398 13.073 15.3398 14.1717C15.3398 15.2704 16.3257 16.1598 17.5426 16.1598ZM17.5426 13.3564C18 13.3564 18.3731 13.7226 18.3731 14.1717C18.3731 14.6208 18 14.987 17.5426 14.987C17.0852 14.987 16.7121 14.6208 16.7121 14.1717C16.7121 13.7226 17.0852 13.3564 17.5426 13.3564Z" fill="#ACACAC"/>
<path d="M9.09846 16.0096V15.6958C9.09846 15.6958 9.50259 16.1578 10.2132 16.1578C10.2132 16.1578 12.0562 16.1055 12.0651 14.3575C12.0651 14.3575 12.3138 12.3131 10.3286 12.1343C10.3286 12.1343 9.41821 12.1256 9.1029 12.6531V10.5781C9.1029 10.5781 7.8461 10.5956 7.76172 10.5781V16.0096H9.1029H9.09846ZM9.91117 13.4334C10.3375 13.4334 10.6839 13.7734 10.6839 14.1919C10.6839 14.6103 10.3375 14.9503 9.91117 14.9503C9.48483 14.9503 9.13843 14.6103 9.13843 14.1919C9.13843 13.7734 9.48483 13.4334 9.91117 13.4334Z" fill="#ACACAC"/>
<path d="M22.064 16.156C23.2142 16.156 23.3785 15.6547 23.3785 15.6547C23.3874 16.897 22.5658 16.8229 22.5658 16.8229H22.2061V18.0478H22.8012C24.7552 18.0478 24.7375 16.1603 24.7375 16.1603V12.2327H23.4052V12.6294C22.9699 12.054 22.2638 12.1281 22.2638 12.1281C20.4697 12.2589 20.4297 13.8805 20.4297 13.8805V14.4733C20.4297 16.0383 22.064 16.1516 22.064 16.1516V16.156ZM22.6502 13.3705C23.0987 13.3705 23.4629 13.7279 23.4629 14.1682C23.4629 14.6085 23.0987 14.9659 22.6502 14.9659C22.2017 14.9659 21.8375 14.6085 21.8375 14.1682C21.8375 13.7279 22.2017 13.3705 22.6502 13.3705Z" fill="#ACACAC"/>
<path d="M24.4434 5.9043H8.02503C6.36853 5.9043 5.02734 7.22076 5.02734 8.84672V18.4107C5.02734 20.0367 6.36853 21.3531 8.02503 21.3531H13.825L15.7968 25.9128C15.7968 25.9128 15.9345 26.3095 16.2631 26.3095C16.5917 26.3095 16.7294 25.9128 16.7294 25.9128L18.7012 21.3531H24.4479C26.1044 21.3531 27.4456 20.0367 27.4456 18.4107V8.84672C27.4456 7.22076 26.1044 5.9043 24.4479 5.9043H24.4434Z" stroke="#ACACAC" stroke-width="1.5" stroke-miterlimit="10"/>
</svg>
