<svg width="24" height="24" viewBox="0 0 24 24" fill="none" xmlns="http://www.w3.org/2000/svg">
<path d="M20.5 16.0411C20.5 17.5599 19.2688 18.7911 17.75 18.7911C16.2312 18.7911 15 17.5599 15 16.0411C15 14.5223 16.2312 13.2911 17.75 13.2911C19.2688 13.2911 20.5 14.5223 20.5 16.0411ZM20.5 16.0411V10.3347C20.5 9.08338 19.2741 8.19977 18.0869 8.59549L12.0072 10.6221C10.5099 11.1212 9.5 12.5223 9.5 14.1006V17.8745M9.5 17.8745C9.5 19.3932 8.26878 20.6245 6.75 20.6245C5.23122 20.6245 4 19.3932 4 17.8745C4 16.3557 5.23122 15.1245 6.75 15.1245C8.26878 15.1245 9.5 16.3557 9.5 17.8745ZM20.5 11.4578V4.83474C20.5 3.58338 19.2741 2.69977 18.0869 3.09549L12.0072 5.12207C10.5099 5.62115 9.5 7.02233 9.5 8.60057V13.2911" stroke="#24CE7B" stroke-width="2" stroke-linecap="round" stroke-linejoin="round"/>
</svg>
