<svg width="30" height="30" viewBox="0 0 30 30" fill="none" xmlns="http://www.w3.org/2000/svg">
<path fill-rule="evenodd" clip-rule="evenodd" d="M11.5007 5.25C10.6262 5.25 9.91732 5.95888 9.91732 6.83333V9.16667C9.91732 9.58088 9.58153 9.91667 9.16732 9.91667C8.7531 9.91667 8.41732 9.58088 8.41732 9.16667V6.83333C8.41732 5.13046 9.79777 3.75 11.5007 3.75H24.334C26.0369 3.75 27.4173 5.13046 27.4173 6.83333V17.3333C27.4173 19.0362 26.0369 20.4167 24.334 20.4167H18.5007C18.0864 20.4167 17.7507 20.0809 17.7507 19.6667C17.7507 19.2525 18.0864 18.9167 18.5007 18.9167H24.334C25.2084 18.9167 25.9173 18.2078 25.9173 17.3333V6.83333C25.9173 5.95888 25.2084 5.25 24.334 5.25H11.5007ZM13.084 9.75C13.084 9.33579 13.4198 9 13.834 9H22.0007C22.4149 9 22.7507 9.33579 22.7507 9.75C22.7507 10.1642 22.4149 10.5 22.0007 10.5H13.834C13.4198 10.5 13.084 10.1642 13.084 9.75ZM9.16732 13.4167C8.29287 13.4167 7.58398 14.1255 7.58398 15C7.58398 15.8745 8.29287 16.5833 9.16732 16.5833C10.0418 16.5833 10.7507 15.8745 10.7507 15C10.7507 14.1255 10.0418 13.4167 9.16732 13.4167ZM6.08398 15C6.08398 13.2971 7.46444 11.9167 9.16732 11.9167C10.8702 11.9167 12.2507 13.2971 12.2507 15C12.2507 16.7029 10.8702 18.0833 9.16732 18.0833C7.46444 18.0833 6.08398 16.7029 6.08398 15ZM16.584 14.4167C16.584 14.0025 16.9198 13.6667 17.334 13.6667H22.0007C22.4149 13.6667 22.7507 14.0025 22.7507 14.4167C22.7507 14.8309 22.4149 15.1667 22.0007 15.1667H17.334C16.9198 15.1667 16.584 14.8309 16.584 14.4167ZM5.66732 20.4167C4.79287 20.4167 4.08398 21.1255 4.08398 22V23.1667C4.08398 24.0411 4.79287 24.75 5.66732 24.75H12.6673C13.5418 24.75 14.2507 24.0411 14.2507 23.1667V22C14.2507 21.1255 13.5418 20.4167 12.6673 20.4167H12.4671C12.0472 20.4167 11.6445 20.5835 11.3476 20.8804C10.1434 22.0845 8.19119 22.0845 6.98707 20.8804C6.69014 20.5835 6.28741 20.4167 5.86749 20.4167H5.66732ZM2.58398 22C2.58398 20.2971 3.96444 18.9167 5.66732 18.9167H5.86749C6.68524 18.9167 7.4695 19.2415 8.04773 19.8198C8.66606 20.4381 9.66857 20.4381 10.2869 19.8198C10.8651 19.2415 11.6494 18.9167 12.4671 18.9167H12.6673C14.3702 18.9167 15.7507 20.2971 15.7507 22V23.1667C15.7507 24.8695 14.3702 26.25 12.6673 26.25H5.66732C3.96444 26.25 2.58398 24.8695 2.58398 23.1667V22Z" fill="#444444"/>
</svg>
