<svg width="22" height="22" viewBox="0 0 22 22" fill="none" xmlns="http://www.w3.org/2000/svg">
<circle cx="11" cy="11" r="11" fill="#24CE7B"/>
<path d="M10.9933 11.1383C12.6206 11.1383 13.9397 9.8062 13.9397 8.16292C13.9397 6.51964 12.6206 5.1875 10.9933 5.1875C9.36604 5.1875 8.04688 6.51964 8.04688 8.16292C8.04688 9.8062 9.36604 11.1383 10.9933 11.1383Z" stroke="white" stroke-linecap="round" stroke-linejoin="round"/>
<path d="M15.2474 13.3644L13.1613 15.4711C13.0788 15.5544 13.0022 15.7091 12.9845 15.8221L12.8726 16.6255C12.8313 16.9171 13.0317 17.1194 13.3204 17.0778L14.116 16.9647C14.2279 16.9468 14.387 16.8695 14.4636 16.7862L16.5497 14.6796C16.9092 14.3166 17.0801 13.8941 16.5497 13.3585C16.0252 12.8289 15.6069 13.0014 15.2474 13.3644Z" stroke="white" stroke-miterlimit="10" stroke-linecap="round" stroke-linejoin="round"/>
<path d="M14.9453 13.6719C15.1221 14.3146 15.6171 14.8144 16.2535 14.9929" stroke="white" stroke-miterlimit="10" stroke-linecap="round" stroke-linejoin="round"/>
<path d="M5.92969 17.0953C5.92969 14.7923 8.19845 12.9297 10.9917 12.9297C11.6045 12.9297 12.1938 13.0189 12.7418 13.1856" stroke="white" stroke-linecap="round" stroke-linejoin="round"/>
</svg>
