<svg width="20" height="20" viewBox="0 0 20 20" fill="none" xmlns="http://www.w3.org/2000/svg">
<path d="M7.375 8.66667L9.125 10.4444L13.0625 6.44444M17 18V6.26667C17 4.77319 17 4.02646 16.7139 3.45603C16.4622 2.95426 16.0607 2.54631 15.5667 2.29065C15.0052 2 14.2701 2 12.8 2H7.2C5.72986 2 4.99479 2 4.43327 2.29065C3.93935 2.54631 3.53778 2.95426 3.28611 3.45603C3 4.02646 3 4.77319 3 6.26667V18L5.40625 16.2222L7.59375 18L10 16.2222L12.4062 18L14.5938 16.2222L17 18Z" stroke="black" stroke-linecap="round" stroke-linejoin="round"/>
</svg>
