<svg width="55" height="14" viewBox="0 0 55 14" fill="none" xmlns="http://www.w3.org/2000/svg">
<path d="M41.5077 2.94922H38.519C38.315 2.94922 38.1411 3.09778 38.1092 3.29965L36.9006 10.9623C36.8766 11.1135 36.9937 11.2498 37.1462 11.2498H38.6798C38.8223 11.2498 38.9442 11.1458 38.9665 11.0042L39.3095 8.8322C39.3409 8.6299 39.5153 8.48134 39.7193 8.48134H40.6649C42.6337 8.48134 43.7693 7.5288 44.0664 5.64122C44.2006 4.8154 44.0717 4.16654 43.685 3.71212C43.2607 3.21313 42.5079 2.94922 41.5077 2.94922ZM41.8525 5.74783C41.6895 6.82008 40.8702 6.82008 40.0776 6.82008H39.6271L39.9439 4.81758C39.9627 4.69655 40.0667 4.60741 40.1895 4.60741H40.3961C40.9353 4.60741 41.4448 4.60741 41.7078 4.91502C41.8647 5.09853 41.9123 5.37119 41.8525 5.74783Z" fill="#179BD7"/>
<path d="M50.4402 5.7127H49.0101C48.8873 5.7127 48.7829 5.80184 48.7645 5.92287L48.7011 6.32311L48.6006 6.17805C48.2909 5.72843 47.6005 5.57812 46.911 5.57812C45.3297 5.57812 43.9796 6.77578 43.7165 8.45582C43.5802 9.29388 43.7738 10.0952 44.2491 10.6541C44.6861 11.1679 45.3092 11.382 46.0515 11.382C47.3257 11.382 48.0322 10.5628 48.0322 10.5628L47.9684 10.9604C47.9444 11.1124 48.0615 11.2488 48.2148 11.2488H49.5034C49.7074 11.2488 49.8813 11.1002 49.9132 10.8979L50.687 6.00021C50.7106 5.84947 50.5935 5.7127 50.4402 5.7127ZM48.4455 8.49777C48.3083 9.31529 47.6586 9.86408 46.831 9.86408C46.4164 9.86408 46.0834 9.73082 45.8702 9.47827C45.6587 9.22746 45.5792 8.87048 45.6456 8.47286C45.7754 7.66234 46.4343 7.09562 47.2492 7.09562C47.6555 7.09562 47.9859 7.23064 48.2035 7.48537C48.4224 7.74273 48.5089 8.1019 48.4455 8.49777Z" fill="#179BD7"/>
<path d="M52.1271 3.15982L50.9006 10.9627C50.8766 11.1139 50.9937 11.2502 51.1462 11.2502H52.3792C52.5841 11.2502 52.758 11.1017 52.7895 10.8994L53.999 3.23716C54.023 3.08598 53.9059 2.94922 53.7534 2.94922H52.3727C52.2507 2.94966 52.1459 3.03879 52.1271 3.15982Z" fill="#179BD7"/>
<path d="M20.1913 2.94922H17.2031C16.9986 2.94922 16.8247 3.09778 16.7928 3.29965L15.5842 10.9623C15.5602 11.1135 15.6773 11.2498 15.8306 11.2498H17.2572C17.4617 11.2498 17.6356 11.1012 17.6675 10.8989L17.9935 8.8322C18.0249 8.6299 18.1993 8.48134 18.4033 8.48134H19.3493C21.3177 8.48134 22.4538 7.5288 22.7505 5.64122C22.8842 4.8154 22.7562 4.16654 22.3695 3.71212C21.9447 3.21313 21.1915 2.94922 20.1913 2.94922ZM20.5361 5.74783C20.3726 6.82008 19.5534 6.82008 18.7612 6.82008H18.3103L18.6266 4.81758C18.6454 4.69655 18.7503 4.60741 18.8726 4.60741H19.0793C19.6189 4.60741 20.1279 4.60741 20.391 4.91502C20.5478 5.09853 20.5959 5.37119 20.5361 5.74783Z" fill="#253B80"/>
<path d="M29.1237 5.7127H27.6927C27.5708 5.7127 27.4655 5.80184 27.4467 5.92287L27.3833 6.32311L27.2833 6.17805C26.9735 5.72843 26.2827 5.57812 25.5932 5.57812C24.0119 5.57812 22.6613 6.77578 22.3983 8.45582C22.2615 9.29388 22.456 10.0952 22.9313 10.6541C23.3674 11.1679 23.9914 11.382 24.7337 11.382C26.0079 11.382 26.7144 10.5628 26.7144 10.5628L26.6506 10.9604C26.6266 11.1124 26.7437 11.2488 26.8962 11.2488H28.1851C28.3901 11.2488 28.5631 11.1002 28.5954 10.8979L29.3688 6.00021C29.3933 5.84947 29.2766 5.7127 29.1237 5.7127ZM27.129 8.49777C26.991 9.31529 26.3421 9.86408 25.5145 9.86408C25.099 9.86408 24.7669 9.73082 24.5537 9.47827C24.3422 9.22746 24.2618 8.87048 24.3291 8.47286C24.458 7.66234 25.1178 7.09562 25.9327 7.09562C26.3391 7.09562 26.6694 7.23064 26.887 7.48537C27.105 7.74273 27.1915 8.1019 27.129 8.49777Z" fill="#253B80"/>
<path d="M36.7453 5.71484H35.3073C35.1701 5.71484 35.0412 5.78301 34.9634 5.89705L32.9801 8.81844L32.1395 6.01109C32.0866 5.83544 31.9245 5.71484 31.741 5.71484H30.3279C30.1562 5.71484 30.0369 5.88263 30.0915 6.0443L31.6754 10.6925L30.1863 12.7946C30.0692 12.9602 30.1872 13.1879 30.3895 13.1879H31.8257C31.9621 13.1879 32.0896 13.1214 32.167 13.0096L36.9497 6.10591C37.0642 5.94074 36.9467 5.71484 36.7453 5.71484Z" fill="#253B80"/>
<path d="M3.17509 12.7404L3.40361 11.2889L2.89457 11.2771H0.463867L2.15308 0.566319C2.15833 0.533985 2.17537 0.503836 2.20027 0.482426C2.22518 0.461016 2.25708 0.449219 2.29028 0.449219H6.38879C7.74943 0.449219 8.68842 0.732357 9.17867 1.29121C9.4085 1.55337 9.55487 1.82733 9.62566 2.12882C9.69994 2.44517 9.70125 2.82312 9.62872 3.2841L9.62347 3.31774V3.61311L9.8533 3.74332C10.0469 3.846 10.2007 3.96354 10.3186 4.09812C10.5153 4.32227 10.6424 4.60715 10.6962 4.94491C10.7517 5.29228 10.7333 5.70563 10.6424 6.17359C10.5376 6.7119 10.368 7.18074 10.1391 7.56438C9.92846 7.91786 9.66018 8.21105 9.34165 8.43826C9.03753 8.65411 8.67618 8.81796 8.26764 8.92283C7.87177 9.02594 7.42041 9.07794 6.92536 9.07794H6.60639C6.37831 9.07794 6.15678 9.16009 5.98288 9.30734C5.80854 9.45764 5.69318 9.66301 5.65779 9.88759L5.63376 10.0182L5.23003 12.5765L5.21167 12.6705C5.20687 12.7002 5.19857 12.715 5.18633 12.7251C5.17541 12.7343 5.15968 12.7404 5.14439 12.7404H3.17509Z" fill="#253B80"/>
<path d="M10.0708 3.35156C10.0586 3.42978 10.0446 3.50974 10.0288 3.59188C9.48835 6.3669 7.63921 7.32555 5.27754 7.32555H4.07508C3.78626 7.32555 3.54288 7.53528 3.49788 7.82016L2.88223 11.7247L2.70789 12.8314C2.67861 13.0185 2.8228 13.1871 3.01156 13.1871H5.14427C5.39683 13.1871 5.61136 13.0036 5.65113 12.7545L5.6721 12.6462L6.07365 10.0979L6.09943 9.95812C6.13875 9.70819 6.35373 9.52467 6.60628 9.52467H6.92525C8.99155 9.52467 10.6091 8.68575 11.0819 6.2581C11.2794 5.24396 11.1771 4.39716 10.6545 3.80161C10.4964 3.62203 10.3002 3.47303 10.0708 3.35156Z" fill="#179BD7"/>
<path d="M9.50556 3.12369C9.42297 3.09966 9.33777 3.07781 9.25038 3.05815C9.16256 3.03892 9.07255 3.02188 8.97992 3.00703C8.65571 2.95459 8.30047 2.92969 7.9199 2.92969H4.7075C4.62841 2.92969 4.55326 2.9476 4.48597 2.97994C4.33785 3.05116 4.22774 3.19142 4.20109 3.36313L3.51771 7.69148L3.49805 7.81775C3.54305 7.53287 3.78643 7.32313 4.07525 7.32313H5.27771C7.63938 7.32313 9.48852 6.36405 10.029 3.58947C10.0452 3.50732 10.0587 3.42736 10.071 3.34915C9.9342 3.27662 9.78607 3.21457 9.62659 3.1617C9.58726 3.1486 9.54663 3.13592 9.50556 3.12369Z" fill="#222D65"/>
<path d="M4.20075 3.36401C4.22741 3.1923 4.33751 3.05204 4.48564 2.98125C4.55336 2.94892 4.62808 2.931 4.70717 2.931H7.91956C8.30014 2.931 8.65537 2.95591 8.97958 3.00834C9.07221 3.0232 9.16222 3.04024 9.25005 3.05946C9.33744 3.07913 9.42264 3.10097 9.50522 3.12501C9.5463 3.13724 9.58693 3.14991 9.62669 3.16258C9.78618 3.21545 9.9343 3.27794 10.0711 3.35003C10.2319 2.32453 10.0698 1.6263 9.51527 0.994042C8.90399 0.297994 7.80071 0 6.38895 0H2.29044C2.00206 0 1.75606 0.209732 1.7115 0.495055L0.00436453 11.3159C-0.02928 11.53 0.135884 11.7231 0.351733 11.7231H2.88206L3.51737 7.69236L4.20075 3.36401Z" fill="#253B80"/>
</svg>
