<svg width="28" height="28" viewBox="0 0 28 28" fill="none" xmlns="http://www.w3.org/2000/svg">
<path d="M28 16.6559C28.0042 14.7339 26.5079 13.1779 24.6724 13.1779C24.2146 13.1779 23.778 13.2749 23.3753 13.4468C23.104 10.3259 20.5861 7.875 17.5128 7.875C16.7583 7.875 16.0292 8.02047 15.3807 8.28936C15.1221 8.38634 15.05 8.48331 15.05 8.6949V19.7018C15.05 19.9222 15.2153 20.0809 15.4146 20.1074H24.6682C26.5036 20.1074 28 18.5645 28 16.6559Z" fill="#FF5500"/>
<path d="M14.7491 9.06077C14.7321 8.92853 14.6643 8.8051 14.5583 8.74339C14.5117 8.70812 14.4396 8.68167 14.3803 8.68167C14.287 8.68167 14.2022 8.71694 14.1429 8.76543C14.0623 8.84037 14.0115 8.95057 14.003 9.06077V9.09603L13.8631 16.8851L13.9352 18.3177L14.0072 19.715C14.02 19.9222 14.1853 20.0941 14.3845 20.0941C14.5837 20.0941 14.7491 19.9222 14.7491 19.715L14.9144 16.8851L14.7491 9.06077Z" fill="#FF5500"/>
<path d="M7.58524 10.9386C7.70393 10.9386 7.80991 11.0356 7.80991 11.1722L8.03457 16.9027L7.80991 19.8914C7.80991 20.028 7.70393 20.125 7.58524 20.125C7.45383 20.125 7.36058 20.028 7.34786 19.8914L7.16135 16.9027L7.34786 11.1722C7.36058 11.0356 7.45383 10.9386 7.58524 10.9386Z" fill="#FF5500"/>
<path d="M6.70355 12.2213C6.70355 12.0979 6.61029 12.0009 6.50432 12.0009C6.38563 12.0009 6.30509 12.0979 6.29237 12.2213L6.08042 16.8763L6.29237 19.887C6.30509 20.0104 6.38563 20.1074 6.50432 20.1074C6.61029 20.1074 6.70355 20.0104 6.70355 19.887L6.94941 16.8763L6.70355 12.2213Z" fill="#FF5500"/>
<path d="M5.84304 16.8763L5.59719 14.011C5.58447 13.914 5.50393 13.8259 5.41067 13.8259C5.31318 13.8259 5.23264 13.914 5.23264 14.011L4.99526 16.8763L5.23264 19.887C5.23264 19.9972 5.31742 20.0809 5.41067 20.0809C5.50393 20.0809 5.58447 19.9972 5.59719 19.887L5.84304 16.8763Z" fill="#FF5500"/>
<path d="M1.28618 15.307C1.27346 15.2453 1.23955 15.1968 1.1802 15.1968C1.12086 15.1968 1.08695 15.2453 1.07423 15.307L0.875 16.8763L1.07423 18.4191C1.08695 18.4808 1.12086 18.5293 1.1802 18.5293C1.23955 18.5293 1.27346 18.4808 1.28618 18.4191L1.52356 16.8763L1.28618 15.307Z" fill="#FF5500"/>
<path d="M2.18059 14.2314C2.23994 14.2314 2.28657 14.2799 2.29928 14.3416L2.60449 16.8763L2.29928 19.3624C2.28657 19.4241 2.23994 19.4726 2.18059 19.4726C2.12125 19.4726 2.07462 19.4241 2.07462 19.3492L1.80333 16.8763L2.07462 14.3416C2.07462 14.2799 2.12125 14.2314 2.18059 14.2314Z" fill="#FF5500"/>
<path d="M3.38446 13.8744C3.38446 13.7906 3.32511 13.7289 3.25305 13.7289C3.18099 13.7289 3.12164 13.7906 3.11317 13.8744L2.86731 16.8763L3.11317 19.7768C3.12588 19.8517 3.18523 19.9134 3.25305 19.9134C3.32511 19.9134 3.38446 19.8517 3.38446 19.7768L3.67695 16.8763L3.38446 13.8744Z" fill="#FF5500"/>
<path d="M4.32549 13.6319C4.40603 13.6319 4.4781 13.6936 4.49081 13.7906L4.7621 16.8763L4.49081 19.8649C4.4781 19.9619 4.40603 20.0236 4.32549 20.0236C4.24495 20.0236 4.17289 19.9619 4.17289 19.8649L3.92703 16.8763L4.17289 13.7906C4.17289 13.6936 4.24495 13.6319 4.32549 13.6319Z" fill="#FF5500"/>
<path d="M13.4265 9.41782C13.5198 9.47953 13.5791 9.58974 13.5918 9.71316L13.7317 16.8895L13.6003 19.4726L13.5876 19.7679C13.5876 19.8693 13.5537 19.9531 13.4816 20.0148C13.4223 20.0765 13.3375 20.125 13.2442 20.125C13.1383 20.125 13.045 20.0721 12.9729 19.9883C12.9263 19.9266 12.9009 19.8561 12.9009 19.7812V19.7679C12.7695 16.8895 12.7695 16.8763 12.7695 16.8763L12.8882 9.7881L12.9009 9.71316C12.9009 9.58974 12.9602 9.47953 13.0535 9.41782C13.1086 9.38256 13.1722 9.35611 13.24 9.35611C13.3078 9.35611 13.3672 9.38256 13.4265 9.41782Z" fill="#FF5500"/>
<path d="M8.9629 10.6785C8.95443 10.5331 8.84845 10.4096 8.70433 10.4096C8.57292 10.4096 8.45847 10.5331 8.45847 10.6785L8.27196 16.8763L8.45847 19.8385C8.47119 19.9839 8.57716 20.0941 8.70433 20.0941C8.84421 20.0941 8.95019 19.9839 8.9629 19.8385L9.17485 16.8763L8.9629 10.6785Z" fill="#FF5500"/>
<path d="M12.0955 10.5198C12.2735 10.5198 12.4007 10.6653 12.4134 10.8637L12.5787 16.8895L12.4134 19.7812C12.4134 19.9663 12.2735 20.1118 12.0955 20.1118C11.9174 20.1118 11.7776 19.9663 11.7648 19.7812L11.625 16.8895L11.7648 10.8637C11.7776 10.6653 11.9174 10.5198 12.0955 10.5198Z" fill="#FF5500"/>
<path d="M10.1074 10.4713C10.0947 10.3127 9.97601 10.176 9.82341 10.176C9.68352 10.176 9.55211 10.3127 9.55211 10.4713L9.38679 16.8763L9.55211 19.8253C9.56483 19.9839 9.68352 20.1074 9.82341 20.1074C9.97601 20.1074 10.0947 19.9839 10.1074 19.8253L10.2939 16.8763L10.1074 10.4713Z" fill="#FF5500"/>
<path d="M10.9552 10.3259C11.1205 10.3259 11.2477 10.4581 11.2477 10.63L11.4257 16.8763L11.2477 19.8032C11.2477 19.9707 11.1163 20.1074 10.9552 20.1074C10.7941 20.1074 10.6754 19.9751 10.6627 19.8032L10.4974 16.8763L10.6627 10.63C10.6627 10.4625 10.7899 10.3259 10.9552 10.3259Z" fill="#FF5500"/>
</svg>
