<svg width="38" height="38" viewBox="0 0 38 38" fill="none" xmlns="http://www.w3.org/2000/svg">
<path d="M20.5825 33.1631L20.4727 32.1692L19.6929 32.2553L19.591 33.0331L20.5825 33.1631ZM10.2216 30.2258L10.8355 31.0152L11.8469 30.2285L10.8381 29.4385L10.2216 30.2258ZM6.56339 33.0711L7.17733 33.8604L7.17733 33.8604L6.56339 33.0711ZM32.25 19C32.25 25.8198 27.0969 31.4373 20.4727 32.1692L20.6923 34.1571C28.3187 33.3145 34.25 26.8506 34.25 19H32.25ZM19 5.75C26.3178 5.75 32.25 11.6822 32.25 19H34.25C34.25 10.5777 27.4223 3.75 19 3.75V5.75ZM5.75 19C5.75 11.6822 11.6822 5.75 19 5.75V3.75C10.5777 3.75 3.75 10.5777 3.75 19H5.75ZM10.8381 29.4385C7.7388 27.0115 5.75 23.2383 5.75 19H3.75C3.75 23.8791 6.04246 28.2234 9.60501 31.0131L10.8381 29.4385ZM7.17733 33.8604L10.8355 31.0152L9.60761 29.4365L5.94945 32.2817L7.17733 33.8604ZM6.62479 32.25C7.48175 32.25 7.85375 33.3343 7.17733 33.8604L5.94945 32.2817C5.12272 32.9247 5.5774 34.25 6.62479 34.25V32.25ZM19 32.25H6.62479V34.25H19V32.25ZM20.4833 32.25H19V34.25H20.4833V32.25ZM19.591 33.0331C19.6489 32.591 20.0255 32.25 20.4833 32.25V34.25C21.0428 34.25 21.5032 33.8333 21.574 33.2931L19.591 33.0331Z" fill="#24CE7B"/>
<path d="M20.1267 21.8238V21.658C20.1318 20.6377 20.4996 20.1611 21.318 19.6691C22.2865 19.089 22.9081 18.3224 22.9081 17.1156C22.9081 15.3079 21.463 14.2461 19.4171 14.2461C17.5472 14.2461 16.0141 15.2354 15.9727 17.2917H18.0548C18.0911 16.437 18.723 15.9812 19.4015 15.9812C20.1163 15.9812 20.6861 16.4578 20.6861 17.1829C20.6861 17.8666 20.1992 18.3224 19.5621 18.7264C18.6919 19.2754 18.1999 19.8348 18.1895 21.658V21.8238H20.1267ZM19.1995 25.1283C19.8573 25.1283 20.4271 24.5793 20.4323 23.9008C20.4271 23.2274 19.8573 22.6784 19.1995 22.6784C18.521 22.6784 17.9616 23.2274 17.972 23.9008C17.9616 24.5793 18.521 25.1283 19.1995 25.1283Z" fill="#24CE7B"/>
</svg>
