<svg width="12" height="12" viewBox="0 0 12 12" fill="none" xmlns="http://www.w3.org/2000/svg">
<path d="M11.75 6C11.75 5.72386 11.5261 5.5 11.25 5.5C10.9739 5.5 10.75 5.72386 10.75 6H11.75ZM6 1.25C6.27614 1.25 6.5 1.02614 6.5 0.75C6.5 0.473858 6.27614 0.25 6 0.25V1.25ZM4.5062 8.09452L4.57691 8.5895H4.57691L4.5062 8.09452ZM3.90548 7.4938L3.4105 7.42309L3.90548 7.4938ZM4.43111 5.31617L4.07756 4.96262L4.43111 5.31617ZM4.13075 5.91689L4.62573 5.98761L4.13075 5.91689ZM6.68383 7.56889L7.03738 7.92244L6.68383 7.56889ZM6.08311 7.86925L6.0124 7.37428L6.08311 7.86925ZM10.939 1.81194L10.5854 2.16549L10.939 1.81194ZM10.939 3.31375L10.5854 2.9602L10.939 3.31375ZM10.1881 1.06104L10.5416 0.707482V0.707482L10.1881 1.06104ZM8.68625 1.06104L9.0398 1.41459L8.68625 1.06104ZM8.43534 1.81194C8.43534 1.5358 8.21148 1.31194 7.93534 1.31194C7.6592 1.31194 7.43534 1.5358 7.43534 1.81194L8.43534 1.81194ZM10.1881 4.56466C10.4642 4.56466 10.6881 4.3408 10.6881 4.06466C10.6881 3.78852 10.4642 3.56466 10.1881 3.56466V4.56466ZM10.75 6V9.15H11.75V6H10.75ZM9.15 10.75H2.85V11.75H9.15V10.75ZM1.25 9.15V2.85H0.25V9.15H1.25ZM2.85 1.25H6V0.25H2.85V1.25ZM1.25 2.85C1.25 1.96634 1.96634 1.25 2.85 1.25V0.25C1.41406 0.25 0.25 1.41406 0.25 2.85H1.25ZM2.85 10.75C1.96634 10.75 1.25 10.0337 1.25 9.15H0.25C0.25 10.5859 1.41406 11.75 2.85 11.75V10.75ZM10.75 9.15C10.75 10.0337 10.0337 10.75 9.15 10.75V11.75C10.5859 11.75 11.75 10.5859 11.75 9.15H10.75ZM9.83451 1.41459L10.5854 2.16549L11.2925 1.45839L10.5416 0.707482L9.83451 1.41459ZM10.5854 2.9602L6.33028 7.21533L7.03738 7.92244L11.2925 3.66731L10.5854 2.9602ZM4.78467 5.66972L9.0398 1.41459L8.33269 0.707482L4.07756 4.96262L4.78467 5.66972ZM6.0124 7.37428L4.43549 7.59955L4.57691 8.5895L6.15382 8.36422L6.0124 7.37428ZM4.40045 7.56451L4.62573 5.98761L3.63578 5.84618L3.4105 7.42309L4.40045 7.56451ZM4.43549 7.59955C4.42829 7.60058 4.42419 7.59966 4.42135 7.59868C4.41773 7.59742 4.41334 7.59492 4.40921 7.59079C4.40508 7.58666 4.40258 7.58227 4.40132 7.57865C4.40034 7.57581 4.39942 7.57171 4.40045 7.56451L3.4105 7.42309C3.3133 8.10349 3.89651 8.6867 4.57691 8.5895L4.43549 7.59955ZM4.07756 4.96262C3.83859 5.20159 3.68357 5.51162 3.63578 5.84618L4.62573 5.98761C4.64292 5.86724 4.69869 5.7557 4.78467 5.66972L4.07756 4.96262ZM6.33028 7.21533C6.2443 7.30131 6.13276 7.35708 6.0124 7.37428L6.15382 8.36422C6.48838 8.31643 6.79841 8.16141 7.03738 7.92244L6.33028 7.21533ZM10.5854 2.16549C10.8049 2.38495 10.8049 2.74075 10.5854 2.9602L11.2925 3.66731C11.9025 3.05733 11.9025 2.06836 11.2925 1.45839L10.5854 2.16549ZM10.5416 0.707482C9.93164 0.097506 8.94267 0.0975059 8.33269 0.707482L9.0398 1.41459C9.25925 1.19514 9.61505 1.19514 9.83451 1.41459L10.5416 0.707482ZM7.93534 1.81194C7.43534 1.81194 7.43534 1.81219 7.43534 1.81244C7.43534 1.81253 7.43534 1.81278 7.43534 1.81296C7.43534 1.81331 7.43534 1.81367 7.43534 1.81404C7.43535 1.81479 7.43535 1.81558 7.43536 1.81643C7.43537 1.81811 7.43539 1.81999 7.43543 1.82206C7.43549 1.82619 7.4356 1.83107 7.43578 1.83668C7.43614 1.8479 7.43679 1.86205 7.43791 1.87893C7.44016 1.91268 7.44435 1.95747 7.4521 2.01172C7.46758 2.12012 7.49741 2.26702 7.55486 2.43937C7.67034 2.78582 7.89616 3.23077 8.33269 3.66731L9.0398 2.9602C8.72543 2.64583 8.57579 2.33988 8.50354 2.12315C8.46713 2.01391 8.45003 1.92615 8.44205 1.87029C8.43806 1.84241 8.43638 1.82266 8.4357 1.81242C8.43536 1.8073 8.43527 1.80458 8.43526 1.80444C8.43526 1.80437 8.43528 1.80494 8.4353 1.80618C8.43531 1.80681 8.43532 1.80759 8.43533 1.80855C8.43533 1.80903 8.43533 1.80955 8.43534 1.81012C8.43534 1.8104 8.43534 1.8107 8.43534 1.811C8.43534 1.81115 8.43534 1.81139 8.43534 1.81146C8.43534 1.8117 8.43534 1.81194 7.93534 1.81194ZM8.33269 3.66731C8.76923 4.10384 9.21418 4.32966 9.56063 4.44514C9.73298 4.50259 9.87988 4.53242 9.98829 4.5479C10.0425 4.55565 10.0873 4.55984 10.1211 4.56209C10.1379 4.56321 10.1521 4.56386 10.1633 4.56422C10.1689 4.5644 10.1738 4.56451 10.1779 4.56458C10.18 4.56461 10.1819 4.56463 10.1836 4.56464C10.1844 4.56465 10.1852 4.56465 10.186 4.56466C10.1863 4.56466 10.1867 4.56466 10.187 4.56466C10.1872 4.56466 10.1875 4.56466 10.1876 4.56466C10.1878 4.56466 10.1881 4.56466 10.1881 4.06466C10.1881 3.56466 10.1883 3.56466 10.1885 3.56466C10.1886 3.56466 10.1888 3.56466 10.189 3.56466C10.1893 3.56466 10.1896 3.56466 10.1899 3.56466C10.1904 3.56467 10.191 3.56467 10.1914 3.56467C10.1924 3.56468 10.1932 3.56469 10.1938 3.5647C10.1951 3.56472 10.1956 3.56474 10.1956 3.56474C10.1954 3.56473 10.1927 3.56464 10.1876 3.5643C10.1773 3.56362 10.1576 3.56194 10.1297 3.55795C10.0738 3.54997 9.98609 3.53287 9.87685 3.49646C9.66012 3.42421 9.35417 3.27457 9.0398 2.9602L8.33269 3.66731Z" fill="#222222"/>
</svg>
