<svg width="19" height="19" viewBox="0 0 19 19" fill="none" xmlns="http://www.w3.org/2000/svg">
<path d="M6.33594 1.58594V3.96094" stroke="#24CE7B" stroke-miterlimit="10" stroke-linecap="round" stroke-linejoin="round"/>
<path d="M12.6641 1.58594V3.96094" stroke="#24CE7B" stroke-miterlimit="10" stroke-linecap="round" stroke-linejoin="round"/>
<path d="M14.4083 16.9417C15.8075 16.9417 16.9417 15.8075 16.9417 14.4083C16.9417 13.0092 15.8075 11.875 14.4083 11.875C13.0092 11.875 11.875 13.0092 11.875 14.4083C11.875 15.8075 13.0092 16.9417 14.4083 16.9417Z" stroke="#24CE7B" stroke-linecap="round" stroke-linejoin="round"/>
<path d="M17.4167 17.4167L16.625 16.625" stroke="#24CE7B" stroke-linecap="round" stroke-linejoin="round"/>
<path d="M2.77344 7.20312H16.2318" stroke="#24CE7B" stroke-miterlimit="10" stroke-linecap="round" stroke-linejoin="round"/>
<path d="M10.5846 17.4193H6.33333C3.5625 17.4193 2.375 15.8359 2.375 13.4609V6.73177C2.375 4.35677 3.5625 2.77344 6.33333 2.77344H12.6667C15.4375 2.77344 16.625 4.35677 16.625 6.73177V10.2943" stroke="#24CE7B" stroke-miterlimit="10" stroke-linecap="round" stroke-linejoin="round"/>
<path d="M9.49305 10.849H9.50016" stroke="#24CE7B" stroke-width="1.5" stroke-linecap="round" stroke-linejoin="round"/>
<path d="M6.56336 10.849H6.57047" stroke="#24CE7B" stroke-width="1.5" stroke-linecap="round" stroke-linejoin="round"/>
<path d="M6.56336 13.224H6.57047" stroke="#24CE7B" stroke-width="1.5" stroke-linecap="round" stroke-linejoin="round"/>
</svg>
