<svg width="28" height="28" viewBox="0 0 28 28" fill="none" xmlns="http://www.w3.org/2000/svg">
<path fill-rule="evenodd" clip-rule="evenodd" d="M8.60289 10.8246C8.60289 8.40731 10.1929 6.3558 12.3825 5.6606C13.1473 5.44646 13.971 5.386 14.8411 5.49477L14.8439 5.49511C15.0987 5.526 15.3505 5.57748 15.5999 5.64501C17.8136 6.32604 19.436 8.39633 19.436 10.8246V13.7949C19.436 14.1985 19.5192 14.6647 19.6349 15.0865C19.7508 15.5092 19.9157 15.9467 20.112 16.2868L20.1118 16.2869L20.1191 16.2989L21.3004 18.261L21.3007 18.2615C21.7328 18.9824 21.3825 19.915 20.5981 20.1743L20.5959 20.1751C16.3209 21.6034 11.7092 21.6035 7.43422 20.1756C6.95941 20.0145 6.68415 19.7171 6.56878 19.4055C6.45363 19.0945 6.46896 18.6919 6.72777 18.2618L7.90959 16.2989L7.90959 16.2989L7.91127 16.2961C8.11587 15.9529 8.28453 15.5124 8.40213 15.0888C8.51966 14.6654 8.60289 14.1987 8.60289 13.7949V10.8246ZM20.936 10.8246C20.936 7.87941 19.0731 5.35046 16.4667 4.35732C15.9914 3.49336 15.0726 2.91113 14.0195 2.91113C12.9677 2.91113 12.05 3.49177 11.5741 4.35378C8.96259 5.34291 7.10289 7.86915 7.10289 10.8246V13.7949C7.10289 14.018 7.05251 14.3427 6.95678 14.6875C6.86133 15.0314 6.73742 15.3354 6.62362 15.5267L6.62285 15.528L5.44261 17.4882L5.4425 17.4884C4.9716 18.271 4.87387 19.148 5.16212 19.9264C5.45004 20.704 6.09422 21.3056 6.95467 21.5968L6.95745 21.5978C8.07924 21.9726 9.22271 22.2557 10.3773 22.447C10.5678 23.0266 10.8922 23.5476 11.3103 23.9656C11.9997 24.6551 12.9692 25.0897 14.0195 25.0897C15.715 25.0897 17.1608 23.977 17.6634 22.445C18.8135 22.2538 19.9525 21.9715 21.0701 21.5982C22.7719 21.0348 23.5105 19.029 22.5866 17.4892L22.586 17.4882L21.4081 15.5318C21.2969 15.3372 21.1754 15.0321 21.0815 14.6898C20.9865 14.3434 20.936 14.0182 20.936 13.7949V10.8246ZM15.8726 22.6686C14.639 22.7721 13.399 22.7723 12.1654 22.6694C12.2287 22.7527 12.2974 22.8315 12.3709 22.905C12.7914 23.3255 13.3842 23.5897 14.0195 23.5897C14.7718 23.5897 15.445 23.2273 15.8726 22.6686Z" fill="#444444"/>
</svg>
