<svg width="18" height="18" viewBox="0 0 18 18" fill="none" xmlns="http://www.w3.org/2000/svg">
<circle cx="9" cy="9" r="6.75" fill="#DDDDDD"/>
<path fill-rule="evenodd" clip-rule="evenodd" d="M8.25 12C8.25 11.5858 8.58579 11.25 9 11.25H9.0075C9.42171 11.25 9.7575 11.5858 9.7575 12V12.0075C9.7575 12.4217 9.42171 12.7575 9.0075 12.7575H9C8.58579 12.7575 8.25 12.4217 8.25 12.0075V12Z" fill="#666666"/>
<path fill-rule="evenodd" clip-rule="evenodd" d="M9.53033 6.96415C9.38341 6.81723 9.19223 6.74414 8.99867 6.74448C8.80602 6.74482 8.61593 6.81789 8.46967 6.96415C8.17678 7.25704 7.7019 7.25704 7.40901 6.96415C7.11612 6.67126 7.11612 6.19638 7.40901 5.90349C7.84719 5.46531 8.42268 5.24549 8.99604 5.24448C9.57201 5.24347 10.1508 5.46328 10.591 5.90349C11.0302 6.34268 11.25 6.91982 11.25 7.49448C11.25 8.06915 11.0302 8.64628 10.591 9.08547C10.3454 9.33102 10.0568 9.50799 9.74955 9.61631L9.75 9.74184C9.75146 10.156 9.41686 10.493 9.00265 10.4945C8.58844 10.4959 8.25147 10.1613 8.25 9.74713L8.24736 8.99712C8.24665 8.79753 8.32554 8.60588 8.46655 8.46462C8.60756 8.32336 8.79907 8.24413 8.99867 8.24448C9.19223 8.24482 9.38341 8.17173 9.53033 8.02481C9.67692 7.87822 9.75 7.68758 9.75 7.49448C9.75 7.30138 9.67692 7.11074 9.53033 6.96415Z" fill="#666666"/>
</svg>
