<svg width="28" height="28" viewBox="0 0 28 28" fill="none" xmlns="http://www.w3.org/2000/svg">
<path fill-rule="evenodd" clip-rule="evenodd" d="M24.1891 13.8412C24.1891 13.1244 24.1248 12.4351 24.0053 11.7734H14.4844V15.6838H19.9249C19.6905 16.9474 18.9783 18.0181 17.9077 18.7349V21.2714H21.1747C23.0863 19.5115 24.1891 16.9199 24.1891 13.8412Z" fill="#4285F4"/>
<path fill-rule="evenodd" clip-rule="evenodd" d="M14.4792 23.7196C17.2086 23.7196 19.4969 22.8144 21.1695 21.2704L17.9025 18.734C16.9972 19.3405 15.8393 19.6989 14.4792 19.6989C11.8462 19.6989 9.6176 17.9207 8.82266 15.5312H5.44531V18.1504C7.10872 21.4543 10.5274 23.7196 14.4792 23.7196Z" fill="#34A853"/>
<path fill-rule="evenodd" clip-rule="evenodd" d="M8.82759 15.5309C8.62541 14.9244 8.51053 14.2765 8.51053 13.6102C8.51053 12.9439 8.62541 12.296 8.82759 11.6895V9.07031H5.45024C4.76558 10.435 4.375 11.979 4.375 13.6102C4.375 15.2414 4.76558 16.7854 5.45024 18.1501L8.82759 15.5309Z" fill="#FBBC05"/>
<path fill-rule="evenodd" clip-rule="evenodd" d="M14.4792 7.52066C15.9633 7.52066 17.2959 8.03071 18.3436 9.03242L21.243 6.13296C19.4923 4.50172 17.204 3.5 14.4792 3.5C10.5274 3.5 7.10872 5.76535 5.44531 9.06918L8.82266 11.6884C9.6176 9.29893 11.8462 7.52066 14.4792 7.52066Z" fill="#EA4335"/>
</svg>
