<svg width="24" height="24" viewBox="0 0 24 24" fill="none" xmlns="http://www.w3.org/2000/svg">
<path fill-rule="evenodd" clip-rule="evenodd" d="M2.25 5C2.25 4.58579 2.58579 4.25 3 4.25H22C22.4142 4.25 22.75 4.58579 22.75 5V16C22.75 17.5188 21.5188 18.75 20 18.75H5C3.48122 18.75 2.25 17.5188 2.25 16V5ZM3.75 9.46429V16C3.75 16.6904 4.30964 17.25 5 17.25H20C20.6904 17.25 21.25 16.6904 21.25 16V9.46429H3.75ZM21.25 7.96429H3.75V5.75H21.25V7.96429Z" fill="#292929"/>
<path fill-rule="evenodd" clip-rule="evenodd" d="M6.25 13C6.25 12.5858 6.58579 12.25 7 12.25H11C11.4142 12.25 11.75 12.5858 11.75 13C11.75 13.4142 11.4142 13.75 11 13.75H7C6.58579 13.75 6.25 13.4142 6.25 13Z" fill="#292929"/>
</svg>
