<svg width="28" height="28" viewBox="0 0 28 28" fill="none" xmlns="http://www.w3.org/2000/svg">
<path d="M28 14C28 21.732 21.732 28 14 28C6.26801 28 0 21.732 0 14C0 6.26801 6.26801 0 14 0C21.732 0 28 6.26801 28 14Z" fill="white"/>
<path fill-rule="evenodd" clip-rule="evenodd" d="M14 27C21.1797 27 27 21.1797 27 14C27 6.8203 21.1797 1 14 1C6.8203 1 1 6.8203 1 14C1 21.1797 6.8203 27 14 27ZM14 28C21.732 28 28 21.732 28 14C28 6.26801 21.732 0 14 0C6.26801 0 0 6.26801 0 14C0 21.732 6.26801 28 14 28Z" fill="#24CE7B"/>
<path d="M16.0001 10.6667C16.0001 10.4899 16.0703 10.3203 16.1954 10.1953C16.3205 10.0702 16.4902 10 16.6671 10C16.844 10 17.0136 10.0702 17.1387 10.1953C17.2638 10.3203 17.3341 10.4899 17.3341 10.6667V17.3333C17.3341 17.5101 17.2638 17.6797 17.1387 17.8047C17.0136 17.9298 16.844 18 16.6671 18C16.4902 18 16.3205 17.9298 16.1954 17.8047C16.0703 17.6797 16.0001 17.5101 16.0001 17.3333V10.6667ZM10.6641 10.6667C10.6641 10.4899 10.7343 10.3203 10.8594 10.1953C10.9845 10.0702 11.1542 10 11.3311 10C11.508 10 11.6776 10.0702 11.8027 10.1953C11.9278 10.3203 11.9981 10.4899 11.9981 10.6667V17.3333C11.9981 17.5101 11.9278 17.6797 11.8027 17.8047C11.6776 17.9298 11.508 18 11.3311 18C11.1542 18 10.9845 17.9298 10.8594 17.8047C10.7343 17.6797 10.6641 17.5101 10.6641 17.3333V10.6667Z" fill="#24CE7B"/>
<path fill-rule="evenodd" clip-rule="evenodd" d="M11.3311 10.5C11.2867 10.5 11.2442 10.5176 11.2129 10.5489C11.1816 10.5802 11.1641 10.6225 11.1641 10.6667V17.3333C11.1641 17.3775 11.1816 17.4198 11.2129 17.4511C11.2442 17.4824 11.2867 17.5 11.3311 17.5C11.3754 17.5 11.4179 17.4824 11.4492 17.4511C11.4805 17.4198 11.4981 17.3775 11.4981 17.3333V10.6667C11.4981 10.6225 11.4805 10.5802 11.4492 10.5489C11.4179 10.5176 11.3754 10.5 11.3311 10.5ZM10.506 9.84162C10.7248 9.62286 11.0216 9.5 11.3311 9.5C11.6405 9.5 11.9373 9.62286 12.1562 9.84162C12.375 10.0604 12.4981 10.3572 12.4981 10.6667V17.3333C12.4981 17.6428 12.3751 17.9396 12.1562 18.1584C11.9373 18.3771 11.6405 18.5 11.3311 18.5C11.0216 18.5 10.7248 18.3771 10.506 18.1584C10.2871 17.9396 10.1641 17.6428 10.1641 17.3333V10.6667C10.1641 10.3572 10.2871 10.0604 10.506 9.84162ZM16.6671 10.5C16.6227 10.5 16.5802 10.5176 16.5489 10.5489C16.5176 10.5802 16.5001 10.6225 16.5001 10.6667V17.3333C16.5001 17.3775 16.5176 17.4198 16.5489 17.4511C16.5802 17.4824 16.6227 17.5 16.6671 17.5C16.7114 17.5 16.7539 17.4824 16.7852 17.4511C16.8165 17.4198 16.8341 17.3775 16.8341 17.3333V10.6667C16.8341 10.6225 16.8165 10.5802 16.7852 10.5489C16.7539 10.5176 16.7114 10.5 16.6671 10.5ZM15.842 9.84162C16.0608 9.62286 16.3576 9.5 16.6671 9.5C16.9765 9.5 17.2733 9.62286 17.4922 9.84162C17.7111 10.0604 17.8341 10.3572 17.8341 10.6667V17.3333C17.8341 17.6428 17.7111 17.9396 17.4922 18.1584C17.2733 18.3771 16.9765 18.5 16.6671 18.5C16.3576 18.5 16.0608 18.3771 15.842 18.1584C15.6231 17.9396 15.5001 17.6428 15.5001 17.3333V10.6667C15.5001 10.3572 15.6231 10.0604 15.842 9.84162Z" fill="#24CE7B"/>
</svg>
