<svg width="16" height="15" viewBox="0 0 16 15" fill="none" xmlns="http://www.w3.org/2000/svg">
<path fill-rule="evenodd" clip-rule="evenodd" d="M6.39926 1.5C6.18193 1.5 5.97898 1.60862 5.85842 1.78944L4.87404 3.26603C4.73494 3.47467 4.50076 3.6 4.25 3.6H3.55C2.41782 3.6 1.5 4.51782 1.5 5.65V10.55C1.5 11.6822 2.41782 12.6 3.55 12.6H11.95C13.0822 12.6 14 11.6822 14 10.55V5.65C14 4.51782 13.0822 3.6 11.95 3.6H11.25C10.9992 3.6 10.7651 3.47467 10.626 3.26603L9.64157 1.78944C9.52102 1.60862 9.31807 1.5 9.10074 1.5H6.39926ZM4.61035 0.957394C5.0091 0.359267 5.6804 0 6.39926 0H9.10074C9.8196 0 10.4909 0.359268 10.8897 0.957395L11.6514 2.1H11.95C13.9106 2.1 15.5 3.68939 15.5 5.65V10.55C15.5 12.5106 13.9106 14.1 11.95 14.1H3.55C1.58939 14.1 0 12.5106 0 10.55V5.65C0 3.68939 1.58939 2.1 3.55 2.1H3.84861L4.61035 0.957394ZM7.75 6.75C7.00442 6.75 6.4 7.35442 6.4 8.1C6.4 8.84558 7.00442 9.45 7.75 9.45C8.49558 9.45 9.1 8.84558 9.1 8.1C9.1 7.35442 8.49558 6.75 7.75 6.75ZM4.9 8.1C4.9 6.52599 6.17599 5.25 7.75 5.25C9.32401 5.25 10.6 6.52599 10.6 8.1C10.6 9.67401 9.32401 10.95 7.75 10.95C6.17599 10.95 4.9 9.67401 4.9 8.1Z" fill="#CCCCCC"/>
<path d="M8.44687 2.85625C8.44687 3.24285 8.13347 3.55625 7.74687 3.55625C7.36028 3.55625 7.04688 3.24285 7.04688 2.85625C7.04688 2.46965 7.36028 2.15625 7.74687 2.15625C8.13347 2.15625 8.44687 2.46965 8.44687 2.85625Z" fill="#CCCCCC"/>
</svg>
