<svg width="24" height="24" viewBox="0 0 24 24" fill="none" xmlns="http://www.w3.org/2000/svg">
<path fill-rule="evenodd" clip-rule="evenodd" d="M9 3.75C8.30964 3.75 7.75 4.30964 7.75 5V7C7.75 7.41421 7.41421 7.75 7 7.75C6.58579 7.75 6.25 7.41421 6.25 7V5C6.25 3.48122 7.48122 2.25 9 2.25H20C21.5188 2.25 22.75 3.48122 22.75 5V14C22.75 15.5188 21.5188 16.75 20 16.75H15C14.5858 16.75 14.25 16.4142 14.25 16C14.25 15.5858 14.5858 15.25 15 15.25H20C20.6904 15.25 21.25 14.6904 21.25 14V5C21.25 4.30964 20.6904 3.75 20 3.75H9ZM10.25 7.5C10.25 7.08579 10.5858 6.75 11 6.75H18C18.4142 6.75 18.75 7.08579 18.75 7.5C18.75 7.91421 18.4142 8.25 18 8.25H11C10.5858 8.25 10.25 7.91421 10.25 7.5ZM7 10.75C6.30964 10.75 5.75 11.3096 5.75 12C5.75 12.6904 6.30964 13.25 7 13.25C7.69036 13.25 8.25 12.6904 8.25 12C8.25 11.3096 7.69036 10.75 7 10.75ZM4.25 12C4.25 10.4812 5.48122 9.25 7 9.25C8.51878 9.25 9.75 10.4812 9.75 12C9.75 13.5188 8.51878 14.75 7 14.75C5.48122 14.75 4.25 13.5188 4.25 12ZM13.25 11.5C13.25 11.0858 13.5858 10.75 14 10.75H18C18.4142 10.75 18.75 11.0858 18.75 11.5C18.75 11.9142 18.4142 12.25 18 12.25H14C13.5858 12.25 13.25 11.9142 13.25 11.5ZM4 16.75C3.30964 16.75 2.75 17.3096 2.75 18V19C2.75 19.6904 3.30964 20.25 4 20.25H10C10.6904 20.25 11.25 19.6904 11.25 19V18C11.25 17.3096 10.6904 16.75 10 16.75H9.82843C9.49691 16.75 9.17896 16.8817 8.94454 17.1161C7.8706 18.1901 6.1294 18.1901 5.05546 17.1161C4.82104 16.8817 4.50309 16.75 4.17157 16.75H4ZM1.25 18C1.25 16.4812 2.48122 15.25 4 15.25H4.17157C4.90092 15.25 5.60039 15.5397 6.11612 16.0555C6.60427 16.5436 7.39573 16.5436 7.88388 16.0555C8.39961 15.5397 9.09908 15.25 9.82843 15.25H10C11.5188 15.25 12.75 16.4812 12.75 18V19C12.75 20.5188 11.5188 21.75 10 21.75H4C2.48122 21.75 1.25 20.5188 1.25 19V18Z" fill="#222222"/>
</svg>
