<svg width="30" height="30" viewBox="0 0 30 30" fill="none" xmlns="http://www.w3.org/2000/svg">
<path fill-rule="evenodd" clip-rule="evenodd" d="M16.721 4.95076C15.6788 4.256 14.3212 4.256 13.279 4.95076L5.38157 10.2157C4.51844 10.7911 4 11.7599 4 12.7972V22.8717C4 24.5852 5.38907 25.9742 7.10256 25.9742H11.6154C12.0827 25.9742 12.4615 25.5954 12.4615 25.1281V19.4871C12.4615 18.7082 13.0929 18.0768 13.8718 18.0768H16.1282C16.9071 18.0768 17.5385 18.7082 17.5385 19.4871V25.1281C17.5385 25.5954 17.9173 25.9742 18.3846 25.9742H22.8974C24.6109 25.9742 26 24.5852 26 22.8717V12.7972C26 11.7599 25.4816 10.7911 24.6184 10.2157L16.721 4.95076ZM14.2177 6.35885C14.6914 6.04304 15.3086 6.04304 15.7823 6.35885L23.6797 11.6238C24.072 11.8854 24.3077 12.3257 24.3077 12.7972V22.8717C24.3077 23.6505 23.6763 24.2819 22.8974 24.2819H19.2308V19.4871C19.2308 17.7736 17.8417 16.3845 16.1282 16.3845H13.8718C12.1583 16.3845 10.7692 17.7736 10.7692 19.4871V24.2819H7.10256C6.3237 24.2819 5.69231 23.6505 5.69231 22.8717V12.7972C5.69231 12.3257 5.92796 11.8854 6.32029 11.6238L14.2177 6.35885Z" fill="#444444"/>
</svg>
