<svg width="20" height="20" viewBox="0 0 20 20" fill="none" xmlns="http://www.w3.org/2000/svg">
<path d="M3.28286 13.334L3.95446 13.0002L3.28286 13.334ZM2.50353 17.5L1.81118 17.2117C1.71478 17.4431 1.74043 17.7075 1.87953 17.9161C2.01863 18.1247 2.25279 18.25 2.50353 18.25V17.5ZM16.7529 10C16.7529 13.7279 13.7308 16.75 10.0029 16.75V18.25C14.5593 18.25 18.2529 14.5563 18.2529 10H16.7529ZM3.25293 10C3.25293 6.27208 6.275 3.25 10.0029 3.25V1.75C5.44658 1.75 1.75293 5.44365 1.75293 10H3.25293ZM10.0029 3.25C13.7308 3.25 16.7529 6.27208 16.7529 10H18.2529C18.2529 5.44365 14.5593 1.75 10.0029 1.75V3.25ZM3.95446 13.0002C3.50565 12.0973 3.25293 11.0792 3.25293 10H1.75293C1.75293 11.316 2.06163 12.5621 2.61125 13.6678L3.95446 13.0002ZM10.0029 16.75C9.99961 16.75 9.99628 16.75 9.99294 16.75C9.98959 16.75 9.98623 16.75 9.98285 16.75C9.97948 16.75 9.97608 16.75 9.97268 16.75C9.96927 16.75 9.96584 16.75 9.96241 16.75C9.95897 16.75 9.95551 16.75 9.95204 16.75C9.94858 16.75 9.94509 16.75 9.94159 16.75C9.93809 16.75 9.93458 16.75 9.93105 16.75C9.92752 16.75 9.92397 16.75 9.92041 16.75C9.91685 16.75 9.91327 16.75 9.90968 16.75C9.90609 16.75 9.90249 16.75 9.89887 16.75C9.89525 16.75 9.89161 16.75 9.88796 16.75C9.88431 16.75 9.88065 16.75 9.87697 16.75C9.87329 16.75 9.86959 16.75 9.86588 16.75C9.86218 16.75 9.85845 16.75 9.85471 16.75C9.85097 16.75 9.84722 16.75 9.84345 16.75C9.83969 16.75 9.8359 16.75 9.83211 16.75C9.82831 16.75 9.8245 16.75 9.82067 16.75C9.81685 16.75 9.81301 16.75 9.80915 16.75C9.8053 16.75 9.80143 16.75 9.79755 16.75C9.79366 16.75 9.78977 16.75 9.78586 16.75C9.78194 16.75 9.77802 16.75 9.77408 16.75C9.77014 16.75 9.76619 16.75 9.76222 16.75C9.75825 16.75 9.75427 16.75 9.75027 16.75C9.74628 16.75 9.74227 16.75 9.73824 16.75C9.73422 16.75 9.73018 16.75 9.72613 16.75C9.72208 16.75 9.71801 16.75 9.71394 16.75C9.70986 16.75 9.70576 16.75 9.70166 16.75C9.69755 16.75 9.69343 16.75 9.6893 16.75C9.68516 16.75 9.68102 16.75 9.67686 16.75C9.6727 16.75 9.66852 16.75 9.66433 16.75C9.66015 16.75 9.65594 16.75 9.65173 16.75C9.64752 16.75 9.64329 16.75 9.63905 16.75C9.63481 16.75 9.63055 16.75 9.62628 16.75C9.62202 16.75 9.61773 16.75 9.61344 16.75C9.60915 16.75 9.60484 16.75 9.60052 16.75C9.5962 16.75 9.59187 16.75 9.58752 16.75C9.58317 16.75 9.57881 16.75 9.57444 16.75C9.57007 16.75 9.56568 16.75 9.56129 16.75C9.55689 16.75 9.55248 16.75 9.54805 16.75C9.54363 16.75 9.53919 16.75 9.53474 16.75C9.53029 16.75 9.52583 16.75 9.52136 16.75C9.51688 16.75 9.5124 16.75 9.5079 16.75C9.5034 16.75 9.49888 16.75 9.49436 16.75C9.48983 16.75 9.4853 16.75 9.48075 16.75C9.4762 16.75 9.47164 16.75 9.46706 16.75C9.46249 16.75 9.4579 16.75 9.4533 16.75C9.4487 16.75 9.44409 16.75 9.43947 16.75C9.43484 16.75 9.43021 16.75 9.42556 16.75C9.42091 16.75 9.41625 16.75 9.41158 16.75C9.40691 16.75 9.40222 16.75 9.39753 16.75C9.39283 16.75 9.38812 16.75 9.3834 16.75C9.37868 16.75 9.37395 16.75 9.36921 16.75C9.36447 16.75 9.35971 16.75 9.35494 16.75C9.35018 16.75 9.3454 16.75 9.34061 16.75C9.33582 16.75 9.33101 16.75 9.3262 16.75C9.32139 16.75 9.31656 16.75 9.31172 16.75C9.30689 16.75 9.30204 16.75 9.29718 16.75C9.29232 16.75 9.28745 16.75 9.28256 16.75C9.27768 16.75 9.27279 16.75 9.26788 16.75C9.26298 16.75 9.25806 16.75 9.25313 16.75C9.2482 16.75 9.24326 16.75 9.23831 16.75C9.23336 16.75 9.2284 16.75 9.22343 16.75C9.21846 16.75 9.21347 16.75 9.20848 16.75C9.20348 16.75 9.19848 16.75 9.19346 16.75C9.18844 16.75 9.18342 16.75 9.17838 16.75C9.17334 16.75 9.16829 16.75 9.16323 16.75C9.15817 16.75 9.1531 16.75 9.14802 16.75C9.14294 16.75 9.13784 16.75 9.13274 16.75C9.12764 16.75 9.12252 16.75 9.1174 16.75C9.11228 16.75 9.10714 16.75 9.102 16.75C9.09685 16.75 9.09169 16.75 9.08653 16.75C9.08136 16.75 9.07619 16.75 9.071 16.75C9.06581 16.75 9.06061 16.75 9.05541 16.75C9.0502 16.75 9.04498 16.75 9.03975 16.75C9.03453 16.75 9.02929 16.75 9.02404 16.75C9.01879 16.75 9.01353 16.75 9.00826 16.75C9.003 16.75 8.99772 16.75 8.99243 16.75C8.98714 16.75 8.98184 16.75 8.97653 16.75C8.97122 16.75 8.96591 16.75 8.96058 16.75C8.95525 16.75 8.94991 16.75 8.94456 16.75C8.93922 16.75 8.93386 16.75 8.92849 16.75C8.92312 16.75 8.91775 16.75 8.91236 16.75C8.90697 16.75 8.90158 16.75 8.89617 16.75C8.89077 16.75 8.88535 16.75 8.87993 16.75C8.8745 16.75 8.86907 16.75 8.86362 16.75C8.85818 16.75 8.85273 16.75 8.84727 16.75C8.8418 16.75 8.83633 16.75 8.83085 16.75C8.82537 16.75 8.81988 16.75 8.81438 16.75C8.80888 16.75 8.80337 16.75 8.79786 16.75C8.79234 16.75 8.78681 16.75 8.78128 16.75C8.77574 16.75 8.7702 16.75 8.76464 16.75C8.75909 16.75 8.75353 16.75 8.74796 16.75C8.74239 16.75 8.73681 16.75 8.73122 16.75C8.72563 16.75 8.72003 16.75 8.71442 16.75C8.70882 16.75 8.7032 16.75 8.69758 16.75C8.69196 16.75 8.68632 16.75 8.68068 16.75C8.67504 16.75 8.66939 16.75 8.66373 16.75C8.65807 16.75 8.65241 16.75 8.64673 16.75C8.64106 16.75 8.63537 16.75 8.62968 16.75C8.62399 16.75 8.61829 16.75 8.61258 16.75C8.60687 16.75 8.60116 16.75 8.59543 16.75C8.58971 16.75 8.58397 16.75 8.57823 16.75C8.57249 16.75 8.56674 16.75 8.56099 16.75C8.55523 16.75 8.54946 16.75 8.54369 16.75C8.53792 16.75 8.53213 16.75 8.52634 16.75C8.52056 16.75 8.51476 16.75 8.50895 16.75C8.50315 16.75 8.49733 16.75 8.49151 16.75C8.48569 16.75 8.47986 16.75 8.47403 16.75C8.46819 16.75 8.46235 16.75 8.4565 16.75C8.45065 16.75 8.44479 16.75 8.43892 16.75C8.43305 16.75 8.42718 16.75 8.4213 16.75C8.41542 16.75 8.40953 16.75 8.40363 16.75C8.39773 16.75 8.39183 16.75 8.38592 16.75C8.38001 16.75 8.37409 16.75 8.36816 16.75C8.36224 16.75 8.3563 16.75 8.35036 16.75C8.34442 16.75 8.33848 16.75 8.33252 16.75C8.32657 16.75 8.32061 16.75 8.31464 16.75C8.30867 16.75 8.30269 16.75 8.29671 16.75C8.29073 16.75 8.28474 16.75 8.27874 16.75C8.27275 16.75 8.26674 16.75 8.26073 16.75C8.25472 16.75 8.24871 16.75 8.24268 16.75C8.23666 16.75 8.23063 16.75 8.22459 16.75C8.21855 16.75 8.21251 16.75 8.20646 16.75C8.20041 16.75 8.19435 16.75 8.18829 16.75C8.18223 16.75 8.17616 16.75 8.17008 16.75C8.164 16.75 8.15792 16.75 8.15183 16.75C8.14574 16.75 8.13965 16.75 8.13355 16.75C8.12744 16.75 8.12134 16.75 8.11522 16.75C8.10911 16.75 8.10299 16.75 8.09686 16.75C8.09073 16.75 8.0846 16.75 8.07846 16.75C8.07232 16.75 8.06618 16.75 8.06003 16.75C8.05388 16.75 8.04772 16.75 8.04156 16.75C8.0354 16.75 8.02923 16.75 8.02305 16.75C8.01688 16.75 8.0107 16.75 8.00451 16.75C7.99833 16.75 7.99213 16.75 7.98594 16.75C7.97974 16.75 7.97354 16.75 7.96733 16.75C7.96112 16.75 7.9549 16.75 7.94868 16.75C7.94246 16.75 7.93624 16.75 7.93001 16.75C7.92378 16.75 7.91754 16.75 7.9113 16.75C7.90506 16.75 7.89881 16.75 7.89256 16.75C7.8863 16.75 7.88005 16.75 7.87378 16.75C7.86752 16.75 7.86125 16.75 7.85498 16.75C7.8487 16.75 7.84242 16.75 7.83614 16.75C7.82986 16.75 7.82357 16.75 7.81727 16.75C7.81098 16.75 7.80468 16.75 7.79838 16.75C7.79207 16.75 7.78576 16.75 7.77945 16.75C7.77314 16.75 7.76682 16.75 7.76049 16.75C7.75417 16.75 7.74784 16.75 7.74151 16.75C7.73517 16.75 7.72884 16.75 7.72249 16.75C7.71615 16.75 7.7098 16.75 7.70345 16.75C7.6971 16.75 7.69074 16.75 7.68438 16.75C7.67802 16.75 7.67166 16.75 7.66529 16.75C7.65892 16.75 7.65254 16.75 7.64616 16.75C7.63979 16.75 7.6334 16.75 7.62702 16.75C7.62063 16.75 7.61424 16.75 7.60784 16.75C7.60145 16.75 7.59505 16.75 7.58864 16.75C7.58224 16.75 7.57583 16.75 7.56942 16.75C7.563 16.75 7.55659 16.75 7.55017 16.75C7.54375 16.75 7.53732 16.75 7.53089 16.75C7.52447 16.75 7.51803 16.75 7.5116 16.75C7.50516 16.75 7.49872 16.75 7.49228 16.75C7.48583 16.75 7.47939 16.75 7.47293 16.75C7.46648 16.75 7.46003 16.75 7.45357 16.75C7.44711 16.75 7.44065 16.75 7.43418 16.75C7.42772 16.75 7.42125 16.75 7.41477 16.75C7.4083 16.75 7.40183 16.75 7.39535 16.75C7.38887 16.75 7.38238 16.75 7.3759 16.75C7.36941 16.75 7.36292 16.75 7.35643 16.75C7.34993 16.75 7.34344 16.75 7.33694 16.75C7.33044 16.75 7.32394 16.75 7.31743 16.75C7.31093 16.75 7.30442 16.75 7.2979 16.75C7.29139 16.75 7.28488 16.75 7.27836 16.75C7.27184 16.75 7.26532 16.75 7.2588 16.75C7.25227 16.75 7.24575 16.75 7.23922 16.75C7.23269 16.75 7.22615 16.75 7.21962 16.75C7.21308 16.75 7.20655 16.75 7.20001 16.75C7.19347 16.75 7.18692 16.75 7.18038 16.75C7.17383 16.75 7.16728 16.75 7.16073 16.75C7.15418 16.75 7.14763 16.75 7.14107 16.75C7.13452 16.75 7.12796 16.75 7.1214 16.75C7.11484 16.75 7.10827 16.75 7.10171 16.75C7.09514 16.75 7.08858 16.75 7.08201 16.75C7.07544 16.75 7.06886 16.75 7.06229 16.75C7.05572 16.75 7.04914 16.75 7.04256 16.75C7.03598 16.75 7.0294 16.75 7.02282 16.75C7.01624 16.75 7.00965 16.75 7.00307 16.75C6.99648 16.75 6.98989 16.75 6.9833 16.75C6.97671 16.75 6.97012 16.75 6.96352 16.75C6.95693 16.75 6.95034 16.75 6.94374 16.75C6.93714 16.75 6.93054 16.75 6.92394 16.75C6.91734 16.75 6.91074 16.75 6.90413 16.75C6.89753 16.75 6.89092 16.75 6.88432 16.75C6.87771 16.75 6.8711 16.75 6.86449 16.75C6.85788 16.75 6.85127 16.75 6.84466 16.75C6.83805 16.75 6.83143 16.75 6.82482 16.75C6.8182 16.75 6.81158 16.75 6.80497 16.75C6.79835 16.75 6.79173 16.75 6.78511 16.75C6.77849 16.75 6.77187 16.75 6.76525 16.75C6.75863 16.75 6.752 16.75 6.74538 16.75C6.73875 16.75 6.73213 16.75 6.7255 16.75C6.71888 16.75 6.71225 16.75 6.70562 16.75C6.69899 16.75 6.69237 16.75 6.68574 16.75C6.67911 16.75 6.67248 16.75 6.66585 16.75C6.65922 16.75 6.65258 16.75 6.64595 16.75C6.63932 16.75 6.63269 16.75 6.62605 16.75C6.61942 16.75 6.61279 16.75 6.60615 16.75C6.59952 16.75 6.59288 16.75 6.58625 16.75C6.57961 16.75 6.57298 16.75 6.56634 16.75C6.55971 16.75 6.55307 16.75 6.54644 16.75C6.5398 16.75 6.53316 16.75 6.52653 16.75C6.51989 16.75 6.51325 16.75 6.50662 16.75C6.49998 16.75 6.49334 16.75 6.48671 16.75C6.48007 16.75 6.47343 16.75 6.46679 16.75C6.46016 16.75 6.45352 16.75 6.44688 16.75C6.44025 16.75 6.43361 16.75 6.42697 16.75C6.42034 16.75 6.4137 16.75 6.40707 16.75C6.40043 16.75 6.39379 16.75 6.38716 16.75C6.38052 16.75 6.37389 16.75 6.36726 16.75C6.36062 16.75 6.35399 16.75 6.34735 16.75C6.34072 16.75 6.33409 16.75 6.32745 16.75C6.32082 16.75 6.31419 16.75 6.30756 16.75C6.30093 16.75 6.2943 16.75 6.28767 16.75C6.28104 16.75 6.27441 16.75 6.26778 16.75C6.26115 16.75 6.25452 16.75 6.2479 16.75C6.24127 16.75 6.23465 16.75 6.22802 16.75C6.2214 16.75 6.21477 16.75 6.20815 16.75C6.20153 16.75 6.19491 16.75 6.18828 16.75C6.18166 16.75 6.17504 16.75 6.16843 16.75C6.16181 16.75 6.15519 16.75 6.14857 16.75C6.14196 16.75 6.13534 16.75 6.12873 16.75C6.12212 16.75 6.1155 16.75 6.10889 16.75C6.10228 16.75 6.09567 16.75 6.08907 16.75C6.08246 16.75 6.07585 16.75 6.06925 16.75C6.06264 16.75 6.05604 16.75 6.04944 16.75C6.04284 16.75 6.03624 16.75 6.02964 16.75C6.02304 16.75 6.01644 16.75 6.00985 16.75C6.00325 16.75 5.99666 16.75 5.99007 16.75C5.98348 16.75 5.97689 16.75 5.9703 16.75C5.96371 16.75 5.95713 16.75 5.95054 16.75C5.94396 16.75 5.93738 16.75 5.9308 16.75C5.92422 16.75 5.91764 16.75 5.91106 16.75C5.90449 16.75 5.89792 16.75 5.89134 16.75C5.88477 16.75 5.8782 16.75 5.87164 16.75C5.86507 16.75 5.85851 16.75 5.85194 16.75C5.84538 16.75 5.83882 16.75 5.83226 16.75C5.82571 16.75 5.81915 16.75 5.8126 16.75C5.80605 16.75 5.7995 16.75 5.79295 16.75C5.7864 16.75 5.77986 16.75 5.77332 16.75C5.76677 16.75 5.76024 16.75 5.7537 16.75C5.74716 16.75 5.74063 16.75 5.7341 16.75C5.72757 16.75 5.72104 16.75 5.71451 16.75C5.70799 16.75 5.70146 16.75 5.69494 16.75C5.68842 16.75 5.68191 16.75 5.67539 16.75C5.66888 16.75 5.66237 16.75 5.65586 16.75C5.64935 16.75 5.64285 16.75 5.63635 16.75C5.62985 16.75 5.62335 16.75 5.61685 16.75C5.61036 16.75 5.60387 16.75 5.59738 16.75C5.59089 16.75 5.5844 16.75 5.57792 16.75C5.57144 16.75 5.56496 16.75 5.55849 16.75C5.55201 16.75 5.54554 16.75 5.53907 16.75C5.5326 16.75 5.52614 16.75 5.51968 16.75C5.51322 16.75 5.50676 16.75 5.50031 16.75C5.49385 16.75 5.4874 16.75 5.48096 16.75C5.47451 16.75 5.46807 16.75 5.46163 16.75C5.45519 16.75 5.44876 16.75 5.44233 16.75C5.4359 16.75 5.42947 16.75 5.42305 16.75C5.41662 16.75 5.41021 16.75 5.40379 16.75C5.39738 16.75 5.39096 16.75 5.38456 16.75C5.37815 16.75 5.37175 16.75 5.36535 16.75C5.35895 16.75 5.35256 16.75 5.34617 16.75C5.33978 16.75 5.33339 16.75 5.32701 16.75C5.32063 16.75 5.31425 16.75 5.30788 16.75C5.30151 16.75 5.29514 16.75 5.28878 16.75C5.28241 16.75 5.27605 16.75 5.2697 16.75C5.26334 16.75 5.25699 16.75 5.25065 16.75C5.2443 16.75 5.23796 16.75 5.23163 16.75C5.22529 16.75 5.21896 16.75 5.21263 16.75C5.20631 16.75 5.19998 16.75 5.19367 16.75C5.18735 16.75 5.18104 16.75 5.17473 16.75C5.16842 16.75 5.16212 16.75 5.15583 16.75C5.14953 16.75 5.14324 16.75 5.13695 16.75C5.13066 16.75 5.12438 16.75 5.1181 16.75C5.11183 16.75 5.10556 16.75 5.09929 16.75C5.09302 16.75 5.08676 16.75 5.08051 16.75C5.07425 16.75 5.068 16.75 5.06175 16.75C5.05551 16.75 5.04927 16.75 5.04303 16.75C5.0368 16.75 5.03057 16.75 5.02435 16.75C5.01812 16.75 5.01191 16.75 5.00569 16.75C4.99948 16.75 4.99327 16.75 4.98707 16.75C4.98087 16.75 4.97468 16.75 4.96849 16.75C4.9623 16.75 4.95611 16.75 4.94994 16.75C4.94376 16.75 4.93759 16.75 4.93142 16.75C4.92525 16.75 4.91909 16.75 4.91294 16.75C4.90678 16.75 4.90064 16.75 4.89449 16.75C4.88835 16.75 4.88222 16.75 4.87608 16.75C4.86995 16.75 4.86383 16.75 4.85771 16.75C4.85159 16.75 4.84548 16.75 4.83938 16.75C4.83327 16.75 4.82717 16.75 4.82108 16.75C4.81499 16.75 4.8089 16.75 4.80282 16.75C4.79674 16.75 4.79067 16.75 4.7846 16.75C4.77853 16.75 4.77247 16.75 4.76642 16.75C4.76036 16.75 4.75431 16.75 4.74827 16.75C4.74223 16.75 4.7362 16.75 4.73017 16.75C4.72414 16.75 4.71812 16.75 4.71211 16.75C4.70609 16.75 4.70009 16.75 4.69409 16.75C4.68808 16.75 4.68209 16.75 4.6761 16.75C4.67012 16.75 4.66414 16.75 4.65816 16.75C4.65219 16.75 4.64623 16.75 4.64027 16.75C4.63431 16.75 4.62836 16.75 4.62241 16.75C4.61647 16.75 4.61053 16.75 4.6046 16.75C4.59867 16.75 4.59275 16.75 4.58683 16.75C4.58092 16.75 4.57501 16.75 4.56911 16.75C4.56321 16.75 4.55731 16.75 4.55143 16.75C4.54554 16.75 4.53966 16.75 4.53379 16.75C4.52792 16.75 4.52205 16.75 4.5162 16.75C4.51034 16.75 4.50449 16.75 4.49865 16.75C4.49281 16.75 4.48698 16.75 4.48115 16.75C4.47533 16.75 4.46951 16.75 4.4637 16.75C4.45789 16.75 4.45209 16.75 4.44629 16.75C4.4405 16.75 4.43471 16.75 4.42894 16.75C4.42316 16.75 4.41739 16.75 4.41162 16.75C4.40586 16.75 4.40011 16.75 4.39436 16.75C4.38862 16.75 4.38288 16.75 4.37715 16.75C4.37142 16.75 4.3657 16.75 4.35998 16.75C4.35427 16.75 4.34856 16.75 4.34287 16.75C4.33717 16.75 4.33148 16.75 4.3258 16.75C4.32012 16.75 4.31445 16.75 4.30879 16.75C4.30312 16.75 4.29747 16.75 4.29182 16.75C4.28618 16.75 4.28054 16.75 4.27491 16.75C4.26928 16.75 4.26366 16.75 4.25805 16.75C4.25244 16.75 4.24683 16.75 4.24124 16.75C4.23564 16.75 4.23006 16.75 4.22448 16.75C4.2189 16.75 4.21334 16.75 4.20778 16.75C4.20222 16.75 4.19667 16.75 4.19113 16.75C4.18559 16.75 4.18006 16.75 4.17453 16.75C4.16901 16.75 4.1635 16.75 4.15799 16.75C4.15249 16.75 4.14699 16.75 4.1415 16.75C4.13602 16.75 4.13054 16.75 4.12507 16.75C4.11961 16.75 4.11415 16.75 4.1087 16.75C4.10325 16.75 4.09781 16.75 4.09238 16.75C4.08695 16.75 4.08153 16.75 4.07612 16.75C4.0707 16.75 4.0653 16.75 4.05991 16.75C4.05452 16.75 4.04914 16.75 4.04376 16.75C4.03839 16.75 4.03303 16.75 4.02767 16.75C4.02232 16.75 4.01697 16.75 4.01164 16.75C4.00631 16.75 4.00098 16.75 3.99567 16.75C3.99035 16.75 3.98505 16.75 3.97975 16.75C3.97446 16.75 3.96917 16.75 3.9639 16.75C3.95862 16.75 3.95336 16.75 3.94811 16.75C3.94285 16.75 3.93761 16.75 3.93237 16.75C3.92714 16.75 3.92191 16.75 3.9167 16.75C3.91149 16.75 3.90628 16.75 3.90109 16.75C3.8959 16.75 3.89071 16.75 3.88554 16.75C3.88037 16.75 3.87521 16.75 3.87005 16.75C3.8649 16.75 3.85976 16.75 3.85463 16.75C3.8495 16.75 3.84438 16.75 3.83927 16.75C3.83416 16.75 3.82906 16.75 3.82397 16.75C3.81889 16.75 3.81381 16.75 3.80874 16.75C3.80368 16.75 3.79862 16.75 3.79357 16.75C3.78853 16.75 3.7835 16.75 3.77847 16.75C3.77345 16.75 3.76844 16.75 3.76343 16.75C3.75843 16.75 3.75344 16.75 3.74846 16.75C3.74348 16.75 3.73852 16.75 3.73356 16.75C3.7286 16.75 3.72366 16.75 3.71872 16.75C3.71379 16.75 3.70886 16.75 3.70395 16.75C3.69904 16.75 3.69414 16.75 3.68925 16.75C3.68436 16.75 3.67948 16.75 3.67461 16.75C3.66974 16.75 3.66489 16.75 3.66005 16.75C3.6552 16.75 3.65037 16.75 3.64555 16.75C3.64073 16.75 3.63592 16.75 3.63112 16.75C3.62632 16.75 3.62154 16.75 3.61676 16.75C3.61199 16.75 3.60723 16.75 3.60247 16.75C3.59772 16.75 3.59298 16.75 3.58826 16.75C3.58353 16.75 3.57882 16.75 3.57411 16.75C3.56941 16.75 3.56472 16.75 3.56004 16.75C3.55536 16.75 3.55069 16.75 3.54604 16.75C3.54138 16.75 3.53674 16.75 3.53211 16.75C3.52748 16.75 3.52286 16.75 3.51825 16.75C3.51364 16.75 3.50905 16.75 3.50447 16.75C3.49989 16.75 3.49532 16.75 3.49076 16.75C3.4862 16.75 3.48166 16.75 3.47712 16.75C3.47259 16.75 3.46807 16.75 3.46356 16.75C3.45906 16.75 3.45456 16.75 3.45008 16.75C3.4456 16.75 3.44113 16.75 3.43667 16.75C3.43221 16.75 3.42777 16.75 3.42334 16.75C3.41891 16.75 3.41449 16.75 3.41008 16.75C3.40568 16.75 3.40128 16.75 3.3969 16.75C3.39252 16.75 3.38816 16.75 3.3838 16.75C3.37945 16.75 3.37511 16.75 3.37078 16.75C3.36645 16.75 3.36213 16.75 3.35783 16.75C3.35353 16.75 3.34924 16.75 3.34497 16.75C3.34069 16.75 3.33643 16.75 3.33218 16.75C3.32793 16.75 3.32369 16.75 3.31947 16.75C3.31525 16.75 3.31104 16.75 3.30684 16.75C3.30265 16.75 3.29846 16.75 3.2943 16.75C3.29013 16.75 3.28597 16.75 3.28183 16.75C3.27769 16.75 3.27356 16.75 3.26944 16.75C3.26533 16.75 3.26123 16.75 3.25714 16.75C3.25305 16.75 3.24898 16.75 3.24492 16.75C3.24086 16.75 3.23681 16.75 3.23278 16.75C3.22875 16.75 3.22473 16.75 3.22073 16.75C3.21672 16.75 3.21273 16.75 3.20876 16.75C3.20478 16.75 3.20082 16.75 3.19687 16.75C3.19292 16.75 3.18899 16.75 3.18507 16.75C3.18115 16.75 3.17724 16.75 3.17335 16.75C3.16946 16.75 3.16558 16.75 3.16172 16.75C3.15786 16.75 3.15401 16.75 3.15017 16.75C3.14634 16.75 3.14252 16.75 3.13871 16.75C3.13491 16.75 3.13112 16.75 3.12734 16.75C3.12356 16.75 3.1198 16.75 3.11605 16.75C3.11231 16.75 3.10857 16.75 3.10485 16.75C3.10114 16.75 3.09743 16.75 3.09374 16.75C3.09006 16.75 3.08638 16.75 3.08272 16.75C3.07906 16.75 3.07542 16.75 3.07179 16.75C3.06816 16.75 3.06455 16.75 3.06095 16.75C3.05735 16.75 3.05376 16.75 3.05019 16.75C3.04662 16.75 3.04307 16.75 3.03953 16.75C3.03599 16.75 3.03247 16.75 3.02896 16.75C3.02545 16.75 3.02195 16.75 3.01848 16.75C3.015 16.75 3.01153 16.75 3.00809 16.75C3.00464 16.75 3.00121 16.75 2.99779 16.75C2.99437 16.75 2.99097 16.75 2.98758 16.75C2.9842 16.75 2.98083 16.75 2.97747 16.75C2.97412 16.75 2.97078 16.75 2.96745 16.75C2.96413 16.75 2.96082 16.75 2.95753 16.75C2.95423 16.75 2.95096 16.75 2.9477 16.75C2.94444 16.75 2.94119 16.75 2.93796 16.75C2.93473 16.75 2.93152 16.75 2.92832 16.75C2.92512 16.75 2.92194 16.75 2.91877 16.75C2.91561 16.75 2.91246 16.75 2.90933 16.75C2.90619 16.75 2.90307 16.75 2.89997 16.75C2.89687 16.75 2.89379 16.75 2.89072 16.75C2.88765 16.75 2.88459 16.75 2.88156 16.75C2.87852 16.75 2.8755 16.75 2.8725 16.75C2.86949 16.75 2.86651 16.75 2.86354 16.75C2.86056 16.75 2.85761 16.75 2.85467 16.75C2.85173 16.75 2.84881 16.75 2.84591 16.75C2.843 16.75 2.84011 16.75 2.83724 16.75C2.83437 16.75 2.83152 16.75 2.82868 16.75C2.82584 16.75 2.82302 16.75 2.82021 16.75C2.81741 16.75 2.81462 16.75 2.81185 16.75C2.80908 16.75 2.80632 16.75 2.80359 16.75C2.80085 16.75 2.79813 16.75 2.79543 16.75C2.79272 16.75 2.79004 16.75 2.78737 16.75C2.7847 16.75 2.78205 16.75 2.77941 16.75C2.77678 16.75 2.77416 16.75 2.77156 16.75C2.76896 16.75 2.76638 16.75 2.76381 16.75C2.76125 16.75 2.7587 16.75 2.75617 16.75C2.75364 16.75 2.75112 16.75 2.74863 16.75C2.74613 16.75 2.74365 16.75 2.74119 16.75C2.73873 16.75 2.73629 16.75 2.73386 16.75C2.73144 16.75 2.72903 16.75 2.72664 16.75C2.72425 16.75 2.72188 16.75 2.71952 16.75C2.71717 16.75 2.71483 16.75 2.71251 16.75C2.71019 16.75 2.70789 16.75 2.70561 16.75C2.70332 16.75 2.70106 16.75 2.69881 16.75C2.69656 16.75 2.69433 16.75 2.69212 16.75C2.68991 16.75 2.68772 16.75 2.68554 16.75C2.68336 16.75 2.68121 16.75 2.67907 16.75C2.67693 16.75 2.67481 16.75 2.67271 16.75C2.6706 16.75 2.66852 16.75 2.66645 16.75C2.66439 16.75 2.66234 16.75 2.66031 16.75C2.65828 16.75 2.65627 16.75 2.65428 16.75C2.65229 16.75 2.65032 16.75 2.64836 16.75C2.64641 16.75 2.64447 16.75 2.64255 16.75C2.64064 16.75 2.63874 16.75 2.63686 16.75C2.63498 16.75 2.63311 16.75 2.63127 16.75C2.62943 16.75 2.62761 16.75 2.6258 16.75C2.624 16.75 2.62221 16.75 2.62044 16.75C2.61868 16.75 2.61693 16.75 2.6152 16.75C2.61347 16.75 2.61176 16.75 2.61007 16.75C2.60838 16.75 2.60671 16.75 2.60505 16.75C2.6034 16.75 2.60177 16.75 2.60015 16.75C2.59854 16.75 2.59694 16.75 2.59537 16.75C2.59379 16.75 2.59224 16.75 2.5907 16.75C2.58916 16.75 2.58764 16.75 2.58615 16.75C2.58465 16.75 2.58317 16.75 2.58171 16.75C2.58025 16.75 2.57881 16.75 2.57739 16.75C2.57597 16.75 2.57457 16.75 2.57319 16.75C2.57181 16.75 2.57045 16.75 2.56911 16.75C2.56777 16.75 2.56645 16.75 2.56515 16.75C2.56385 16.75 2.56256 16.75 2.5613 16.75C2.56004 16.75 2.5588 16.75 2.55758 16.75C2.55636 16.75 2.55515 16.75 2.55397 16.75C2.55279 16.75 2.55163 16.75 2.55049 16.75C2.54935 16.75 2.54822 16.75 2.54712 16.75C2.54602 16.75 2.54494 16.75 2.54388 16.75C2.54282 16.75 2.54178 16.75 2.54076 16.75C2.53974 16.75 2.53874 16.75 2.53776 16.75C2.53678 16.75 2.53582 16.75 2.53489 16.75C2.53395 16.75 2.53303 16.75 2.53213 16.75C2.53124 16.75 2.53036 16.75 2.5295 16.75C2.52865 16.75 2.52781 16.75 2.527 16.75C2.52618 16.75 2.52539 16.75 2.52462 16.75C2.52384 16.75 2.52309 16.75 2.52236 16.75C2.52163 16.75 2.52092 16.75 2.52023 16.75C2.51954 16.75 2.51887 16.75 2.51822 16.75C2.51758 16.75 2.51695 16.75 2.51634 16.75C2.51574 16.75 2.51516 16.75 2.51459 16.75C2.51403 16.75 2.51349 16.75 2.51297 16.75C2.51245 16.75 2.51195 16.75 2.51147 16.75C2.51099 16.75 2.51053 16.75 2.5101 16.75C2.50966 16.75 2.50925 16.75 2.50886 16.75C2.50846 16.75 2.50809 16.75 2.50774 16.75C2.50739 16.75 2.50707 16.75 2.50676 16.75C2.50645 16.75 2.50617 16.75 2.50591 16.75C2.50564 16.75 2.5054 16.75 2.50518 16.75C2.50496 16.75 2.50477 16.75 2.50459 16.75C2.50441 16.75 2.50426 16.75 2.50413 16.75C2.504 16.75 2.50389 16.75 2.5038 16.75C2.50371 16.75 2.50364 16.75 2.5036 16.75C2.50355 16.75 2.50353 16.75 2.50353 17.5C2.50353 18.25 2.50355 18.25 2.5036 18.25C2.50364 18.25 2.50371 18.25 2.5038 18.25C2.50389 18.25 2.504 18.25 2.50413 18.25C2.50426 18.25 2.50441 18.25 2.50459 18.25C2.50477 18.25 2.50496 18.25 2.50518 18.25C2.5054 18.25 2.50564 18.25 2.50591 18.25C2.50617 18.25 2.50645 18.25 2.50676 18.25C2.50707 18.25 2.50739 18.25 2.50774 18.25C2.50809 18.25 2.50846 18.25 2.50886 18.25C2.50925 18.25 2.50966 18.25 2.5101 18.25C2.51053 18.25 2.51099 18.25 2.51147 18.25C2.51195 18.25 2.51245 18.25 2.51297 18.25C2.51349 18.25 2.51403 18.25 2.51459 18.25C2.51516 18.25 2.51574 18.25 2.51634 18.25C2.51695 18.25 2.51758 18.25 2.51822 18.25C2.51887 18.25 2.51954 18.25 2.52023 18.25C2.52092 18.25 2.52163 18.25 2.52236 18.25C2.52309 18.25 2.52384 18.25 2.52462 18.25C2.52539 18.25 2.52618 18.25 2.527 18.25C2.52781 18.25 2.52865 18.25 2.5295 18.25C2.53036 18.25 2.53124 18.25 2.53213 18.25C2.53303 18.25 2.53395 18.25 2.53489 18.25C2.53582 18.25 2.53678 18.25 2.53776 18.25C2.53874 18.25 2.53974 18.25 2.54076 18.25C2.54178 18.25 2.54282 18.25 2.54388 18.25C2.54494 18.25 2.54602 18.25 2.54712 18.25C2.54822 18.25 2.54935 18.25 2.55049 18.25C2.55163 18.25 2.55279 18.25 2.55397 18.25C2.55515 18.25 2.55636 18.25 2.55758 18.25C2.5588 18.25 2.56004 18.25 2.5613 18.25C2.56256 18.25 2.56385 18.25 2.56515 18.25C2.56645 18.25 2.56777 18.25 2.56911 18.25C2.57045 18.25 2.57181 18.25 2.57319 18.25C2.57457 18.25 2.57597 18.25 2.57739 18.25C2.57881 18.25 2.58025 18.25 2.58171 18.25C2.58317 18.25 2.58465 18.25 2.58615 18.25C2.58764 18.25 2.58916 18.25 2.5907 18.25C2.59224 18.25 2.59379 18.25 2.59537 18.25C2.59694 18.25 2.59854 18.25 2.60015 18.25C2.60177 18.25 2.6034 18.25 2.60505 18.25C2.60671 18.25 2.60838 18.25 2.61007 18.25C2.61176 18.25 2.61347 18.25 2.6152 18.25C2.61693 18.25 2.61868 18.25 2.62044 18.25C2.62221 18.25 2.624 18.25 2.6258 18.25C2.62761 18.25 2.62943 18.25 2.63127 18.25C2.63311 18.25 2.63498 18.25 2.63686 18.25C2.63874 18.25 2.64064 18.25 2.64255 18.25C2.64447 18.25 2.64641 18.25 2.64836 18.25C2.65032 18.25 2.65229 18.25 2.65428 18.25C2.65627 18.25 2.65828 18.25 2.66031 18.25C2.66234 18.25 2.66439 18.25 2.66645 18.25C2.66852 18.25 2.6706 18.25 2.67271 18.25C2.67481 18.25 2.67693 18.25 2.67907 18.25C2.68121 18.25 2.68336 18.25 2.68554 18.25C2.68772 18.25 2.68991 18.25 2.69212 18.25C2.69433 18.25 2.69656 18.25 2.69881 18.25C2.70106 18.25 2.70332 18.25 2.70561 18.25C2.70789 18.25 2.71019 18.25 2.71251 18.25C2.71483 18.25 2.71717 18.25 2.71952 18.25C2.72188 18.25 2.72425 18.25 2.72664 18.25C2.72903 18.25 2.73144 18.25 2.73386 18.25C2.73629 18.25 2.73873 18.25 2.74119 18.25C2.74365 18.25 2.74613 18.25 2.74863 18.25C2.75112 18.25 2.75364 18.25 2.75617 18.25C2.7587 18.25 2.76125 18.25 2.76381 18.25C2.76638 18.25 2.76896 18.25 2.77156 18.25C2.77416 18.25 2.77678 18.25 2.77941 18.25C2.78205 18.25 2.7847 18.25 2.78737 18.25C2.79004 18.25 2.79272 18.25 2.79543 18.25C2.79813 18.25 2.80085 18.25 2.80359 18.25C2.80632 18.25 2.80908 18.25 2.81185 18.25C2.81462 18.25 2.81741 18.25 2.82021 18.25C2.82302 18.25 2.82584 18.25 2.82868 18.25C2.83152 18.25 2.83437 18.25 2.83724 18.25C2.84011 18.25 2.843 18.25 2.84591 18.25C2.84881 18.25 2.85173 18.25 2.85467 18.25C2.85761 18.25 2.86056 18.25 2.86354 18.25C2.86651 18.25 2.86949 18.25 2.8725 18.25C2.8755 18.25 2.87852 18.25 2.88156 18.25C2.88459 18.25 2.88765 18.25 2.89072 18.25C2.89379 18.25 2.89687 18.25 2.89997 18.25C2.90307 18.25 2.90619 18.25 2.90933 18.25C2.91246 18.25 2.91561 18.25 2.91877 18.25C2.92194 18.25 2.92512 18.25 2.92832 18.25C2.93152 18.25 2.93473 18.25 2.93796 18.25C2.94119 18.25 2.94444 18.25 2.9477 18.25C2.95096 18.25 2.95423 18.25 2.95753 18.25C2.96082 18.25 2.96413 18.25 2.96745 18.25C2.97078 18.25 2.97412 18.25 2.97747 18.25C2.98083 18.25 2.9842 18.25 2.98758 18.25C2.99097 18.25 2.99437 18.25 2.99779 18.25C3.00121 18.25 3.00464 18.25 3.00809 18.25C3.01153 18.25 3.015 18.25 3.01848 18.25C3.02195 18.25 3.02545 18.25 3.02896 18.25C3.03247 18.25 3.03599 18.25 3.03953 18.25C3.04307 18.25 3.04662 18.25 3.05019 18.25C3.05376 18.25 3.05735 18.25 3.06095 18.25C3.06455 18.25 3.06816 18.25 3.07179 18.25C3.07542 18.25 3.07906 18.25 3.08272 18.25C3.08638 18.25 3.09006 18.25 3.09374 18.25C3.09743 18.25 3.10114 18.25 3.10485 18.25C3.10857 18.25 3.11231 18.25 3.11605 18.25C3.1198 18.25 3.12356 18.25 3.12734 18.25C3.13112 18.25 3.13491 18.25 3.13871 18.25C3.14252 18.25 3.14634 18.25 3.15017 18.25C3.15401 18.25 3.15786 18.25 3.16172 18.25C3.16558 18.25 3.16946 18.25 3.17335 18.25C3.17724 18.25 3.18115 18.25 3.18507 18.25C3.18899 18.25 3.19292 18.25 3.19687 18.25C3.20082 18.25 3.20478 18.25 3.20876 18.25C3.21273 18.25 3.21672 18.25 3.22073 18.25C3.22473 18.25 3.22875 18.25 3.23278 18.25C3.23681 18.25 3.24086 18.25 3.24492 18.25C3.24898 18.25 3.25305 18.25 3.25714 18.25C3.26123 18.25 3.26533 18.25 3.26944 18.25C3.27356 18.25 3.27769 18.25 3.28183 18.25C3.28597 18.25 3.29013 18.25 3.2943 18.25C3.29846 18.25 3.30265 18.25 3.30684 18.25C3.31104 18.25 3.31525 18.25 3.31947 18.25C3.32369 18.25 3.32793 18.25 3.33218 18.25C3.33643 18.25 3.34069 18.25 3.34497 18.25C3.34924 18.25 3.35353 18.25 3.35783 18.25C3.36213 18.25 3.36645 18.25 3.37078 18.25C3.37511 18.25 3.37945 18.25 3.3838 18.25C3.38816 18.25 3.39252 18.25 3.3969 18.25C3.40128 18.25 3.40568 18.25 3.41008 18.25C3.41449 18.25 3.41891 18.25 3.42334 18.25C3.42777 18.25 3.43221 18.25 3.43667 18.25C3.44113 18.25 3.4456 18.25 3.45008 18.25C3.45456 18.25 3.45906 18.25 3.46356 18.25C3.46807 18.25 3.47259 18.25 3.47712 18.25C3.48166 18.25 3.4862 18.25 3.49076 18.25C3.49532 18.25 3.49989 18.25 3.50447 18.25C3.50905 18.25 3.51364 18.25 3.51825 18.25C3.52286 18.25 3.52748 18.25 3.53211 18.25C3.53674 18.25 3.54138 18.25 3.54604 18.25C3.55069 18.25 3.55536 18.25 3.56004 18.25C3.56472 18.25 3.56941 18.25 3.57411 18.25C3.57882 18.25 3.58353 18.25 3.58826 18.25C3.59298 18.25 3.59772 18.25 3.60247 18.25C3.60723 18.25 3.61199 18.25 3.61676 18.25C3.62154 18.25 3.62632 18.25 3.63112 18.25C3.63592 18.25 3.64073 18.25 3.64555 18.25C3.65037 18.25 3.6552 18.25 3.66005 18.25C3.66489 18.25 3.66974 18.25 3.67461 18.25C3.67948 18.25 3.68436 18.25 3.68925 18.25C3.69414 18.25 3.69904 18.25 3.70395 18.25C3.70886 18.25 3.71379 18.25 3.71872 18.25C3.72366 18.25 3.7286 18.25 3.73356 18.25C3.73852 18.25 3.74348 18.25 3.74846 18.25C3.75344 18.25 3.75843 18.25 3.76343 18.25C3.76844 18.25 3.77345 18.25 3.77847 18.25C3.7835 18.25 3.78853 18.25 3.79357 18.25C3.79862 18.25 3.80368 18.25 3.80874 18.25C3.81381 18.25 3.81889 18.25 3.82397 18.25C3.82906 18.25 3.83416 18.25 3.83927 18.25C3.84438 18.25 3.8495 18.25 3.85463 18.25C3.85976 18.25 3.8649 18.25 3.87005 18.25C3.87521 18.25 3.88037 18.25 3.88554 18.25C3.89071 18.25 3.8959 18.25 3.90109 18.25C3.90628 18.25 3.91149 18.25 3.9167 18.25C3.92191 18.25 3.92714 18.25 3.93237 18.25C3.93761 18.25 3.94285 18.25 3.94811 18.25C3.95336 18.25 3.95862 18.25 3.9639 18.25C3.96917 18.25 3.97446 18.25 3.97975 18.25C3.98505 18.25 3.99035 18.25 3.99567 18.25C4.00098 18.25 4.00631 18.25 4.01164 18.25C4.01697 18.25 4.02232 18.25 4.02767 18.25C4.03303 18.25 4.03839 18.25 4.04376 18.25C4.04914 18.25 4.05452 18.25 4.05991 18.25C4.0653 18.25 4.0707 18.25 4.07612 18.25C4.08153 18.25 4.08695 18.25 4.09238 18.25C4.09781 18.25 4.10325 18.25 4.1087 18.25C4.11415 18.25 4.11961 18.25 4.12507 18.25C4.13054 18.25 4.13602 18.25 4.1415 18.25C4.14699 18.25 4.15249 18.25 4.15799 18.25C4.1635 18.25 4.16901 18.25 4.17453 18.25C4.18006 18.25 4.18559 18.25 4.19113 18.25C4.19667 18.25 4.20222 18.25 4.20778 18.25C4.21334 18.25 4.2189 18.25 4.22448 18.25C4.23006 18.25 4.23564 18.25 4.24124 18.25C4.24683 18.25 4.25244 18.25 4.25805 18.25C4.26366 18.25 4.26928 18.25 4.27491 18.25C4.28054 18.25 4.28618 18.25 4.29182 18.25C4.29747 18.25 4.30312 18.25 4.30879 18.25C4.31445 18.25 4.32012 18.25 4.3258 18.25C4.33148 18.25 4.33717 18.25 4.34287 18.25C4.34856 18.25 4.35427 18.25 4.35998 18.25C4.3657 18.25 4.37142 18.25 4.37715 18.25C4.38288 18.25 4.38862 18.25 4.39436 18.25C4.40011 18.25 4.40586 18.25 4.41162 18.25C4.41739 18.25 4.42316 18.25 4.42894 18.25C4.43471 18.25 4.4405 18.25 4.44629 18.25C4.45209 18.25 4.45789 18.25 4.4637 18.25C4.46951 18.25 4.47533 18.25 4.48115 18.25C4.48698 18.25 4.49281 18.25 4.49865 18.25C4.50449 18.25 4.51034 18.25 4.5162 18.25C4.52205 18.25 4.52792 18.25 4.53379 18.25C4.53966 18.25 4.54554 18.25 4.55143 18.25C4.55731 18.25 4.56321 18.25 4.56911 18.25C4.57501 18.25 4.58092 18.25 4.58683 18.25C4.59275 18.25 4.59867 18.25 4.6046 18.25C4.61053 18.25 4.61647 18.25 4.62241 18.25C4.62836 18.25 4.63431 18.25 4.64027 18.25C4.64623 18.25 4.65219 18.25 4.65816 18.25C4.66414 18.25 4.67012 18.25 4.6761 18.25C4.68209 18.25 4.68808 18.25 4.69409 18.25C4.70009 18.25 4.70609 18.25 4.71211 18.25C4.71812 18.25 4.72414 18.25 4.73017 18.25C4.7362 18.25 4.74223 18.25 4.74827 18.25C4.75431 18.25 4.76036 18.25 4.76642 18.25C4.77247 18.25 4.77853 18.25 4.7846 18.25C4.79067 18.25 4.79674 18.25 4.80282 18.25C4.8089 18.25 4.81499 18.25 4.82108 18.25C4.82717 18.25 4.83327 18.25 4.83938 18.25C4.84548 18.25 4.85159 18.25 4.85771 18.25C4.86383 18.25 4.86995 18.25 4.87608 18.25C4.88222 18.25 4.88835 18.25 4.89449 18.25C4.90064 18.25 4.90678 18.25 4.91294 18.25C4.91909 18.25 4.92525 18.25 4.93142 18.25C4.93759 18.25 4.94376 18.25 4.94994 18.25C4.95611 18.25 4.9623 18.25 4.96849 18.25C4.97468 18.25 4.98087 18.25 4.98707 18.25C4.99327 18.25 4.99948 18.25 5.00569 18.25C5.01191 18.25 5.01812 18.25 5.02435 18.25C5.03057 18.25 5.0368 18.25 5.04303 18.25C5.04927 18.25 5.05551 18.25 5.06175 18.25C5.068 18.25 5.07425 18.25 5.08051 18.25C5.08676 18.25 5.09302 18.25 5.09929 18.25C5.10556 18.25 5.11183 18.25 5.1181 18.25C5.12438 18.25 5.13066 18.25 5.13695 18.25C5.14324 18.25 5.14953 18.25 5.15583 18.25C5.16212 18.25 5.16842 18.25 5.17473 18.25C5.18104 18.25 5.18735 18.25 5.19367 18.25C5.19998 18.25 5.20631 18.25 5.21263 18.25C5.21896 18.25 5.22529 18.25 5.23163 18.25C5.23796 18.25 5.2443 18.25 5.25065 18.25C5.25699 18.25 5.26334 18.25 5.2697 18.25C5.27605 18.25 5.28241 18.25 5.28878 18.25C5.29514 18.25 5.30151 18.25 5.30788 18.25C5.31425 18.25 5.32063 18.25 5.32701 18.25C5.33339 18.25 5.33978 18.25 5.34617 18.25C5.35256 18.25 5.35895 18.25 5.36535 18.25C5.37175 18.25 5.37815 18.25 5.38456 18.25C5.39096 18.25 5.39738 18.25 5.40379 18.25C5.41021 18.25 5.41662 18.25 5.42305 18.25C5.42947 18.25 5.4359 18.25 5.44233 18.25C5.44876 18.25 5.45519 18.25 5.46163 18.25C5.46807 18.25 5.47451 18.25 5.48096 18.25C5.4874 18.25 5.49385 18.25 5.50031 18.25C5.50676 18.25 5.51322 18.25 5.51968 18.25C5.52614 18.25 5.5326 18.25 5.53907 18.25C5.54554 18.25 5.55201 18.25 5.55849 18.25C5.56496 18.25 5.57144 18.25 5.57792 18.25C5.5844 18.25 5.59089 18.25 5.59738 18.25C5.60387 18.25 5.61036 18.25 5.61685 18.25C5.62335 18.25 5.62985 18.25 5.63635 18.25C5.64285 18.25 5.64935 18.25 5.65586 18.25C5.66237 18.25 5.66888 18.25 5.67539 18.25C5.68191 18.25 5.68842 18.25 5.69494 18.25C5.70146 18.25 5.70799 18.25 5.71451 18.25C5.72104 18.25 5.72757 18.25 5.7341 18.25C5.74063 18.25 5.74716 18.25 5.7537 18.25C5.76024 18.25 5.76677 18.25 5.77332 18.25C5.77986 18.25 5.7864 18.25 5.79295 18.25C5.7995 18.25 5.80605 18.25 5.8126 18.25C5.81915 18.25 5.82571 18.25 5.83226 18.25C5.83882 18.25 5.84538 18.25 5.85194 18.25C5.85851 18.25 5.86507 18.25 5.87164 18.25C5.8782 18.25 5.88477 18.25 5.89134 18.25C5.89792 18.25 5.90449 18.25 5.91106 18.25C5.91764 18.25 5.92422 18.25 5.9308 18.25C5.93738 18.25 5.94396 18.25 5.95054 18.25C5.95713 18.25 5.96371 18.25 5.9703 18.25C5.97689 18.25 5.98348 18.25 5.99007 18.25C5.99666 18.25 6.00325 18.25 6.00985 18.25C6.01644 18.25 6.02304 18.25 6.02964 18.25C6.03624 18.25 6.04284 18.25 6.04944 18.25C6.05604 18.25 6.06264 18.25 6.06925 18.25C6.07585 18.25 6.08246 18.25 6.08907 18.25C6.09567 18.25 6.10228 18.25 6.10889 18.25C6.1155 18.25 6.12212 18.25 6.12873 18.25C6.13534 18.25 6.14196 18.25 6.14857 18.25C6.15519 18.25 6.16181 18.25 6.16843 18.25C6.17504 18.25 6.18166 18.25 6.18828 18.25C6.19491 18.25 6.20153 18.25 6.20815 18.25C6.21477 18.25 6.2214 18.25 6.22802 18.25C6.23465 18.25 6.24127 18.25 6.2479 18.25C6.25452 18.25 6.26115 18.25 6.26778 18.25C6.27441 18.25 6.28104 18.25 6.28767 18.25C6.2943 18.25 6.30093 18.25 6.30756 18.25C6.31419 18.25 6.32082 18.25 6.32745 18.25C6.33409 18.25 6.34072 18.25 6.34735 18.25C6.35399 18.25 6.36062 18.25 6.36726 18.25C6.37389 18.25 6.38052 18.25 6.38716 18.25C6.39379 18.25 6.40043 18.25 6.40707 18.25C6.4137 18.25 6.42034 18.25 6.42697 18.25C6.43361 18.25 6.44025 18.25 6.44688 18.25C6.45352 18.25 6.46016 18.25 6.46679 18.25C6.47343 18.25 6.48007 18.25 6.48671 18.25C6.49334 18.25 6.49998 18.25 6.50662 18.25C6.51325 18.25 6.51989 18.25 6.52653 18.25C6.53316 18.25 6.5398 18.25 6.54644 18.25C6.55307 18.25 6.55971 18.25 6.56634 18.25C6.57298 18.25 6.57961 18.25 6.58625 18.25C6.59288 18.25 6.59952 18.25 6.60615 18.25C6.61279 18.25 6.61942 18.25 6.62605 18.25C6.63269 18.25 6.63932 18.25 6.64595 18.25C6.65258 18.25 6.65922 18.25 6.66585 18.25C6.67248 18.25 6.67911 18.25 6.68574 18.25C6.69237 18.25 6.69899 18.25 6.70562 18.25C6.71225 18.25 6.71888 18.25 6.7255 18.25C6.73213 18.25 6.73875 18.25 6.74538 18.25C6.752 18.25 6.75863 18.25 6.76525 18.25C6.77187 18.25 6.77849 18.25 6.78511 18.25C6.79173 18.25 6.79835 18.25 6.80497 18.25C6.81158 18.25 6.8182 18.25 6.82482 18.25C6.83143 18.25 6.83805 18.25 6.84466 18.25C6.85127 18.25 6.85788 18.25 6.86449 18.25C6.8711 18.25 6.87771 18.25 6.88432 18.25C6.89092 18.25 6.89753 18.25 6.90413 18.25C6.91074 18.25 6.91734 18.25 6.92394 18.25C6.93054 18.25 6.93714 18.25 6.94374 18.25C6.95034 18.25 6.95693 18.25 6.96352 18.25C6.97012 18.25 6.97671 18.25 6.9833 18.25C6.98989 18.25 6.99648 18.25 7.00307 18.25C7.00965 18.25 7.01624 18.25 7.02282 18.25C7.0294 18.25 7.03598 18.25 7.04256 18.25C7.04914 18.25 7.05572 18.25 7.06229 18.25C7.06886 18.25 7.07544 18.25 7.08201 18.25C7.08858 18.25 7.09514 18.25 7.10171 18.25C7.10827 18.25 7.11484 18.25 7.1214 18.25C7.12796 18.25 7.13452 18.25 7.14107 18.25C7.14763 18.25 7.15418 18.25 7.16073 18.25C7.16728 18.25 7.17383 18.25 7.18038 18.25C7.18692 18.25 7.19347 18.25 7.20001 18.25C7.20655 18.25 7.21308 18.25 7.21962 18.25C7.22615 18.25 7.23269 18.25 7.23922 18.25C7.24575 18.25 7.25227 18.25 7.2588 18.25C7.26532 18.25 7.27184 18.25 7.27836 18.25C7.28488 18.25 7.29139 18.25 7.2979 18.25C7.30442 18.25 7.31093 18.25 7.31743 18.25C7.32394 18.25 7.33044 18.25 7.33694 18.25C7.34344 18.25 7.34993 18.25 7.35643 18.25C7.36292 18.25 7.36941 18.25 7.3759 18.25C7.38238 18.25 7.38887 18.25 7.39535 18.25C7.40183 18.25 7.4083 18.25 7.41477 18.25C7.42125 18.25 7.42772 18.25 7.43418 18.25C7.44065 18.25 7.44711 18.25 7.45357 18.25C7.46003 18.25 7.46648 18.25 7.47293 18.25C7.47939 18.25 7.48583 18.25 7.49228 18.25C7.49872 18.25 7.50516 18.25 7.5116 18.25C7.51803 18.25 7.52447 18.25 7.53089 18.25C7.53732 18.25 7.54375 18.25 7.55017 18.25C7.55659 18.25 7.563 18.25 7.56942 18.25C7.57583 18.25 7.58224 18.25 7.58864 18.25C7.59505 18.25 7.60145 18.25 7.60784 18.25C7.61424 18.25 7.62063 18.25 7.62702 18.25C7.6334 18.25 7.63979 18.25 7.64616 18.25C7.65254 18.25 7.65892 18.25 7.66529 18.25C7.67166 18.25 7.67802 18.25 7.68438 18.25C7.69074 18.25 7.6971 18.25 7.70345 18.25C7.7098 18.25 7.71615 18.25 7.72249 18.25C7.72884 18.25 7.73517 18.25 7.74151 18.25C7.74784 18.25 7.75417 18.25 7.76049 18.25C7.76682 18.25 7.77314 18.25 7.77945 18.25C7.78576 18.25 7.79207 18.25 7.79838 18.25C7.80468 18.25 7.81098 18.25 7.81727 18.25C7.82357 18.25 7.82986 18.25 7.83614 18.25C7.84242 18.25 7.8487 18.25 7.85498 18.25C7.86125 18.25 7.86752 18.25 7.87378 18.25C7.88005 18.25 7.8863 18.25 7.89256 18.25C7.89881 18.25 7.90506 18.25 7.9113 18.25C7.91754 18.25 7.92378 18.25 7.93001 18.25C7.93624 18.25 7.94246 18.25 7.94868 18.25C7.9549 18.25 7.96112 18.25 7.96733 18.25C7.97354 18.25 7.97974 18.25 7.98594 18.25C7.99213 18.25 7.99833 18.25 8.00451 18.25C8.0107 18.25 8.01688 18.25 8.02305 18.25C8.02923 18.25 8.0354 18.25 8.04156 18.25C8.04772 18.25 8.05388 18.25 8.06003 18.25C8.06618 18.25 8.07232 18.25 8.07846 18.25C8.0846 18.25 8.09073 18.25 8.09686 18.25C8.10299 18.25 8.10911 18.25 8.11522 18.25C8.12134 18.25 8.12744 18.25 8.13355 18.25C8.13965 18.25 8.14574 18.25 8.15183 18.25C8.15792 18.25 8.164 18.25 8.17008 18.25C8.17616 18.25 8.18223 18.25 8.18829 18.25C8.19435 18.25 8.20041 18.25 8.20646 18.25C8.21251 18.25 8.21855 18.25 8.22459 18.25C8.23063 18.25 8.23666 18.25 8.24268 18.25C8.24871 18.25 8.25472 18.25 8.26073 18.25C8.26674 18.25 8.27275 18.25 8.27874 18.25C8.28474 18.25 8.29073 18.25 8.29671 18.25C8.30269 18.25 8.30867 18.25 8.31464 18.25C8.32061 18.25 8.32657 18.25 8.33252 18.25C8.33848 18.25 8.34442 18.25 8.35036 18.25C8.3563 18.25 8.36224 18.25 8.36816 18.25C8.37409 18.25 8.38001 18.25 8.38592 18.25C8.39183 18.25 8.39773 18.25 8.40363 18.25C8.40953 18.25 8.41542 18.25 8.4213 18.25C8.42718 18.25 8.43305 18.25 8.43892 18.25C8.44479 18.25 8.45065 18.25 8.4565 18.25C8.46235 18.25 8.46819 18.25 8.47403 18.25C8.47986 18.25 8.48569 18.25 8.49151 18.25C8.49733 18.25 8.50315 18.25 8.50895 18.25C8.51476 18.25 8.52056 18.25 8.52634 18.25C8.53213 18.25 8.53792 18.25 8.54369 18.25C8.54946 18.25 8.55523 18.25 8.56099 18.25C8.56674 18.25 8.57249 18.25 8.57823 18.25C8.58397 18.25 8.58971 18.25 8.59543 18.25C8.60116 18.25 8.60687 18.25 8.61258 18.25C8.61829 18.25 8.62399 18.25 8.62968 18.25C8.63537 18.25 8.64106 18.25 8.64673 18.25C8.65241 18.25 8.65807 18.25 8.66373 18.25C8.66939 18.25 8.67504 18.25 8.68068 18.25C8.68632 18.25 8.69196 18.25 8.69758 18.25C8.7032 18.25 8.70882 18.25 8.71442 18.25C8.72003 18.25 8.72563 18.25 8.73122 18.25C8.73681 18.25 8.74239 18.25 8.74796 18.25C8.75353 18.25 8.75909 18.25 8.76464 18.25C8.7702 18.25 8.77574 18.25 8.78128 18.25C8.78681 18.25 8.79234 18.25 8.79786 18.25C8.80337 18.25 8.80888 18.25 8.81438 18.25C8.81988 18.25 8.82537 18.25 8.83085 18.25C8.83633 18.25 8.8418 18.25 8.84727 18.25C8.85273 18.25 8.85818 18.25 8.86362 18.25C8.86907 18.25 8.8745 18.25 8.87993 18.25C8.88535 18.25 8.89077 18.25 8.89617 18.25C8.90158 18.25 8.90697 18.25 8.91236 18.25C8.91775 18.25 8.92312 18.25 8.92849 18.25C8.93386 18.25 8.93922 18.25 8.94456 18.25C8.94991 18.25 8.95525 18.25 8.96058 18.25C8.96591 18.25 8.97122 18.25 8.97653 18.25C8.98184 18.25 8.98714 18.25 8.99243 18.25C8.99772 18.25 9.003 18.25 9.00826 18.25C9.01353 18.25 9.01879 18.25 9.02404 18.25C9.02929 18.25 9.03453 18.25 9.03975 18.25C9.04498 18.25 9.0502 18.25 9.05541 18.25C9.06061 18.25 9.06581 18.25 9.071 18.25C9.07619 18.25 9.08136 18.25 9.08653 18.25C9.09169 18.25 9.09685 18.25 9.102 18.25C9.10714 18.25 9.11228 18.25 9.1174 18.25C9.12252 18.25 9.12764 18.25 9.13274 18.25C9.13784 18.25 9.14294 18.25 9.14802 18.25C9.1531 18.25 9.15817 18.25 9.16323 18.25C9.16829 18.25 9.17334 18.25 9.17838 18.25C9.18342 18.25 9.18844 18.25 9.19346 18.25C9.19848 18.25 9.20348 18.25 9.20848 18.25C9.21347 18.25 9.21846 18.25 9.22343 18.25C9.2284 18.25 9.23336 18.25 9.23831 18.25C9.24326 18.25 9.2482 18.25 9.25313 18.25C9.25806 18.25 9.26298 18.25 9.26788 18.25C9.27279 18.25 9.27768 18.25 9.28256 18.25C9.28745 18.25 9.29232 18.25 9.29718 18.25C9.30204 18.25 9.30689 18.25 9.31172 18.25C9.31656 18.25 9.32139 18.25 9.3262 18.25C9.33101 18.25 9.33582 18.25 9.34061 18.25C9.3454 18.25 9.35018 18.25 9.35494 18.25C9.35971 18.25 9.36447 18.25 9.36921 18.25C9.37395 18.25 9.37868 18.25 9.3834 18.25C9.38812 18.25 9.39283 18.25 9.39753 18.25C9.40222 18.25 9.40691 18.25 9.41158 18.25C9.41625 18.25 9.42091 18.25 9.42556 18.25C9.43021 18.25 9.43484 18.25 9.43947 18.25C9.44409 18.25 9.4487 18.25 9.4533 18.25C9.4579 18.25 9.46249 18.25 9.46706 18.25C9.47164 18.25 9.4762 18.25 9.48075 18.25C9.4853 18.25 9.48983 18.25 9.49436 18.25C9.49888 18.25 9.5034 18.25 9.5079 18.25C9.5124 18.25 9.51688 18.25 9.52136 18.25C9.52583 18.25 9.53029 18.25 9.53474 18.25C9.53919 18.25 9.54363 18.25 9.54805 18.25C9.55248 18.25 9.55689 18.25 9.56129 18.25C9.56568 18.25 9.57007 18.25 9.57444 18.25C9.57881 18.25 9.58317 18.25 9.58752 18.25C9.59187 18.25 9.5962 18.25 9.60052 18.25C9.60484 18.25 9.60915 18.25 9.61344 18.25C9.61773 18.25 9.62202 18.25 9.62628 18.25C9.63055 18.25 9.63481 18.25 9.63905 18.25C9.64329 18.25 9.64752 18.25 9.65173 18.25C9.65594 18.25 9.66015 18.25 9.66433 18.25C9.66852 18.25 9.6727 18.25 9.67686 18.25C9.68102 18.25 9.68516 18.25 9.6893 18.25C9.69343 18.25 9.69755 18.25 9.70166 18.25C9.70576 18.25 9.70986 18.25 9.71394 18.25C9.71801 18.25 9.72208 18.25 9.72613 18.25C9.73018 18.25 9.73422 18.25 9.73824 18.25C9.74227 18.25 9.74628 18.25 9.75027 18.25C9.75427 18.25 9.75825 18.25 9.76222 18.25C9.76619 18.25 9.77014 18.25 9.77408 18.25C9.77802 18.25 9.78194 18.25 9.78586 18.25C9.78977 18.25 9.79366 18.25 9.79755 18.25C9.80143 18.25 9.8053 18.25 9.80915 18.25C9.81301 18.25 9.81685 18.25 9.82067 18.25C9.8245 18.25 9.82831 18.25 9.83211 18.25C9.8359 18.25 9.83969 18.25 9.84345 18.25C9.84722 18.25 9.85097 18.25 9.85471 18.25C9.85845 18.25 9.86218 18.25 9.86588 18.25C9.86959 18.25 9.87329 18.25 9.87697 18.25C9.88065 18.25 9.88431 18.25 9.88796 18.25C9.89161 18.25 9.89525 18.25 9.89887 18.25C9.90249 18.25 9.90609 18.25 9.90968 18.25C9.91327 18.25 9.91685 18.25 9.92041 18.25C9.92397 18.25 9.92752 18.25 9.93105 18.25C9.93458 18.25 9.93809 18.25 9.94159 18.25C9.94509 18.25 9.94858 18.25 9.95204 18.25C9.95551 18.25 9.95897 18.25 9.96241 18.25C9.96584 18.25 9.96927 18.25 9.97268 18.25C9.97608 18.25 9.97948 18.25 9.98285 18.25C9.98623 18.25 9.98959 18.25 9.99294 18.25C9.99628 18.25 9.99961 18.25 10.0029 18.25V16.75ZM2.50353 17.5C3.19589 17.7883 3.19593 17.7882 3.19598 17.7881C3.196 17.7881 3.19605 17.788 3.1961 17.7878C3.19618 17.7876 3.19629 17.7874 3.19642 17.7871C3.19668 17.7864 3.19701 17.7856 3.19742 17.7846C3.19825 17.7827 3.19938 17.7799 3.2008 17.7765C3.20366 17.7695 3.20769 17.7597 3.21282 17.7471C3.22307 17.7218 3.23768 17.6856 3.25588 17.6395C3.29226 17.5474 3.34312 17.4159 3.40225 17.2553C3.52012 16.9351 3.67283 16.4938 3.80942 16.0151C3.94483 15.5404 4.0707 15.0073 4.12591 14.5088C4.1772 14.0457 4.18659 13.4671 3.95446 13.0002L2.61125 13.6678C2.63912 13.7239 2.6811 13.9276 2.63502 14.3437C2.59286 14.7244 2.49139 15.1674 2.36697 15.6035C2.24373 16.0355 2.10411 16.4396 1.9946 16.7371C1.94005 16.8853 1.89346 17.0057 1.86082 17.0883C1.84451 17.1296 1.83171 17.1614 1.82318 17.1824C1.81891 17.1928 1.81572 17.2006 1.81368 17.2056C1.81267 17.2081 1.81194 17.2098 1.81152 17.2108C1.81131 17.2113 1.81117 17.2117 1.81112 17.2118C1.81109 17.2119 1.81108 17.2119 1.81109 17.2119C1.81109 17.2119 1.81111 17.2118 1.81112 17.2118C1.81114 17.2117 1.81118 17.2117 2.50353 17.5Z" fill="#444444"/>
</svg>
