<svg width="261" height="126" viewBox="0 0 261 126" fill="none" xmlns="http://www.w3.org/2000/svg">
<path fill-rule="evenodd" clip-rule="evenodd" d="M68 11.5C68 5.14873 73.1487 0 79.5 0C85.8513 0 91 5.14873 91 11.5V105.5C91 111.851 85.8513 117 79.5 117C73.1487 117 68 111.851 68 105.5V11.5ZM45.5 22C39.1487 22 34 27.1487 34 33.5V83.5C34 89.8513 39.1487 95 45.5 95C51.8513 95 57 89.8513 57 83.5V33.5C57 27.1487 51.8513 22 45.5 22ZM11.5 47C5.14873 47 0 52.1487 0 58.5C0 64.8513 5.14873 70 11.5 70C17.8513 70 23 64.8513 23 58.5C23 52.1487 17.8513 47 11.5 47ZM113.5 10C107.149 10 102 15.1487 102 21.5V95.5C102 101.851 107.149 107 113.5 107C119.851 107 125 101.851 125 95.5V21.5C125 15.1487 119.851 10 113.5 10Z" fill="url(#paint0_linear_31_7748)"/>
<path fill-rule="evenodd" clip-rule="evenodd" d="M215.5 29C209.149 29 204 34.1487 204 40.5V114.5C204 120.851 209.149 126 215.5 126C221.851 126 227 120.851 227 114.5V40.5C227 34.1487 221.851 29 215.5 29ZM136 52.5C136 46.1487 141.149 41 147.5 41C153.851 41 159 46.1487 159 52.5V102.5C159 108.851 153.851 114 147.5 114C141.149 114 136 108.851 136 102.5V52.5ZM170 66.5C170 60.1487 175.149 55 181.5 55C187.851 55 193 60.1487 193 66.5V88.5C193 94.8513 187.851 100 181.5 100C175.149 100 170 94.8513 170 88.5V66.5Z" fill="url(#paint1_linear_31_7748)"/>
<rect x="238" y="38" width="23" height="79" rx="11.5" fill="#F1BEFF"/>
<defs>
<linearGradient id="paint0_linear_31_7748" x1="3.79673" y1="19.89" x2="132.067" y2="26.1579" gradientUnits="userSpaceOnUse">
<stop stop-color="#13E880"/>
<stop offset="1" stop-color="#80E8FF"/>
</linearGradient>
<linearGradient id="paint1_linear_31_7748" x1="136" y1="66" x2="237.5" y2="77" gradientUnits="userSpaceOnUse">
<stop stop-color="#74BDF1"/>
<stop offset="1" stop-color="#FD8EFF"/>
</linearGradient>
</defs>
</svg>
